<?xml version="1.0" encoding="utf-8"?>
<!-- Generator: Adobe Illustrator 22.1.0, SVG Export Plug-In . SVG Version: 6.00 Build 0)  -->
<svg version="1.1" xmlns="http://www.w3.org/2000/svg" xmlns:xlink="http://www.w3.org/1999/xlink" x="0px" y="0px"
	 viewBox="0 0 2000 1350" style="enable-background:new 0 0 2000 1350;" xml:space="preserve">
<style type="text/css">
	.st0{fill:#1B2638;}
	.st1{fill:#FFFFFF;}
	.st2{fill:none;stroke:#FFFFFF;stroke-width:1.0722;stroke-miterlimit:10;}
	.st3{font-family:'BebasNeue-Regular';}
	.st4{font-size:29.964px;}
	.st5{fill:none;}
</style>
<g id="Layer_2">
	<rect class="st0" width="2000" height="1350"/>
</g>
<g id="Layer_3">
</g>
<g id="Layer_1">
	<path class="st1" d="M223.7,791.2c-32.3,0-58.6,26.2-58.6,58.6c0,32.4,26.2,58.6,58.6,58.6c32.4,0,58.6-26.2,58.6-58.6
		C282.3,817.4,256.1,791.2,223.7,791.2z"/>
	<g>
		<rect x="124.4" y="180.4" class="st1" width="126" height="81"/>
		<path class="st1" d="M203.8,208.4v2.4c0,1.6-0.3,2.8-1,3.5c-0.7,0.7-1.7,1-3,1h-2.6V204h3.3c1.2,0,2.1,0.3,2.6,1
			C203.5,205.7,203.8,206.8,203.8,208.4z"/>
		<path class="st1" d="M204.5,226.7v3.8c0,1.5-0.3,2.6-0.9,3.3c-0.6,0.6-1.5,1-2.7,1h-3.9v-13.2h3c1.6,0,2.7,0.4,3.3,1.1
			C204.2,223.4,204.5,224.8,204.5,226.7z"/>
		<path class="st0" d="M206.2,218v-0.1c1.5-0.6,2.6-1.6,3.3-3c0.7-1.4,1.1-3.2,1.1-5.4v-1.7c0-3.4-0.8-5.8-2.4-7.5
			c-1.6-1.6-4.1-2.4-7.6-2.4h-10.2v43H201c3.4,0,5.9-0.9,7.7-2.6c1.7-1.7,2.6-4.3,2.6-7.6V227C211.3,222.1,209.6,219.1,206.2,218z
			 M197.1,204h3.3c1.2,0,2.1,0.3,2.6,1c0.5,0.7,0.8,1.8,0.8,3.4v2.4c0,1.6-0.3,2.8-1,3.5c-0.7,0.7-1.7,1-3,1h-2.6V204z M204.5,230.5
			c0,1.5-0.3,2.6-0.9,3.3c-0.6,0.6-1.5,1-2.7,1h-3.9v-13.2h3c1.6,0,2.7,0.4,3.3,1.1c0.7,0.8,1,2.1,1,4.1V230.5z"/>
		<polygon class="st0" points="182.5,234.7 182.5,240.9 164.6,240.9 164.6,197.8 171.4,197.8 171.4,234.7 		"/>
	</g>
	<path class="st1" d="M385,208.4v2.4c0,1.6-0.3,2.8-1,3.5c-0.7,0.7-1.7,1-3,1h-2.7V204h3.3c1.2,0,2.1,0.3,2.6,1
		C384.8,205.7,385,206.8,385,208.4z"/>
	<g>
		<rect x="303.8" y="180.4" class="st1" width="126" height="81"/>
		<path class="st1" d="M385.7,226.7v3.8c0,1.5-0.3,2.6-0.9,3.3c-0.6,0.6-1.5,1-2.7,1h-3.9v-13.2h3c1.6,0,2.7,0.4,3.4,1.1
			C385.4,223.4,385.7,224.8,385.7,226.7z"/>
		<path class="st0" d="M387.5,218v-0.1c1.5-0.6,2.6-1.6,3.3-3c0.7-1.4,1.1-3.2,1.1-5.4v-1.7c0-3.4-0.8-5.8-2.4-7.5
			c-1.6-1.6-4.1-2.4-7.6-2.4h-10.2v43h10.6c3.4,0,5.9-0.9,7.7-2.6c1.7-1.7,2.6-4.3,2.6-7.6V227C392.5,222.1,390.8,219.1,387.5,218z
			 M378.3,204h3.3c1.2,0,2.1,0.3,2.6,1c0.5,0.7,0.8,1.8,0.8,3.4v2.4c0,1.6-0.3,2.8-1,3.5c-0.7,0.7-1.7,1-3,1h-2.7V204z M385.7,230.5
			c0,1.5-0.3,2.6-0.9,3.3c-0.6,0.6-1.5,1-2.7,1h-3.9v-13.2h3c1.6,0,2.7,0.4,3.4,1.1c0.7,0.8,1,2.1,1,4.1V230.5z"/>
		<path class="st0" d="M362.4,238.6c-0.1-0.8-0.1-1.8-0.1-3v-7.6c0-2.5-0.3-4.6-1-6.1c-0.7-1.5-1.8-2.5-3.5-3v-0.1
			c3-1.2,4.4-4,4.4-8.5v-2.6c0-3.4-0.8-5.8-2.4-7.5c-1.6-1.6-4.1-2.4-7.6-2.4h-10v43h6.8v-18.5h2.3c1.5,0,2.7,0.4,3.3,1.2
			c0.6,0.8,0.9,2.2,0.9,4.1v7.9c0,1.6,0.1,2.7,0.1,3.3c0.1,0.6,0.3,1.3,0.5,2h6.9C362.7,240.1,362.5,239.4,362.4,238.6z
			 M355.5,211.7c0,1.6-0.3,2.8-1,3.5c-0.7,0.7-1.7,1-3,1H349V204h3.1c1.2,0,2.1,0.3,2.6,1c0.6,0.7,0.8,1.8,0.8,3.4V211.7z"/>
	</g>
	<g>
		<path class="st1" d="M124.4,286.6h126v81c-42,18.8-84,18.8-126,0V286.6z"/>
		<polygon class="st0" points="208.3,309.3 208.3,315.5 201.2,315.5 201.2,352.4 194.5,352.4 194.5,315.5 187.4,315.5 187.4,309.3 
					"/>
		<polygon class="st0" points="186.1,346.2 186.1,352.4 168.2,352.4 168.2,309.3 175,309.3 175,346.2 		"/>
	</g>
	<g>
		<path class="st1" d="M429.8,286.6v81c-42,18.8-84,18.8-126,0v-81H429.8z"/>
		<path class="st1" d="M356.8,319.9v3.3c0,1.7-0.4,2.8-1,3.5c-0.7,0.7-1.7,1-3,1h-2.5v-12.3h3.1c1.2,0,2,0.3,2.6,1
			C356.5,317.2,356.8,318.4,356.8,319.9z"/>
		<polygon class="st0" points="391.9,309.3 391.9,315.5 384.8,315.5 384.8,352.4 378,352.4 378,315.5 371,315.5 371,309.3 		"/>
		<path class="st0" d="M363.7,350.1c-0.1-0.8-0.1-1.8-0.1-3v-7.6c0-2.5-0.3-4.6-1-6.1c-0.7-1.5-1.8-2.5-3.5-3v-0.1
			c3-1.2,4.4-4,4.4-8.5v-2.6c0-3.4-0.8-5.9-2.4-7.5c-1.6-1.6-4.1-2.4-7.6-2.4h-10v43h6.8v-18.4h2.3c1.6,0,2.6,0.4,3.3,1.2
			c0.6,0.8,0.9,2.2,0.9,4.1v7.9c0,1.6,0,2.7,0.1,3.3c0.1,0.6,0.3,1.3,0.5,2h6.9C364,351.6,363.8,350.9,363.7,350.1z M356.8,323.2
			c0,1.7-0.4,2.8-1,3.5c-0.7,0.7-1.7,1-3,1h-2.5v-12.3h3.1c1.2,0,2,0.3,2.6,1c0.6,0.7,0.8,1.8,0.8,3.4V323.2z"/>
	</g>
	<g>
		<rect x="124.4" y="451.5" class="st1" width="126" height="81"/>
		<path class="st0" d="M206.7,469v43H200v-32.8h-7.1v-4.8c1.9,0,3.5-0.2,4.6-0.5c1.2-0.3,2.1-0.9,2.8-1.6c0.7-0.8,1.3-1.8,1.8-3.3
			H206.7z"/>
		<polygon class="st0" points="182.6,505.9 182.6,512 164.7,512 164.7,469 171.5,469 171.5,505.9 		"/>
	</g>
	<g>
		<path class="st1" d="M355.6,479.5v3.3c0,1.6-0.3,2.8-1,3.5c-0.7,0.7-1.7,1-3,1h-2.5v-12.3h3.1c1.2,0,2,0.3,2.6,1
			C355.3,476.9,355.6,478,355.6,479.5z"/>
		<rect x="303.8" y="451.5" class="st1" width="126" height="81"/>
		<path class="st0" d="M388,469v43h-6.8v-32.8h-7.1v-4.8c1.9,0,3.5-0.2,4.7-0.5c1.2-0.3,2.1-0.9,2.8-1.6c0.7-0.8,1.3-1.8,1.8-3.3
			H388z"/>
		<path class="st0" d="M362.6,509.8c-0.1-0.8-0.1-1.8-0.1-3v-7.6c0-2.5-0.3-4.6-1-6.1c-0.7-1.5-1.8-2.5-3.5-3V490
			c2.9-1.2,4.4-4,4.4-8.5v-2.6c0-3.4-0.8-5.9-2.4-7.5c-1.6-1.6-4.1-2.4-7.6-2.4h-10v43h6.8v-18.4h2.3c1.5,0,2.6,0.4,3.3,1.2
			c0.6,0.8,1,2.2,1,4.1v7.9c0,1.6,0,2.7,0.1,3.3c0.1,0.6,0.3,1.3,0.5,2h6.9C362.8,511.3,362.6,510.5,362.6,509.8z M355.6,482.9
			c0,1.6-0.3,2.8-1,3.5c-0.7,0.7-1.7,1-3,1h-2.5v-12.3h3.1c1.2,0,2,0.3,2.6,1c0.5,0.7,0.8,1.8,0.8,3.4V482.9z"/>
	</g>
	<g>
		<path class="st1" d="M250.4,557.7v80.9c-42,18.8-84,18.8-126,0v-80.9H250.4z"/>
		<path class="st0" d="M197.1,617.4h12.8v6.1h-19.5v-4.7c0-3.1,0.5-5.7,1.5-7.9c1-2.2,2.7-4.6,5.3-7.3c2.5-2.7,4.2-4.9,5.2-6.8
			c1-1.9,1.5-3.8,1.5-5.9c0-1.9-0.3-3.1-0.9-3.8c-0.6-0.7-1.5-1.1-2.6-1.1c-2.3,0-3.5,1.4-3.5,4.2v4.6h-6.4v-4.2
			c0-3.5,0.9-6.2,2.6-8c1.7-1.9,4.2-2.8,7.5-2.8c3.3,0,5.8,0.9,7.5,2.8c1.7,1.9,2.6,4.5,2.6,8c0,2.6-0.6,5.2-1.9,7.7
			c-1.3,2.5-3.4,5.4-6.5,8.6c-2,2.1-3.4,3.9-4.1,5.2c-0.7,1.3-1,2.8-1,4.3V617.4z"/>
		<polygon class="st0" points="182.6,617.4 182.6,623.5 164.7,623.5 164.7,580.5 171.5,580.5 171.5,617.4 		"/>
	</g>
	<g>
		<path class="st1" d="M355.6,591.1v3.3c0,1.6-0.3,2.8-1,3.5c-0.7,0.7-1.7,1-3,1h-2.5v-12.3h3.1c1.2,0,2,0.3,2.6,1
			C355.3,588.4,355.6,589.5,355.6,591.1z"/>
		<path class="st1" d="M429.8,557.7v80.9c-42,18.8-84,18.8-126,0v-80.9H429.8z"/>
		<path class="st0" d="M378.3,617.4h12.9v6.1h-19.5v-4.7c0-3.1,0.5-5.7,1.5-7.9c1-2.2,2.8-4.6,5.3-7.3c2.5-2.7,4.2-4.9,5.2-6.8
			c1-1.9,1.4-3.8,1.4-5.9c0-1.9-0.3-3.1-0.9-3.8c-0.6-0.7-1.5-1.1-2.6-1.1c-2.3,0-3.5,1.4-3.5,4.2v4.6h-6.4v-4.2
			c0-3.5,0.9-6.2,2.6-8c1.7-1.9,4.2-2.8,7.5-2.8c3.3,0,5.8,0.9,7.5,2.8c1.7,1.9,2.6,4.5,2.6,8c0,2.6-0.6,5.2-1.9,7.7
			s-3.4,5.4-6.5,8.6c-2,2.1-3.4,3.9-4,5.2c-0.7,1.3-1.1,2.8-1.1,4.3V617.4z"/>
		<path class="st0" d="M362.6,621.3c-0.1-0.8-0.1-1.8-0.1-3v-7.6c0-2.5-0.3-4.6-1-6.1c-0.7-1.5-1.8-2.5-3.5-3v-0.1
			c2.9-1.2,4.4-4,4.4-8.5v-2.6c0-3.4-0.8-5.9-2.4-7.5c-1.6-1.6-4.1-2.4-7.6-2.4h-10v43h6.8v-18.4h2.3c1.5,0,2.6,0.4,3.3,1.2
			c0.6,0.8,1,2.2,1,4.1v7.9c0,1.6,0,2.7,0.1,3.3c0.1,0.6,0.3,1.3,0.5,2h6.9C362.8,622.8,362.6,622,362.6,621.3z M355.6,594.4
			c0,1.6-0.3,2.8-1,3.5c-0.7,0.7-1.7,1-3,1h-2.5v-12.3h3.1c1.2,0,2,0.3,2.6,1c0.5,0.7,0.8,1.8,0.8,3.4V594.4z"/>
	</g>
	<g>
		<path class="st1" d="M697.1,221.8c0,33.2-26.9,60-60,60c-33.2,0-60-26.9-60-60c0-33.1,26.9-60,60-60
			C670.2,161.8,697.1,188.6,697.1,221.8z"/>
		<path class="st0" d="M637.1,168.5c-29.4,0-53.3,23.8-53.3,53.2c0,29.4,23.8,53.3,53.3,53.3c29.4,0,53.3-23.8,53.3-53.3
			C690.3,192.4,666.5,168.5,637.1,168.5z M637.1,271.5c-27.4,0-49.7-22.3-49.7-49.7s22.2-49.7,49.7-49.7s49.7,22.2,49.7,49.7
			S664.5,271.5,637.1,271.5z"/>
		<polygon class="st0" points="646.9,234.5 646.9,240.6 629,240.6 629,197.6 635.8,197.6 635.8,234.5 		"/>
	</g>
	<g>
		<path class="st1" d="M759.2,221.8c0-33.1,26.9-60,60-60s60,26.9,60,60c0,33.2-26.9,60-60,60S759.2,255,759.2,221.8z"/>
		<path class="st0" d="M819.2,168.5c-29.4,0-53.3,23.8-53.3,53.2c0,29.4,23.9,53.3,53.3,53.3s53.3-23.8,53.3-53.3
			C872.5,192.4,848.6,168.5,819.2,168.5z M819.2,271.5c-27.4,0-49.7-22.3-49.7-49.7s22.2-49.7,49.7-49.7s49.7,22.2,49.7,49.7
			S846.6,271.5,819.2,271.5z"/>
		<path class="st1" d="M822.6,208.1v3.3c0,1.6-0.3,2.8-1,3.5c-0.7,0.7-1.7,1-3,1h-2.5v-12.3h3.1c1.2,0,2.1,0.3,2.6,1
			C822.3,205.5,822.6,206.6,822.6,208.1z"/>
		<path class="st0" d="M829.6,238.4c-0.1-0.8-0.1-1.8-0.1-3v-7.6c0-2.5-0.3-4.6-1-6.1c-0.7-1.5-1.8-2.5-3.5-3v-0.1
			c3-1.2,4.4-4,4.4-8.5v-2.6c0-3.4-0.8-5.9-2.4-7.5c-1.6-1.6-4.1-2.4-7.6-2.4h-10v43h6.8v-18.4h2.3c1.5,0,2.7,0.4,3.3,1.2
			c0.6,0.8,0.9,2.1,0.9,4.1v7.9c0,1.6,0.1,2.7,0.1,3.3c0.1,0.6,0.3,1.3,0.5,2h6.9C829.8,239.9,829.6,239.1,829.6,238.4z
			 M822.6,211.5c0,1.6-0.3,2.8-1,3.5c-0.7,0.7-1.7,1-3,1h-2.5v-12.3h3.1c1.2,0,2.1,0.3,2.6,1c0.6,0.7,0.8,1.8,0.8,3.4V211.5z"/>
	</g>
	<g>
		<path class="st1" d="M697.1,371.4c0,33.2-26.9,60-60,60c-33.2,0-60-26.9-60-60c0-33.2,26.9-60,60-60
			C670.2,311.4,697.1,338.3,697.1,371.4z"/>
		<path class="st0" d="M637.1,318.2c-29.4,0-53.3,23.8-53.3,53.2s23.8,53.3,53.3,53.3c29.4,0,53.3-23.9,53.3-53.3
			S666.5,318.2,637.1,318.2z M637.1,421.1c-27.4,0-49.7-22.3-49.7-49.7s22.2-49.7,49.7-49.7s49.7,22.2,49.7,49.7
			S664.5,421.1,637.1,421.1z"/>
		<path class="st0" d="M659.8,376.4v3.8c0,3.4-0.8,6.1-2.6,7.9c-1.7,1.8-4.2,2.7-7.5,2.7c-3.3,0-5.8-0.9-7.5-2.8
			c-1.7-1.8-2.5-4.5-2.5-7.9v-3.5h6.4v3.8c0,2.8,1.2,4.2,3.5,4.2c1.1,0,2-0.4,2.6-1.1c0.6-0.7,0.9-2,0.9-3.8v-3.5c0-2-0.3-3.4-1-4.2
			c-0.7-0.9-1.8-1.3-3.4-1.3h-2.3v-6.2h2.5c1.4,0,2.4-0.3,3-1c0.7-0.7,1-1.9,1-3.5V357c0-1.5-0.3-2.6-0.9-3.3c-0.6-0.7-1.4-1-2.5-1
			c-2.2,0-3.3,1.3-3.3,4v2.8h-6.4v-2.3c0-3.4,0.8-6.1,2.5-7.9c1.7-1.8,4.2-2.8,7.4-2.8c3.2,0,5.7,0.9,7.4,2.7
			c1.7,1.8,2.5,4.5,2.5,7.9v1.5c0,2.3-0.4,4.2-1.2,5.6c-0.8,1.4-2,2.4-3.6,3v0.1c1.8,0.7,3,1.7,3.8,3.2
			C659.5,372.2,659.8,374.1,659.8,376.4z"/>
		<polygon class="st0" points="632.3,384.1 632.3,390.2 614.4,390.2 614.4,347.2 621.2,347.2 621.2,384.1 		"/>
	</g>
	<g>
		<path class="st1" d="M879.2,371.4c0,33.2-26.9,60-60,60s-60-26.9-60-60c0-33.2,26.9-60,60-60S879.2,338.3,879.2,371.4z"/>
		<path class="st0" d="M819.2,318.2c-29.4,0-53.3,23.8-53.3,53.2s23.9,53.3,53.3,53.3s53.3-23.9,53.3-53.3S848.6,318.2,819.2,318.2z
			 M819.2,421.1c-27.4,0-49.7-22.3-49.7-49.7s22.2-49.7,49.7-49.7s49.7,22.2,49.7,49.7S846.6,421.1,819.2,421.1z"/>
		<path class="st1" d="M808,357.8v3.3c0,1.6-0.4,2.8-1,3.5c-0.7,0.7-1.7,1-3,1h-2.5v-12.3h3.1c1.2,0,2,0.3,2.6,1
			C807.7,355.1,808,356.2,808,357.8z"/>
		<path class="st0" d="M843.8,376.4v3.8c0,3.4-0.9,6.1-2.5,7.9c-1.7,1.8-4.2,2.7-7.5,2.7s-5.8-0.9-7.5-2.8c-1.7-1.8-2.5-4.5-2.5-7.9
			v-3.5h6.4v3.8c0,2.8,1.2,4.2,3.5,4.2c1.1,0,2-0.4,2.6-1.1c0.6-0.7,0.9-2,0.9-3.8v-3.5c0-2-0.3-3.4-1-4.2c-0.7-0.9-1.8-1.3-3.4-1.3
			h-2.3v-6.2h2.5c1.4,0,2.4-0.3,3-1c0.7-0.7,1-1.9,1-3.5V357c0-1.5-0.3-2.6-0.9-3.3c-0.6-0.7-1.4-1-2.5-1c-2.2,0-3.3,1.3-3.3,4v2.8
			h-6.4v-2.3c0-3.4,0.9-6.1,2.5-7.9c1.7-1.8,4.2-2.8,7.4-2.8c3.2,0,5.7,0.9,7.4,2.7c1.7,1.8,2.5,4.5,2.5,7.9v1.5
			c0,2.3-0.4,4.2-1.2,5.6c-0.8,1.4-2,2.4-3.6,3v0.1c1.8,0.7,3,1.7,3.8,3.2C843.4,372.2,843.8,374.1,843.8,376.4z"/>
		<path class="st0" d="M815,388c-0.1-0.8-0.1-1.8-0.1-3v-7.6c0-2.5-0.3-4.6-1-6.1c-0.7-1.5-1.8-2.5-3.5-3v-0.1
			c2.9-1.2,4.4-4,4.4-8.5v-2.6c0-3.4-0.8-5.9-2.4-7.5c-1.6-1.6-4.1-2.4-7.6-2.4h-10v43h6.8v-18.4h2.3c1.5,0,2.6,0.4,3.3,1.2
			c0.6,0.8,1,2.2,1,4.1v7.9c0,1.6,0,2.7,0.1,3.3c0.1,0.6,0.3,1.3,0.5,2h6.9C815.2,389.5,815,388.8,815,388z M808,361.1
			c0,1.6-0.4,2.8-1,3.5c-0.7,0.7-1.7,1-3,1h-2.5v-12.3h3.1c1.2,0,2,0.3,2.6,1c0.5,0.7,0.8,1.8,0.8,3.4V361.1z"/>
	</g>
	<polygon class="st1" points="1022.3,291.4 989.3,233 1055.3,233 	"/>
	<polygon class="st1" points="1051.5,353.3 993.1,386.3 993.1,320.4 	"/>
	<polygon class="st1" points="993.1,412.4 1051.5,379.4 1051.5,445.4 	"/>
	<polygon class="st1" points="1022.3,149.5 989.3,207.9 1055.3,207.9 	"/>
	<g>
		<path class="st1" d="M1304.3,197.9c0,32.3-26.2,58.5-58.4,58.5c-32.3,0-58.5-26.2-58.5-58.5c0-32.3,26.2-58.5,58.5-58.5
			C1278.2,139.5,1304.3,165.6,1304.3,197.9z"/>
		<polygon class="st0" points="1254.7,198 1283.7,227 1274.9,235.8 1245.9,206.8 1216.9,235.8 1208.2,227 1237.1,198 1208.2,169.1 
			1216.9,160.3 1245.9,189.3 1274.9,160.3 1283.7,169.1 		"/>
	</g>
	<g>
		<path class="st1" d="M1346.9,199.8c-1.1-33.8,26.5-61.4,60.3-60.3c30.6,1,55.5,25.9,56.5,56.5c1.1,33.8-26.6,61.4-60.4,60.3
			C1372.8,255.3,1347.9,230.4,1346.9,199.8z"/>
		<path class="st0" d="M1433.5,164.5h-56.4c-2.9,0-5.2,2.3-5.2,5.2v56.4c0,2.9,2.3,5.2,5.2,5.2h56.4c2.9,0,5.2-2.3,5.2-5.2v-56.4
			C1438.7,166.8,1436.4,164.5,1433.5,164.5z M1426.5,213.8c0,2.9-2.4,5.3-5.3,5.3h-31.9c-2.9,0-5.3-2.3-5.3-5.3V182
			c0-2.9,2.3-5.3,5.3-5.3h31.9c2.9,0,5.3,2.3,5.3,5.3V213.8z"/>
		<path class="st1" d="M1426.5,182v31.9c0,2.9-2.4,5.3-5.3,5.3h-31.9c-2.9,0-5.3-2.3-5.3-5.3V182c0-2.9,2.3-5.3,5.3-5.3h31.9
			C1424.2,176.7,1426.5,179.1,1426.5,182z"/>
	</g>
	<g>
		<path class="st1" d="M1304.3,356.1c1.1,33.8-26.5,61.4-60.3,60.4c-30.6-1-55.6-25.9-56.5-56.5c-1.1-33.8,26.5-61.4,60.3-60.4
			C1278.4,300.6,1303.3,325.5,1304.3,356.1z"/>
		<path class="st0" d="M1283.2,377.6l-34.9-60.5c-1-1.7-3.5-1.7-4.5,0l-34.9,60.5c-1,1.7,0.3,3.9,2.3,3.9h69.9
			C1282.9,381.5,1284.2,379.3,1283.2,377.6z M1261.6,370.4h-31.4c-1.5,0-2.4-1.6-1.7-2.9l15.7-28.1c0.8-1.3,2.7-1.3,3.4,0l15.7,28.2
			C1264.1,368.8,1263.1,370.4,1261.6,370.4z"/>
		<path class="st1" d="M1261.6,370.4h-31.4c-1.5,0-2.4-1.6-1.7-2.9l15.7-28.1c0.8-1.3,2.7-1.3,3.4,0l15.7,28.2
			C1264.1,368.8,1263.1,370.4,1261.6,370.4z"/>
	</g>
	<g>
		<path class="st1" d="M1463.8,358c0,32.3-26.2,58.5-58.4,58.5c-32.3,0-58.5-26.2-58.5-58.5c0-32.3,26.2-58.5,58.5-58.5
			C1437.6,299.6,1463.8,325.8,1463.8,358z"/>
		<path class="st0" d="M1405.3,314.1c-24.3,0-44,19.7-44,44c0,24.3,19.7,44,44,44c24.3,0,44-19.7,44-44
			C1449.3,333.7,1429.6,314.1,1405.3,314.1z M1405.3,390.2c-17.8,0-32.2-14.4-32.2-32.2c0-17.8,14.4-32.2,32.2-32.2
			c17.8,0,32.2,14.4,32.2,32.2C1437.5,375.8,1423.1,390.2,1405.3,390.2z"/>
		<path class="st1" d="M1437.5,358c0,17.8-14.4,32.2-32.2,32.2c-17.8,0-32.2-14.4-32.2-32.2c0-17.8,14.4-32.2,32.2-32.2
			C1423.1,325.9,1437.5,340.3,1437.5,358z"/>
	</g>
	<path class="st1" d="M1454.5,582.6H1426c-2.9,0-5.2-2.3-5.2-5.2v-25.9c0-2.9,2.3-5.2,5.2-5.2h28.5c1.6,0,3.1,0.7,4.1,2l10.1,12.9
		c1.5,1.9,1.5,4.5,0,6.4l-10.1,12.9C1457.7,581.8,1456.1,582.6,1454.5,582.6z"/>
	<path class="st1" d="M1500,582.6h28.5c2.9,0,5.2-2.3,5.2-5.2v-25.9c0-2.9-2.3-5.2-5.2-5.2H1500c-1.6,0-3.1,0.7-4.1,2l-10.1,12.9
		c-1.5,1.9-1.5,4.5,0,6.4l10.1,12.9C1496.9,581.8,1498.4,582.6,1500,582.6z"/>
	<path class="st1" d="M1496,541v-28.5c0-2.9-2.3-5.2-5.2-5.2h-25.9c-2.9,0-5.2,2.3-5.2,5.2V541c0,1.6,0.7,3.1,2,4.1l12.9,10.1
		c1.9,1.5,4.5,1.5,6.4,0l12.9-10.1C1495.2,544.1,1496,542.6,1496,541z"/>
	<path class="st1" d="M1496,588.9v28.5c0,2.9-2.3,5.2-5.2,5.2h-25.9c-2.9,0-5.2-2.3-5.2-5.2v-28.5c0-1.6,0.7-3.1,2-4.1l12.9-10.1
		c1.9-1.5,4.5-1.5,6.4,0l12.9,10.1C1495.2,585.8,1496,587.3,1496,588.9z"/>
	<g>
		<path class="st1" d="M1611.7,558.1h-28.5c-2.9,0-5.2-2.3-5.2-5.2V527c0-2.9,2.3-5.2,5.2-5.2h28.5c1.6,0,3.1,0.7,4.1,2l10.1,12.9
			c1.5,1.9,1.5,4.5,0,6.4l-10.1,12.9C1614.8,557.3,1613.3,558.1,1611.7,558.1z"/>
		<path class="st1" d="M1657.1,558.1h28.5c2.9,0,5.2-2.3,5.2-5.2V527c0-2.9-2.3-5.2-5.2-5.2h-28.5c-1.6,0-3.1,0.7-4.1,2l-10.1,12.9
			c-1.5,1.9-1.5,4.5,0,6.4l10.1,12.9C1654,557.3,1655.5,558.1,1657.1,558.1z"/>
		<path class="st1" d="M1647.9,482.7H1622c-2.9,0-5.2,2.3-5.2,5.2v28.5c0,1.6,0.7,3.1,2,4.1l12.9,10.1c1.9,1.5,4.5,1.5,6.4,0
			l12.9-10.1c1.3-1,2-2.5,2-4.1v-28.5C1653.1,485.1,1650.8,482.7,1647.9,482.7z M1649.9,516.5c0,0.6-0.3,1.2-0.8,1.6l-12.9,10.1
			c-0.4,0.3-0.9,0.4-1.2,0.4c-0.3,0-0.8-0.1-1.2-0.4l-12.9-10.1c-0.5-0.4-0.8-1-0.8-1.6v-28.5c0-1.1,0.9-2,2-2h25.9c1.1,0,2,0.9,2,2
			V516.5z"/>
		<path class="st0" d="M1649.9,487.9v28.5c0,0.6-0.3,1.2-0.8,1.6l-12.9,10.1c-0.4,0.3-0.9,0.4-1.2,0.4c-0.3,0-0.8-0.1-1.2-0.4
			l-12.9-10.1c-0.5-0.4-0.8-1-0.8-1.6v-28.5c0-1.1,0.9-2,2-2h25.9C1649,486,1649.9,486.8,1649.9,487.9z"/>
		<path class="st1" d="M1653.1,564.4V593c0,2.9-2.3,5.2-5.2,5.2H1622c-2.9,0-5.2-2.3-5.2-5.2v-28.5c0-1.6,0.7-3.1,2-4.1l12.9-10.1
			c1.9-1.5,4.5-1.5,6.4,0l12.9,10.1C1652.3,561.3,1653.1,562.8,1653.1,564.4z"/>
	</g>
	<g>
		<path class="st1" d="M1820,522.9h28.5c2.9,0,5.2,2.3,5.2,5.2v25.9c0,2.9-2.3,5.2-5.2,5.2H1820c-1.6,0-3.1-0.7-4.1-2l-10.1-12.9
			c-1.5-1.9-1.5-4.5,0-6.4l10.1-12.9C1816.9,523.6,1818.4,522.9,1820,522.9z"/>
		<path class="st1" d="M1774.5,522.9H1746c-2.9,0-5.2,2.3-5.2,5.2v25.9c0,2.9,2.3,5.2,5.2,5.2h28.5c1.6,0,3.1-0.7,4.1-2l10.1-12.9
			c1.5-1.9,1.5-4.5,0-6.4l-10.1-12.9C1777.7,523.6,1776.1,522.9,1774.5,522.9z"/>
		<path class="st1" d="M1812.9,560.3l-13-10.1c-1.9-1.5-4.5-1.5-6.4,0l-12.9,10.1c-1.3,1-2,2.5-2,4.1V593c0,2.9,2.3,5.2,5.2,5.2
			h25.9c2.9,0,5.2-2.3,5.2-5.2v-28.6C1814.9,562.8,1814.1,561.3,1812.9,560.3z M1811.7,593c0,1.1-0.9,2-2,2h-25.9c-1.1,0-2-0.9-2-2
			v-28.6c0-0.6,0.3-1.2,0.8-1.5l12.9-10.1c0.4-0.3,0.9-0.4,1.2-0.4c0.3,0,0.8,0.1,1.2,0.4l12.9,10.1c0.5,0.4,0.8,0.9,0.8,1.5V593z"
			/>
		<path class="st0" d="M1811.7,564.4V593c0,1.1-0.9,2-2,2h-25.9c-1.1,0-2-0.9-2-2v-28.6c0-0.6,0.3-1.2,0.8-1.5l12.9-10.1
			c0.4-0.3,0.9-0.4,1.2-0.4c0.3,0,0.8,0.1,1.2,0.4l12.9,10.1C1811.4,563.3,1811.7,563.8,1811.7,564.4z"/>
		<path class="st1" d="M1778.6,516.5v-28.5c0-2.9,2.3-5.2,5.2-5.2h25.9c2.9,0,5.2,2.3,5.2,5.2v28.5c0,1.6-0.7,3.1-2,4.1l-12.9,10.1
			c-1.9,1.5-4.5,1.5-6.4,0l-12.9-10.1C1779.3,519.6,1778.6,518.1,1778.6,516.5z"/>
	</g>
	<g>
		<path class="st1" d="M1616.8,658.5V630c0-2.9,2.3-5.2,5.2-5.2h25.9c2.9,0,5.2,2.3,5.2,5.2v28.5c0,1.6-0.7,3.1-2,4.1l-12.9,10.1
			c-1.9,1.5-4.5,1.5-6.4,0l-12.9-10.1C1617.5,661.6,1616.8,660.1,1616.8,658.5z"/>
		<path class="st1" d="M1616.8,704v28.5c0,2.9,2.3,5.2,5.2,5.2h25.9c2.9,0,5.2-2.3,5.2-5.2V704c0-1.6-0.7-3.1-2-4.1l-12.9-10.1
			c-1.9-1.5-4.5-1.5-6.4,0l-12.9,10.1C1617.5,700.9,1616.8,702.4,1616.8,704z"/>
		<path class="st1" d="M1686.9,663.6h-28.6c-1.6,0-3.1,0.7-4.1,2l-10.1,12.9c-1.5,1.9-1.5,4.5,0,6.4l10.1,12.9c1,1.3,2.5,2,4.1,2
			h28.6c2.9,0,5.2-2.3,5.2-5.2v-25.9C1692.1,666,1689.8,663.6,1686.9,663.6z M1688.9,694.7c0,1.1-0.9,2-2,2h-28.6
			c-0.6,0-1.2-0.3-1.5-0.8l-10.1-12.9c-0.3-0.5-0.4-0.9-0.4-1.2s0.1-0.8,0.4-1.2l10.1-13c0.4-0.5,0.9-0.8,1.5-0.8h28.6
			c1.1,0,2,0.9,2,2V694.7z"/>
		<path class="st0" d="M1688.9,668.8v25.9c0,1.1-0.9,2-2,2h-28.6c-0.6,0-1.2-0.3-1.5-0.8l-10.1-12.9c-0.3-0.5-0.4-0.9-0.4-1.2
			s0.1-0.8,0.4-1.2l10.1-13c0.4-0.5,0.9-0.8,1.5-0.8h28.6C1688,666.8,1688.9,667.7,1688.9,668.8z"/>
		<path class="st1" d="M1610.4,699.9h-28.5c-2.9,0-5.2-2.3-5.2-5.2v-25.9c0-2.9,2.3-5.2,5.2-5.2h28.5c1.6,0,3.1,0.7,4.1,2l10.1,12.9
			c1.5,1.9,1.5,4.5,0,6.4l-10.1,12.9C1613.5,699.2,1612,699.9,1610.4,699.9z"/>
	</g>
	<g>
		<path class="st1" d="M1814.9,704v28.5c0,2.9-2.3,5.2-5.2,5.2h-25.9c-2.9,0-5.2-2.3-5.2-5.2V704c0-1.6,0.7-3.1,2-4.1l12.9-10.1
			c1.9-1.5,4.5-1.5,6.4,0l12.9,10.1C1814.1,700.9,1814.9,702.4,1814.9,704z"/>
		<path class="st1" d="M1814.9,658.5V630c0-2.9-2.3-5.2-5.2-5.2h-25.9c-2.9,0-5.2,2.3-5.2,5.2v28.5c0,1.6,0.7,3.1,2,4.1l12.9,10.1
			c1.9,1.5,4.5,1.5,6.4,0l12.9-10.1C1814.1,661.6,1814.9,660.1,1814.9,658.5z"/>
		<path class="st1" d="M1787.5,677.5l-10.1-12.9c-1-1.3-2.5-2-4.1-2h-28.6c-2.9,0-5.2,2.3-5.2,5.2v25.9c0,2.9,2.3,5.2,5.2,5.2h28.6
			c1.6,0,3.1-0.7,4.1-2l10.1-12.9C1788.9,682,1788.9,679.4,1787.5,677.5z M1784.9,681.9l-10.1,12.9c-0.4,0.5-1,0.8-1.6,0.8h-28.6
			c-1.1,0-2-0.9-2-2v-25.9c0-1.1,0.9-2,2-2h28.6c0.6,0,1.2,0.3,1.6,0.8l10.1,12.9c0.3,0.5,0.4,0.9,0.4,1.2
			S1785.3,681.5,1784.9,681.9z"/>
		<path class="st0" d="M1785.3,680.7c0,0.3-0.1,0.8-0.4,1.2l-10.1,12.9c-0.4,0.5-1,0.8-1.6,0.8h-28.6c-1.1,0-2-0.9-2-2v-25.9
			c0-1.1,0.9-2,2-2h28.6c0.6,0,1.2,0.3,1.6,0.8l10.1,12.9C1785.3,679.9,1785.3,680.4,1785.3,680.7z"/>
		<path class="st1" d="M1821.3,662.6h28.5c2.9,0,5.2,2.3,5.2,5.2v25.9c0,2.9-2.3,5.2-5.2,5.2h-28.5c-1.6,0-3.1-0.7-4.1-2l-10.1-12.9
			c-1.5-1.9-1.5-4.5,0-6.4l10.1-12.9C1818.1,663.3,1819.7,662.6,1821.3,662.6z"/>
	</g>
	<g>
		<path class="st1" d="M822.3,615.7v27c0,4.2-3.4,7.7-7.7,7.7h-26.8v26.8c0,4.2-3.4,7.7-7.7,7.7h-27c-4.2,0-7.7-3.4-7.7-7.7v-26.8
			h-26.8c-4.2,0-7.7-3.4-7.7-7.7v-27c0-4.2,3.4-7.7,7.7-7.7h26.8v-26.8c0-4.2,3.4-7.7,7.7-7.7h27c4.2,0,7.7,3.4,7.7,7.7v26.8h26.8
			C818.9,608.1,822.3,611.5,822.3,615.7z"/>
		<path class="st0" d="M776.7,601.3h-20c-1.3,0-2-1.4-1.4-2.4l10-16.3c0.6-1,2.1-1,2.7,0l10,16.3
			C778.7,599.9,777.9,601.3,776.7,601.3z"/>
	</g>
	<g>
		<path class="st1" d="M961.7,615.7v27c0,4.2-3.4,7.7-7.7,7.7h-26.8v26.8c0,4.2-3.4,7.7-7.7,7.7h-27c-4.2,0-7.7-3.4-7.7-7.7v-26.8
			h-26.8c-4.2,0-7.7-3.4-7.7-7.7v-27c0-4.2,3.4-7.7,7.7-7.7h26.8v-26.8c0-4.2,3.4-7.7,7.7-7.7h27c4.2,0,7.7,3.4,7.7,7.7v26.8h26.8
			C958.3,608.1,961.7,611.5,961.7,615.7z"/>
		<path class="st0" d="M952.8,630.6l-16.3,10c-1.1,0.7-2.4-0.1-2.4-1.4v-20c0-1.3,1.4-2,2.4-1.4l16.3,10
			C953.8,628.5,953.8,630,952.8,630.6z"/>
	</g>
	<g>
		<path class="st1" d="M1101.2,615.7v27c0,4.2-3.4,7.7-7.7,7.7h-26.8v26.8c0,4.2-3.4,7.7-7.7,7.7h-27c-4.2,0-7.7-3.4-7.7-7.7v-26.8
			h-26.8c-4.2,0-7.7-3.4-7.7-7.7v-27c0-4.2,3.4-7.7,7.7-7.7h26.8v-26.8c0-4.2,3.4-7.7,7.7-7.7h27c4.2,0,7.7,3.4,7.7,7.7v26.8h26.8
			C1097.7,608.1,1101.2,611.5,1101.2,615.7z"/>
		<path class="st0" d="M1056.9,659.6l-10,16.3c-0.6,1-2.1,1-2.7,0l-10-16.3c-0.7-1.1,0.1-2.4,1.4-2.4h20
			C1056.8,657.2,1057.6,658.6,1056.9,659.6z"/>
	</g>
	<g>
		<path class="st1" d="M1240.6,615.7v27c0,4.2-3.4,7.7-7.7,7.7h-26.8v26.8c0,4.2-3.4,7.7-7.7,7.7h-27c-4.2,0-7.7-3.4-7.7-7.7v-26.8
			H1137c-4.2,0-7.7-3.4-7.7-7.7v-27c0-4.2,3.4-7.7,7.7-7.7h26.8v-26.8c0-4.2,3.4-7.7,7.7-7.7h27c4.2,0,7.7,3.4,7.7,7.7v26.8h26.8
			C1237.2,608.1,1240.6,611.5,1240.6,615.7z"/>
		<path class="st0" d="M1157,619.2v20c0,1.3-1.4,2-2.4,1.4l-16.3-10c-1-0.6-1-2.1,0-2.7l16.3-10C1155.6,617.2,1157,618,1157,619.2z"
			/>
	</g>
	<g>
		<polygon class="st1" points="1579.5,151 1590.9,171.2 1568.1,171.2 		"/>
		<g>
			<path class="st2" d="M1523.9,214.1v-27c0-4.2,3.4-7.7,7.7-7.7h95.9c4.2,0,7.7,3.4,7.7,7.7v27c0,4.2-3.4,7.7-7.7,7.7h-95.9
				C1527.3,221.7,1523.9,218.3,1523.9,214.1z"/>
			<path class="st2" d="M1566,144.9h27c4.2,0,7.7,3.4,7.7,7.7v95.9c0,4.2-3.4,7.7-7.7,7.7h-27c-4.2,0-7.7-3.4-7.7-7.7v-95.9
				C1558.3,148.4,1561.8,144.9,1566,144.9z"/>
		</g>
		<polygon class="st1" points="1751.8,250.1 1740.4,229.9 1763.2,229.9 		"/>
		<g>
			<path class="st2" d="M1807.4,187.1v27c0,4.2-3.4,7.7-7.7,7.7h-95.9c-4.2,0-7.7-3.4-7.7-7.7v-27c0-4.2,3.4-7.7,7.7-7.7h95.9
				C1804,179.4,1807.4,182.8,1807.4,187.1z"/>
			<path class="st2" d="M1765.3,256.2h-27c-4.2,0-7.7-3.4-7.7-7.7v-95.9c0-4.2,3.4-7.7,7.7-7.7h27c4.2,0,7.7,3.4,7.7,7.7v95.9
				C1773,252.8,1769.5,256.2,1765.3,256.2z"/>
		</g>
		<polygon class="st1" points="1623.4,323.9 1603.2,335.3 1603.2,312.5 		"/>
		<g>
			<path class="st2" d="M1560.3,268.3h27c4.2,0,7.7,3.4,7.7,7.7v95.9c0,4.2-3.4,7.7-7.7,7.7h-27c-4.2,0-7.7-3.4-7.7-7.7v-95.9
				C1552.7,271.7,1556.1,268.3,1560.3,268.3z"/>
			<path class="st2" d="M1629.5,310.4v27c0,4.2-3.4,7.7-7.7,7.7h-95.9c-4.2,0-7.7-3.4-7.7-7.7v-27c0-4.2,3.4-7.7,7.7-7.7h95.9
				C1626,302.7,1629.5,306.1,1629.5,310.4z"/>
		</g>
		<polygon class="st1" points="1704.8,323.9 1725,312.5 1725,335.3 		"/>
		<g>
			<path class="st2" d="M1767.8,379.5h-27c-4.2,0-7.7-3.4-7.7-7.7v-95.9c0-4.2,3.4-7.7,7.7-7.7h27c4.2,0,7.7,3.4,7.7,7.7v95.9
				C1775.5,376.1,1772.1,379.5,1767.8,379.5z"/>
			<path class="st2" d="M1698.7,337.4v-27c0-4.2,3.4-7.7,7.7-7.7h95.9c4.2,0,7.7,3.4,7.7,7.7v27c0,4.2-3.4,7.7-7.7,7.7h-95.9
				C1702.1,345.1,1698.7,341.6,1698.7,337.4z"/>
		</g>
	</g>
	<g>
		<path class="st1" d="M221.2,1079.2L221.2,1079.2c-12.4,0-22.5-10.1-22.5-22.5v-40.7c0-12.4,10.1-22.5,22.5-22.5h0
			c12.4,0,22.5,10.1,22.5,22.5v40.7C243.7,1069.1,233.6,1079.2,221.2,1079.2z"/>
		<text transform="matrix(1 0 0 1 186.8271 984.2788)" class="st1 st3 st4">option</text>
	</g>
	<g>
		<path class="st1" d="M342.8,1079.2L342.8,1079.2c-12.4,0-22.5-10.1-22.5-22.5v-40.7c0-12.4,10.1-22.5,22.5-22.5h0
			c12.4,0,22.5,10.1,22.5,22.5v40.7C365.3,1069.1,355.2,1079.2,342.8,1079.2z"/>
		<text transform="matrix(1 0 0 1 311.9639 984.2788)" class="st1 st3 st4">share</text>
	</g>
	<rect x="191.8" y="863.1" class="st0" width="63.8" height="11.3"/>
	<rect x="191.8" y="844.1" class="st0" width="63.8" height="11.3"/>
	<rect x="191.8" y="825.1" class="st0" width="63.8" height="11.3"/>
	<g>
		<path class="st1" d="M440.3,847.8c-1-30.7-26-55.6-56.6-56.6c-33.9-1.1-61.5,26.6-60.5,60.4c1,30.7,25.9,55.6,56.6,56.6
			C413.7,909.3,441.3,881.7,440.3,847.8z"/>
		<polygon class="st0" points="402.1,823 402.1,835.5 394.3,835.5 394.3,831.6 353.2,831.6 353.2,854.1 357.5,854.1 357.5,862.5 
			344.9,862.5 344.9,823 		"/>
		<path class="st0" d="M361.8,838.7v38.9h57.9v-38.9H361.8z M411.4,869.6h-41.3v-22.8h41.3V869.6z"/>
	</g>
	<g>
		<polygon class="st5" points="635.8,865.2 629,865.2 629,908.3 646.9,908.3 646.9,902.1 635.8,902.1 		"/>
		<path class="st1" d="M636.7,835.9c-28.9,0-52.4,23.4-52.4,52.4c0,28.9,23.4,52.3,52.4,52.3c28.9,0,52.3-23.4,52.3-52.3
			C689,859.4,665.6,835.9,636.7,835.9z M646.9,908.3H629v-43h6.8v36.9h11.1V908.3z"/>
		<polygon class="st1" points="661.8,797.8 611.6,797.8 636.7,829.8 		"/>
		<polygon class="st0" points="646.9,902.1 646.9,908.3 629,908.3 629,865.2 635.8,865.2 635.8,902.1 		"/>
	</g>
	<g>
		<polygon class="st5" points="843.3,827.1 836.6,827.1 836.6,870.2 854.5,870.2 854.5,864 843.3,864 		"/>
		<path class="st1" d="M844.6,797.8c-28.9,0-52.3,23.4-52.3,52.3c0,28.9,23.4,52.4,52.3,52.4c28.9,0,52.4-23.4,52.4-52.4
			C897,821.3,873.5,797.8,844.6,797.8z M854.5,870.2h-17.9v-43h6.8V864h11.1V870.2z"/>
		<polygon class="st1" points="819.5,940.6 869.7,940.6 844.6,908.6 		"/>
		<polygon class="st0" points="854.5,864 854.5,870.2 836.6,870.2 836.6,827.1 843.3,827.1 843.3,864 		"/>
	</g>
	<g>
		<polygon class="st5" points="1072.5,842.6 1065.8,842.6 1065.8,885.6 1083.7,885.6 1083.7,879.4 1072.5,879.4 		"/>
		<path class="st1" d="M1073.8,813.3c-28.9,0-52.4,23.4-52.4,52.3c0,28.9,23.4,52.4,52.4,52.4c28.9,0,52.3-23.4,52.3-52.4
			C1126.2,836.7,1102.7,813.3,1073.8,813.3z M1083.7,885.6h-17.9v-43h6.8v36.9h11.1V885.6z"/>
		<polygon class="st1" points="983.4,890.7 1015.4,865.6 983.4,840.5 		"/>
		<polygon class="st0" points="1083.7,879.4 1083.7,885.6 1065.8,885.6 1065.8,842.6 1072.5,842.6 1072.5,879.4 		"/>
	</g>
	<g>
		<polygon class="st5" points="1231.5,842.6 1224.7,842.6 1224.7,885.6 1242.6,885.6 1242.6,879.4 1231.5,879.4 		"/>
		<path class="st1" d="M1232.8,813.3c-28.9,0-52.3,23.4-52.3,52.3c0,28.9,23.4,52.4,52.3,52.4c28.9,0,52.4-23.4,52.4-52.4
			C1285.1,836.7,1261.7,813.3,1232.8,813.3z M1242.6,885.6h-17.9v-43h6.8v36.9h11.1V885.6z"/>
		<polygon class="st1" points="1291.2,865.6 1323.2,890.7 1323.2,840.5 		"/>
		<polygon class="st0" points="1242.6,879.4 1242.6,885.6 1224.7,885.6 1224.7,842.6 1231.5,842.6 1231.5,879.4 		"/>
	</g>
	<g>
		<path class="st1" d="M636.7,1066.3c-28.9,0-52.4,23.4-52.4,52.3c0,28.9,23.4,52.4,52.4,52.4c28.9,0,52.3-23.4,52.3-52.4
			C689,1089.8,665.6,1066.3,636.7,1066.3z"/>
		<polygon class="st1" points="661.8,1028.2 611.6,1028.2 636.7,1060.2 		"/>
		<path class="st0" d="M647.4,1136.4c-0.1-0.8-0.1-1.8-0.1-3v-7.6c0-2.5-0.3-4.6-1-6.1c-0.7-1.5-1.8-2.5-3.5-3v-0.1
			c3-1.2,4.4-4,4.4-8.5v-2.6c0-3.4-0.8-5.8-2.4-7.5c-1.6-1.6-4.1-2.4-7.6-2.4h-10v43h6.8v-18.4h2.3c1.5,0,2.7,0.4,3.3,1.2
			c0.6,0.8,1,2.2,1,4.1v7.9c0,1.6,0,2.7,0.1,3.3c0.1,0.6,0.3,1.3,0.5,2h6.9C647.7,1137.9,647.5,1137.2,647.4,1136.4z M640.5,1109.5
			c0,1.6-0.3,2.8-1,3.5c-0.7,0.7-1.7,1-3,1H634v-12.3h3.1c1.2,0,2.1,0.3,2.6,1c0.5,0.7,0.8,1.8,0.8,3.4V1109.5z"/>
	</g>
	<g>
		<path class="st1" d="M844.6,1028.2c-28.9,0-52.3,23.4-52.3,52.3s23.4,52.3,52.3,52.3c28.9,0,52.4-23.4,52.4-52.3
			S873.5,1028.2,844.6,1028.2z"/>
		<polygon class="st1" points="819.5,1171 869.7,1171 844.6,1139 		"/>
		<path class="st0" d="M855,1098.3c-0.1-0.8-0.1-1.8-0.1-3v-7.6c0-2.5-0.3-4.6-1-6.1c-0.7-1.5-1.8-2.5-3.5-3v-0.1
			c3-1.2,4.4-4,4.4-8.5v-2.6c0-3.4-0.8-5.9-2.4-7.5c-1.6-1.6-4.1-2.4-7.6-2.4h-10v43h6.8v-18.4h2.3c1.6,0,2.7,0.4,3.3,1.2
			c0.6,0.8,1,2.1,1,4.1v7.9c0,1.6,0,2.7,0.1,3.3c0.1,0.6,0.2,1.3,0.5,2h6.9C855.3,1099.8,855.1,1099.1,855,1098.3z M848,1071.4
			c0,1.6-0.3,2.8-1,3.5c-0.7,0.7-1.7,1.1-3,1.1h-2.5v-12.3h3.1c1.2,0,2.1,0.4,2.6,1c0.6,0.7,0.8,1.8,0.8,3.4V1071.4z"/>
	</g>
	<g>
		
			<ellipse transform="matrix(0.7071 -0.7071 0.7071 0.7071 -460.4773 1080.3093)" class="st1" cx="1073.8" cy="1096" rx="52.4" ry="52.3"/>
		<polygon class="st1" points="983.4,1121.1 1015.4,1096 983.4,1070.9 		"/>
		<path class="st0" d="M1081.9,1113.7c-0.1-0.8-0.1-1.8-0.1-3v-7.6c0-2.5-0.3-4.6-1-6.1c-0.7-1.5-1.8-2.5-3.5-3v-0.1
			c2.9-1.2,4.4-4,4.4-8.5v-2.6c0-3.4-0.8-5.9-2.4-7.5c-1.6-1.6-4.1-2.4-7.6-2.4h-10v43h6.8v-18.4h2.3c1.6,0,2.6,0.4,3.3,1.2
			c0.6,0.8,0.9,2.2,0.9,4.1v7.9c0,1.6,0,2.7,0.1,3.3s0.3,1.3,0.5,2h6.9C1082.1,1115.2,1081.9,1114.5,1081.9,1113.7z M1074.9,1086.8
			c0,1.6-0.3,2.8-1,3.5c-0.7,0.7-1.7,1-3.1,1h-2.4v-12.3h3.1c1.2,0,2.1,0.3,2.6,1c0.6,0.7,0.8,1.8,0.8,3.4V1086.8z"/>
	</g>
	<g>
		<path class="st1" d="M1232.8,1043.6c-28.9,0-52.3,23.4-52.3,52.4c0,28.9,23.4,52.3,52.3,52.3c28.9,0,52.4-23.4,52.4-52.3
			C1285.1,1067.1,1261.7,1043.6,1232.8,1043.6z"/>
		<polygon class="st1" points="1291.2,1096 1323.2,1121.1 1323.2,1070.9 		"/>
		<path class="st0" d="M1243.1,1116.4c-0.1-0.8-0.1-1.8-0.1-3v-7.6c0-2.5-0.3-4.6-1-6.1c-0.7-1.5-1.8-2.5-3.5-3v-0.1
			c2.9-1.2,4.4-4,4.4-8.5v-2.6c0-3.4-0.8-5.9-2.4-7.5c-1.6-1.6-4.1-2.4-7.6-2.4h-10v43h6.8v-18.4h2.3c1.6,0,2.7,0.4,3.3,1.2
			c0.6,0.8,1,2.2,1,4.1v7.9c0,1.6,0,2.7,0.1,3.3c0.1,0.6,0.3,1.3,0.5,2h6.9C1243.4,1117.9,1243.2,1117.2,1243.1,1116.4z
			 M1236.2,1089.5c0,1.6-0.3,2.8-1,3.5c-0.7,0.7-1.7,1-3,1h-2.5v-12.3h3.1c1.2,0,2.1,0.4,2.6,1.1c0.5,0.7,0.8,1.8,0.8,3.4V1089.5z"
			/>
	</g>
	<g>
		<path class="st1" d="M1625.1,813.3c-32.3,0-58.5,26.2-58.5,58.4c0,32.3,26.2,58.5,58.5,58.5c32.3,0,58.5-26.2,58.5-58.5
			C1683.5,839.4,1657.3,813.3,1625.1,813.3z"/>
		<polygon class="st1" points="1628.7,881.1 1620.8,881.1 1624.6,853.6 1624.8,853.6 		"/>
		<path class="st0" d="M1631,843.9h-11.8l-9.1,55.7h8.1l1.6-10.9h9.9v-0.2l1.6,11.1h8.8L1631,843.9z M1620.8,881.1l3.8-27.5h0.2
			l3.9,27.5H1620.8z"/>
	</g>
	<g>
		<ellipse class="st1" cx="1784.5" cy="871.7" rx="58.5" ry="58.4"/>
		<path class="st1" d="M1788.4,857.6v3.1c0,2.1-0.4,3.6-1.3,4.5c-0.9,0.9-2.2,1.4-3.9,1.4h-3.4v-14.7h4.2c1.5,0,2.7,0.5,3.4,1.3
			C1788,854.1,1788.4,855.5,1788.4,857.6z"/>
		<path class="st1" d="M1789.3,881.3v4.8c0,2-0.4,3.4-1.1,4.3s-1.9,1.2-3.4,1.2h-5v-17.1h3.9c2,0,3.5,0.5,4.3,1.5
			C1788.8,876.9,1789.3,878.7,1789.3,881.3z"/>
		<path class="st0" d="M1791.5,869.9v-0.1c1.9-0.8,3.3-2.1,4.3-3.9c0.9-1.8,1.4-4.1,1.4-7v-2.2c0-4.3-1-7.6-3.1-9.7
			c-2.1-2.1-5.4-3.2-9.9-3.2H1771v55.7h13.8c4.4,0,7.7-1.1,9.9-3.4s3.4-5.5,3.4-9.8v-4.8C1798,875.3,1795.8,871.4,1791.5,869.9z
			 M1779.7,851.8h4.2c1.5,0,2.7,0.5,3.4,1.3c0.7,0.9,1.1,2.4,1.1,4.4v3.1c0,2.1-0.4,3.6-1.3,4.5c-0.9,0.9-2.2,1.4-3.9,1.4h-3.4
			V851.8z M1789.3,886.1c0,2-0.4,3.4-1.1,4.3s-1.9,1.2-3.4,1.2h-5v-17.1h3.9c2,0,3.5,0.5,4.3,1.5c0.9,1,1.3,2.7,1.3,5.3V886.1z"/>
	</g>
	<g>
		<path class="st1" d="M1625.1,973.4c-32.3,0-58.5,26.2-58.5,58.5c0,32.3,26.2,58.5,58.5,58.5c32.3,0,58.4-26.2,58.4-58.5
			C1683.5,999.5,1657.3,973.4,1625.1,973.4z"/>
		<polygon class="st0" points="1640,1004 1629.4,1036 1629.4,1059.7 1620.7,1059.7 1620.7,1036 1610.1,1004 1619.4,1004 
			1625.4,1024.4 1625.5,1024.4 1631.5,1004 		"/>
	</g>
	<g>
		<circle class="st1" cx="1784.5" cy="1031.8" r="58.5"/>
		<polygon class="st0" points="1799.8,1059.7 1790.5,1059.7 1784.2,1040.3 1784,1040.3 1777.5,1059.7 1769.2,1059.7 1779.3,1031.2 
			1769.7,1004 1778.9,1004 1784.8,1022 1784.9,1022 1791,1004 1799.3,1004 1789.7,1031.2 		"/>
	</g>
</g>
</svg>
