<?xml version="1.0" encoding="utf-8"?>
<!-- Generator: Adobe Illustrator 22.1.0, SVG Export Plug-In . SVG Version: 6.00 Build 0)  -->
<svg version="1.1" xmlns="http://www.w3.org/2000/svg" xmlns:xlink="http://www.w3.org/1999/xlink" x="0px" y="0px"
	 viewBox="0 0 2000 2000" style="enable-background:new 0 0 2000 2000;" xml:space="preserve">
<style type="text/css">
	.st0{fill:#1B2638;}
	.st1{fill:#FFFFFF;}
</style>
<g id="Layer_2">
	<rect x="-0.5" y="-0.5" class="st0" width="2000" height="2000"/>
</g>
<g id="Layer_1">
	<path class="st1" d="M406.9,236.3H220.3c-11.2,0-20.3,9.1-20.3,20.3v186.6c0,11.2,9.1,20.3,20.3,20.3h186.6
		c11.2,0,20.3-9.1,20.3-20.3V256.6C427.2,245.4,418.1,236.3,406.9,236.3z M339.3,305.4c0-4,3.2-7.2,7.2-7.2h19c4,0,7.2,3.2,7.2,7.2
		v19c0,4-3.2,7.2-7.2,7.2h-19c-4,0-7.2-3.2-7.2-7.2V305.4z M258.1,305.4c0-4,3.2-7.2,7.2-7.2h19c4,0,7.2,3.2,7.2,7.2v19
		c0,4-3.2,7.2-7.2,7.2h-19c-4,0-7.2-3.2-7.2-7.2V305.4z M314.5,428.6c-30.3,0-55.5-14.7-61-34h14.7c6,10.8,23.4,20.4,46.3,20.4
		c22.9,0,40.2-9.6,46.2-20.4h14.7C369.9,413.9,344.7,428.6,314.5,428.6z"/>
	<path class="st1" d="M750.1,236.3H563.5c-11.2,0-20.3,9.1-20.3,20.3v186.6c0,11.2,9.1,20.3,20.3,20.3h186.7
		c11.2,0,20.3-9.1,20.3-20.3V256.6C770.4,245.4,761.3,236.3,750.1,236.3z M682.5,305.4c0-4,3.2-7.2,7.2-7.2h19c4,0,7.2,3.2,7.2,7.2
		v19c0,4-3.2,7.2-7.2,7.2h-19c-4,0-7.2-3.2-7.2-7.2V305.4z M601.4,305.4c0-4,3.2-7.2,7.2-7.2h19c4,0,7.2,3.2,7.2,7.2v19
		c0,4-3.2,7.2-7.2,7.2h-19c-4,0-7.2-3.2-7.2-7.2V305.4z M703.1,415.3c-6-10.8-23.3-20.4-46.2-20.4c-22.9,0-40.3,9.6-46.3,20.4h-14.7
		c5.5-19.4,30.7-34,61-34c30.2,0,55.4,14.7,60.9,34H703.1z"/>
	<path class="st1" d="M1093.3,236.3H906.7c-11.2,0-20.3,9.1-20.3,20.3v186.6c0,11.2,9.1,20.3,20.3,20.3h186.6
		c11.2,0,20.3-9.1,20.3-20.3V256.6C1113.6,245.4,1104.5,236.3,1093.3,236.3z M928.7,296.6c2.8-9.7,15.4-17,30.5-17
		c15.1,0,27.7,7.3,30.5,17h-7.4c-3-5.4-11.7-10.2-23.1-10.2c-11.5,0-20.1,4.8-23.1,10.2H928.7z M978,312v30.6c0,4-3.2,7.2-7.2,7.2
		h-19c-4,0-7.2-3.2-7.2-7.2V312c0-4,3.2-7.2,7.2-7.2h19C974.8,304.8,978,308,978,312z M1044.5,415.3c-6-10.8-23.3-20.4-46.2-20.4
		c-22.9,0-40.3,9.6-46.3,20.4h-14.7c5.5-19.4,30.7-34,61-34c30.2,0,55.4,14.7,60.9,34H1044.5z M1059.2,342.7c0,4-3.2,7.2-7.2,7.2
		h-19c-4,0-7.2-3.2-7.2-7.2V312c0-4,3.2-7.2,7.2-7.2h19c4,0,7.2,3.2,7.2,7.2V342.7z M1065.5,296.6c-3-5.4-11.7-10.2-23.1-10.2
		s-20.1,4.8-23.1,10.2h-7.4c2.8-9.7,15.4-17,30.5-17c15.1,0,27.7,7.3,30.5,17H1065.5z"/>
	<path class="st1" d="M1436.5,236.3h-186.6c-11.2,0-20.3,9.1-20.3,20.3v186.6c0,11.2,9.1,20.3,20.3,20.3h186.6
		c11.2,0,20.3-9.1,20.3-20.3V256.6C1456.8,245.4,1447.7,236.3,1436.5,236.3z M1287.7,331.6v-26.2c0-4,3.2-7.2,7.2-7.2h19
		c4,0,7.2,3.2,7.2,7.2v26.2c0,4-3.2,7.2-7.2,7.2h-19C1291,338.9,1287.7,335.6,1287.7,331.6z M1385.6,417.9c0,10-8.1,18.1-18.1,18.1
		h-44.8c-10,0-18.1-8.1-18.1-18.1v-26c0-10,8.1-18.1,18.1-18.1h44.8c10,0,18.1,8.1,18.1,18.1V417.9z M1402.3,331.6
		c0,4-3.2,7.2-7.2,7.2h-19c-4,0-7.2-3.2-7.2-7.2v-26.2c0-4,3.2-7.2,7.2-7.2h19c4,0,7.2,3.2,7.2,7.2V331.6z"/>
	<path class="st1" d="M1779.7,236.3h-186.7c-11.2,0-20.3,9.1-20.3,20.3v186.6c0,11.2,9.1,20.3,20.3,20.3h186.7
		c11.2,0,20.3-9.1,20.3-20.3V256.6C1800,245.4,1790.9,236.3,1779.7,236.3z M1664.4,324.4c0,4-3.2,7.2-7.2,7.2h-19
		c-4,0-7.2-3.2-7.2-7.2v-19c0-4,3.2-7.2,7.2-7.2h19c4,0,7.2,3.2,7.2,7.2V324.4z M1745.5,324.4c0,4-3.2,7.2-7.2,7.2h-19
		c-4,0-7.2-3.2-7.2-7.2v-19c0-4,3.2-7.2,7.2-7.2h19c4,0,7.2,3.2,7.2,7.2V324.4z"/>
	<path class="st1" d="M406.9,561.4H220.3c-11.2,0-20.3,9.1-20.3,20.3v186.6c0,11.2,9.1,20.3,20.3,20.3h186.6
		c11.2,0,20.3-9.1,20.3-20.3V581.6C427.2,570.4,418.1,561.4,406.9,561.4z M343.8,627.4c0-5,4.1-9.1,9.1-9.1h15.4c5,0,9,4.1,9,9.1
		v34.2c0,5-4.1,9.1-9,9.1h-15.4c-5,0-9.1-4.1-9.1-9.1V627.4z M251.9,627.4c0-5,4.1-9.1,9.1-9.1h15.4c5,0,9,4.1,9,9.1v34.2
		c0,5-4.1,9.1-9,9.1H261c-5,0-9.1-4.1-9.1-9.1V627.4z M315.1,756.8c-31.1,0-57.3-20.5-65-48.2h130
		C372.5,736.3,346.3,756.8,315.1,756.8z"/>
	<path class="st1" d="M750.1,561.4H563.5c-11.2,0-20.3,9.1-20.3,20.3v186.6c0,11.2,9.1,20.3,20.3,20.3h186.7
		c11.2,0,20.3-9.1,20.3-20.3V581.6C770.4,570.4,761.3,561.4,750.1,561.4z M587,630.9l3-3c4.3-4.3,11.3-4.3,15.6,0l2.6,2.6
		c0.7,0.7,1.8,0.7,2.5,0l2.6-2.6c4.3-4.3,11.3-4.3,15.6,0l3,3c4.3,4.3,4.3,11.3,0,15.6l-21.2,21.2c-0.7,0.7-1.8,0.7-2.5,0L587,646.4
		C582.7,642.1,582.7,635.1,587,630.9z M656.8,749.7c-30.3,0-55.5-14.7-61-34h14.7c6,10.8,23.4,20.4,46.3,20.4
		c22.9,0,40.2-9.6,46.2-20.4h14.7C712.3,735,687.1,749.7,656.8,749.7z M727.6,646.4l-21.2,21.2c-0.7,0.7-1.8,0.7-2.5,0l-21.2-21.2
		c-4.3-4.3-4.3-11.3,0-15.6l3-3c4.3-4.3,11.3-4.3,15.6,0l2.6,2.6c0.7,0.7,1.8,0.7,2.5,0l2.6-2.6c4.3-4.3,11.3-4.3,15.6,0l3,3
		C731.9,635.1,732,642.1,727.6,646.4z"/>
	<path class="st1" d="M1093.3,561.4H906.7c-11.2,0-20.3,9.1-20.3,20.3v186.6c0,11.2,9.1,20.3,20.3,20.3h186.6
		c11.2,0,20.3-9.1,20.3-20.3V581.6C1113.6,570.4,1104.5,561.4,1093.3,561.4z M1025.7,630.4c0-4,3.2-7.2,7.2-7.2h19
		c4,0,7.2,3.2,7.2,7.2v19c0,4-3.2,7.2-7.2,7.2h-19c-4,0-7.2-3.2-7.2-7.2V630.4z M944.6,630.4c0-4,3.2-7.2,7.2-7.2h19
		c4,0,7.2,3.2,7.2,7.2v19c0,4-3.2,7.2-7.2,7.2h-19c-4,0-7.2-3.2-7.2-7.2V630.4z M1055.4,736c0,0-3-6.2-8.1-6.2
		c-4.3,0-5.5,1.3-7.8,3.7c-2.8,3-6.6,7-15.5,7c-8.7,0-12.5-3.9-15.3-6.8c-2.3-2.4-3.7-3.9-8.7-3.9c-4.9,0-6.2,1.4-8.5,3.8
		c-2.7,2.9-6.4,6.8-15.2,6.8c-9.1,0-12.7-4.2-15.4-7.2c-2-2.3-2.9-3.4-6.6-3.4c-7.6,0-9.2,5.5-9.5,6.6l-10-2.1
		c1-5.1,6.4-14.7,19.5-14.7c8.4,0,11.8,4,14.3,6.9c2.1,2.4,3.2,3.7,7.6,3.7c4.4,0,5.6-1.3,7.8-3.6c2.8-3,6.6-7,15.9-7
		c9.3,0,13.2,4.1,16,7c2.3,2.4,3.5,3.7,7.9,3.7c4.5,0,5.8-1.4,8.1-3.8c2.8-2.9,6.5-6.9,15.2-6.9c9.3,0,15.3,7.6,17.4,12L1055.4,736z
		"/>
	<path class="st1" d="M1436.5,561.4h-186.6c-11.2,0-20.3,9.1-20.3,20.3v186.6c0,11.2,9.1,20.3,20.3,20.3h186.6
		c11.2,0,20.3-9.1,20.3-20.3V581.6C1456.8,570.4,1447.7,561.4,1436.5,561.4z M1396.9,614.5l7.2,7.2l-24.7,24.7l24.2,18l-6.1,8.2
		l-33.7-25.1L1396.9,614.5z M1289.5,614.5l33.1,33.1l-33.7,25.1l-6.1-8.2l24.2-18l-24.7-24.7L1289.5,614.5z M1343.2,754.7
		c-30.2,0-55.5-14.7-61-34h14.7c6,10.8,23.3,20.4,46.3,20.4c22.9,0,40.3-9.6,46.2-20.4h14.7C1398.7,740,1373.5,754.7,1343.2,754.7z"
		/>
	<path class="st1" d="M1779.7,561.4h-186.7c-11.2,0-20.3,9.1-20.3,20.3v186.6c0,11.2,9.1,20.3,20.3,20.3h186.7
		c11.2,0,20.3-9.1,20.3-20.3V581.6C1800,570.4,1790.9,561.4,1779.7,561.4z M1623.9,625.1c0.2-0.6,0.5-1.1,0.8-1.7l49.3,28.7
		c-7,9.8-21.2,13.3-33.9,7.8C1625.6,653.7,1618.3,638.1,1623.9,625.1z M1686.4,756.8c-31.1,0-57.3-20.5-65-48.2h28.5l5.7,21.5
		l6.5-21.5h50.2l5.7,21.5l6.5-21.5h26.9C1743.7,736.3,1717.6,756.8,1686.4,756.8z M1736.1,660c-12.7,5.5-26.9,1.9-33.9-7.8
		l49.3-28.7c0.3,0.5,0.5,1.1,0.8,1.7C1757.9,638.1,1750.6,653.7,1736.1,660z"/>
	<path class="st1" d="M406.9,886.4H220.3c-11.2,0-20.3,9.1-20.3,20.3v186.6c0,11.2,9.1,20.3,20.3,20.3h186.6
		c11.2,0,20.3-9.1,20.3-20.3V906.7C427.2,895.5,418.1,886.4,406.9,886.4z M258.1,974.5v-19c0-4,3.2-7.2,7.2-7.2h19
		c4,0,7.2,3.2,7.2,7.2v19c0,4-3.2,7.2-7.2,7.2h-19C261.4,981.7,258.1,978.5,258.1,974.5z M356,1058.6c0,2.4-1.9,4.3-4.3,4.3h-72.5
		c-2.4,0-4.3-1.9-4.3-4.3v-5c0-2.4,1.9-4.3,4.3-4.3h72.5c2.4,0,4.3,1.9,4.3,4.3V1058.6z M372.7,974.5c0,4-3.2,7.2-7.2,7.2h-19
		c-4,0-7.2-3.2-7.2-7.2v-19c0-4,3.2-7.2,7.2-7.2h19c4,0,7.2,3.2,7.2,7.2V974.5z"/>
	<path class="st1" d="M750.1,886.4H563.5c-11.2,0-20.3,9.1-20.3,20.3v186.6c0,11.2,9.1,20.3,20.3,20.3h186.7
		c11.2,0,20.3-9.1,20.3-20.3V906.7C770.4,895.5,761.3,886.4,750.1,886.4z M605.2,969.4c1.1,5.6,6,9.8,11.8,9.8
		c5.9,0,10.8-4.2,11.8-9.8h9.3c-1.2,10.6-10.1,18.9-21.1,18.9c-10.9,0-19.9-8.3-21.1-18.9H605.2z M656.8,1066.3
		c-30.3,0-55.5-14.7-61-34h14.7c6,10.8,23.4,20.4,46.3,20.4c22.9,0,40.2-9.6,46.2-20.4h14.7C712.3,1051.6,687.1,1066.3,656.8,1066.3
		z M698.4,988.3c-10.9,0-19.9-8.3-21.1-18.9h9.3c1.1,5.6,6,9.8,11.8,9.8c5.9,0,10.8-4.2,11.8-9.8h9.3
		C718.3,980,709.3,988.3,698.4,988.3z"/>
	<path class="st1" d="M1093.3,886.4H906.7c-11.2,0-20.3,9.1-20.3,20.3v186.6c0,11.2,9.1,20.3,20.3,20.3h186.6
		c11.2,0,20.3-9.1,20.3-20.3V906.7C1113.6,895.5,1104.5,886.4,1093.3,886.4z M930.8,924v-3.3c0-1.9,1.6-3.5,3.5-3.5h54
		c1.9,0,3.5,1.6,3.5,3.5v3.3c0,1.9-1.5,3.4-3.4,3.4h-54C932.4,927.5,930.8,926,930.8,924z M944.6,984.7v-19c0-4,3.2-7.2,7.2-7.2h19
		c4,0,7.2,3.2,7.2,7.2v19c0,4-3.2,7.2-7.2,7.2h-19C947.8,991.9,944.6,988.7,944.6,984.7z M1040.6,1058.6c0,2.4-1.9,4.3-4.3,4.3
		h-72.5c-2.4,0-4.3-1.9-4.3-4.3v-5c0-2.4,1.9-4.3,4.3-4.3h72.5c2.4,0,4.3,1.9,4.3,4.3V1058.6z M1059.2,984.7c0,4-3.2,7.2-7.2,7.2
		h-19c-4,0-7.2-3.2-7.2-7.2v-19c0-4,3.2-7.2,7.2-7.2h19c4,0,7.2,3.2,7.2,7.2V984.7z M1072.9,944.9c0,1.9-1.6,3.5-3.5,3.5h-54
		c-1.9,0-3.5-1.6-3.5-3.5v-3.3c0-1.9,1.6-3.5,3.5-3.5h54c1.9,0,3.5,1.6,3.5,3.5V944.9z"/>
	<path class="st1" d="M1436.5,886.4h-186.6c-11.2,0-20.3,9.1-20.3,20.3v186.6c0,11.2,9.1,20.3,20.3,20.3h186.6
		c11.2,0,20.3-9.1,20.3-20.3V906.7C1456.8,895.5,1447.7,886.4,1436.5,886.4z M1368.9,955.5c0-4,3.2-7.2,7.2-7.2h19
		c4,0,7.2,3.2,7.2,7.2v19c0,4-3.2,7.2-7.2,7.2h-19c-4,0-7.2-3.2-7.2-7.2V955.5z M1287.7,955.5c0-4,3.2-7.2,7.2-7.2h19
		c4,0,7.2,3.2,7.2,7.2v19c0,4-3.2,7.2-7.2,7.2h-19c-4,0-7.2-3.2-7.2-7.2V955.5z M1343.2,1058.4c-7.7,0-15.1-1-22-2.7l-12.8,22.3
		c-2.2,3.9-7.2,5.2-11.1,3l-13.4-7.8c-3.8-2.2-5.2-7.2-3-11l12.1-21c-5.3-4.9-9.1-10.6-10.9-16.8h14.7c6,10.8,23.3,20.4,46.3,20.4
		c22.9,0,40.3-9.6,46.2-20.4h14.7C1398.7,1043.7,1373.5,1058.4,1343.2,1058.4z"/>
	<path class="st1" d="M1779.7,886.4h-186.7c-11.2,0-20.3,9.1-20.3,20.3v186.6c0,11.2,9.1,20.3,20.3,20.3h186.7
		c11.2,0,20.3-9.1,20.3-20.3V906.7C1800,895.5,1790.9,886.4,1779.7,886.4z M1631,974.5v-19c0-4,3.2-7.2,7.2-7.2h19
		c4,0,7.2,3.2,7.2,7.2v19c0,4-3.2,7.2-7.2,7.2h-19C1634.2,981.7,1631,978.5,1631,974.5z M1716.8,1066.4l-9.2,9.2l-20.6-20.6
		l-20.7,20.6l-9.2-9.2l20.7-20.6l-20.7-20.7l9.2-9.2l20.7,20.7l20.6-20.7l9.2,9.2l-20.6,20.7L1716.8,1066.4z M1745.5,974.5
		c0,4-3.2,7.2-7.2,7.2h-19c-4,0-7.2-3.2-7.2-7.2v-19c0-4,3.2-7.2,7.2-7.2h19c4,0,7.2,3.2,7.2,7.2V974.5z"/>
	<path class="st1" d="M406.9,1211.5H220.3c-11.2,0-20.3,9.1-20.3,20.3v186.6c0,11.2,9.1,20.3,20.3,20.3h186.6
		c11.2,0,20.3-9.1,20.3-20.3v-186.6C427.2,1220.5,418.1,1211.5,406.9,1211.5z M291.6,1299.5c0,4-3.2,7.2-7.2,7.2h-19
		c-4,0-7.2-3.2-7.2-7.2v-19c0-4,3.2-7.2,7.2-7.2h19c4,0,7.2,3.2,7.2,7.2V1299.5z M327.2,1383.6c-2.8,2.1-6.5,2.7-9.9,2.7
		c-3.5,0-6.8-0.7-8.9-1.2c-1.1-0.3-1.7-1.4-1.3-2.4l1-2.9c0.3-1,1.3-1.5,2.3-1.3c3.5,0.9,9.8,1.8,12.8-0.4c0.5-0.4,2-1.5,2-5.2
		c-0.1-3.4-1.4-4.2-1.8-4.5c-1.5-0.9-3.9-0.9-6.5-0.4c-3,1.4-5.9,2.2-7.8,2.7c-1,0.2-1.9-0.3-2.2-1.3l-1.1-3.1c-0.3-1,0.1-2,1.1-2.3
		c1.7-0.7,4.6-1.8,7.9-2.5c2.3-1.2,4.2-2.6,4.8-4.2c0.2-0.4,0.7-1.8-1.3-4.5c-2.5-3.3-4.5-3.3-5.1-3.3c-3.3,0.1-6.8,3.7-8.7,6
		c-0.6,0.8-1.7,0.9-2.5,0.4l-2.5-1.7c-0.9-0.6-1.1-1.9-0.4-2.8c2.3-2.9,7.5-8.5,14-8.7c2.8-0.1,7,0.9,10.8,6
		c3.5,4.7,3.2,8.6,2.2,11.1c-0.3,0.7-0.6,1.3-1,1.9c0.7,0.3,1.4,0.6,2,1c2.2,1.4,4.9,4.3,5,10.1C332,1378.8,329.4,1382,327.2,1383.6
		z M372.7,1299.5c0,4-3.2,7.2-7.2,7.2h-19c-4,0-7.2-3.2-7.2-7.2v-19c0-4,3.2-7.2,7.2-7.2h19c4,0,7.2,3.2,7.2,7.2V1299.5z"/>
	<path class="st1" d="M750.1,1211.5H563.5c-11.2,0-20.3,9.1-20.3,20.3v186.6c0,11.2,9.1,20.3,20.3,20.3h186.7
		c11.2,0,20.3-9.1,20.3-20.3v-186.6C770.4,1220.5,761.3,1211.5,750.1,1211.5z M591.4,1261.2l50.7,28.5l-4.7,9.1l-50.7-28.5
		L591.4,1261.2z M594.8,1326.5V1314c0-4,3.2-7.2,7.2-7.2h19c4,0,7.2,3.2,7.2,7.2v12.5c0,4-3.2,7.2-7.2,7.2h-19
		C598.1,1333.7,594.8,1330.5,594.8,1326.5z M696.9,1399.7c-5.2-9.4-20.3-17.7-40.1-17.7c-19.9,0-34.9,8.3-40.2,17.7h-12.8
		c4.8-16.8,26.7-29.5,52.9-29.5c26.2,0,48.1,12.7,52.9,29.5H696.9z M718.8,1326.5c0,4-3.2,7.2-7.2,7.2h-19c-4,0-7.2-3.2-7.2-7.2
		V1314c0-4,3.2-7.2,7.2-7.2h19c4,0,7.2,3.2,7.2,7.2V1326.5z M679.2,1298.1l-4.7-9.1l50.3-28l4.7,9.1L679.2,1298.1z"/>
	<path class="st1" d="M1093.3,1211.5H906.7c-11.2,0-20.3,9.1-20.3,20.3v186.6c0,11.2,9.1,20.3,20.3,20.3h186.6
		c11.2,0,20.3-9.1,20.3-20.3v-186.6C1113.6,1220.5,1104.5,1211.5,1093.3,1211.5z M944.6,1299.5v-19c0-4,3.2-7.2,7.2-7.2h19
		c4,0,7.2,3.2,7.2,7.2v19c0,4-3.2,7.2-7.2,7.2h-19C947.8,1306.8,944.6,1303.5,944.6,1299.5z M1049.7,1384.1c1.6,0.3,2.7,1.7,2.7,3.3
		c0,0,0,3.1,0,5.2c0,1.1-1,1.9-2,1.8c-3.2-0.3-9.4-1.7-14.4-6.6c-3.2-3.1-5.3-7.1-6.3-11.9h-56.8c-0.8,5.8-3.1,10.6-6.8,14.2
		c-4.9,4.9-10.9,6.2-14.2,6.6c-1.2,0.1-2.2-0.8-2.2-2c0-2.1,0-5,0-5c0-1.6,1.1-3,2.7-3.3c4-0.9,10.6-4,10.6-15.6
		c0-5.3-1.3-9.3-4-11.7c-2-1.9-4.5-2.7-6.4-3c-1.6-0.3-2.7-1.6-2.8-3.2l-0.2-3.3c-0.1-2.2,1.8-4,3.9-3.7c3.4,0.5,8.3,1.9,12.5,5.8
		c3.7,3.5,6,8.2,6.8,14.1h56.1c0.5-6.9,2.9-12.4,7.1-16.4c4.2-3.9,9.1-5.3,12.5-5.8c2.2-0.3,4.1,1.5,3.9,3.7l-0.2,3.3
		c-0.1,1.6-1.3,2.9-2.8,3.2c-1.9,0.3-4.4,1.1-6.4,3c-2.7,2.5-4,6.4-4,11.7C1039.1,1380.1,1045.7,1383.3,1049.7,1384.1z
		 M1059.2,1299.5c0,4-3.2,7.2-7.2,7.2h-19c-4,0-7.2-3.2-7.2-7.2v-19c0-4,3.2-7.2,7.2-7.2h19c4,0,7.2,3.2,7.2,7.2V1299.5z"/>
	<path class="st1" d="M1779.7,1211.5h-186.7c-11.2,0-20.3,9.1-20.3,20.3v186.6c0,11.2,9.1,20.3,20.3,20.3h186.7
		c11.2,0,20.3-9.1,20.3-20.3v-186.6C1800,1220.5,1790.9,1211.5,1779.7,1211.5z M1622,1306.2l16.2-16.2l-16.2-16.2l7.2-7.2l16.2,16.2
		l16.2-16.2l7.2,7.2l-16.2,16.2l16.2,16.2l-7.2,7.2l-16.2-16.2l-16.2,16.2L1622,1306.2z M1636.1,1390.7c5.9-18,26.2-31.2,50.3-31.2
		c24.1,0,44.4,13.2,50.3,31.2H1636.1z M1750.8,1306.2l-7.2,7.2l-16.2-16.2l-16.2,16.2l-7.2-7.2l16.2-16.2l-16.2-16.2l7.2-7.2
		l16.2,16.2l16.2-16.2l7.2,7.2l-16.2,16.2L1750.8,1306.2z"/>
	<path class="st1" d="M406.9,1536.5H220.3c-11.2,0-20.3,9.1-20.3,20.3v186.6c0,11.2,9.1,20.3,20.3,20.3h186.6
		c11.2,0,20.3-9.1,20.3-20.3v-186.6C427.2,1545.6,418.1,1536.5,406.9,1536.5z M274.6,1626.9c-10.9,0-19.9-8.3-21.1-18.9h9.3
		c1.1,5.6,6,9.8,11.8,9.8c5.9,0,10.8-4.2,11.8-9.8h9.3C294.5,1618.6,285.5,1626.9,274.6,1626.9z M330.3,1713.9
		c0,5.2-3.2,9.5-7.2,9.5h-19c-4,0-7.2-4.3-7.2-9.5v-25.2c0-5.2,3.2-9.5,7.2-9.5h19c4,0,7.2,4.3,7.2,9.5V1713.9z M335.6,1608h9.3
		c1,5.6,6,9.8,11.8,9.8c5.9,0,10.8-4.2,11.8-9.8h9.2c-1.1,10.6-10.1,18.9-21.1,18.9S336.8,1618.6,335.6,1608z M349.8,1699.6
		l-4.6-4.2l2.5-7.7l-2.5,1.1l-2.7-6.3l9.4-4.1l4.6,4.2l-2.4,7.6l2.5-1.1l2.7,6.3L349.8,1699.6z M363.7,1690.1l-5-3.7l2.9-12.6
		l-5.4,3.1l-3.4-5.9l12.2-7l5,3.7l-2.9,12.6l5.4-3.1l3.4,5.9L363.7,1690.1z M385.5,1678.9l-8.3-4.4l1.2-13.7l-4.6,3.8l-6.5-7.9
		l14.1-11.6l8.3,4.4l-1.2,13.7l4.6-3.8l6.5,7.9L385.5,1678.9z"/>
	<path class="st1" d="M750.1,1536.5H563.5c-11.2,0-20.3,9.1-20.3,20.3v186.6c0,11.2,9.1,20.3,20.3,20.3h186.7
		c11.2,0,20.3-9.1,20.3-20.3v-186.6C770.4,1545.6,761.3,1536.5,750.1,1536.5z M592,1604.1h-7.4c2.8-9.7,15.4-17,30.5-17
		s27.7,7.3,30.5,17h-7.4c-3-5.4-11.7-10.2-23.1-10.2C603.7,1593.9,595.1,1598.7,592,1604.1z M601.4,1626.2v-8.8
		c0-3.1,2.5-5.6,5.6-5.6h22.3c3.1,0,5.6,2.5,5.6,5.6v8.8c0,3.1-2.5,5.6-5.6,5.6h-22.3C603.8,1631.8,601.4,1629.3,601.4,1626.2z
		 M656.8,1710.4c-24.1,0-44.4-13.2-50.4-31.2h100.7C701.2,1697.2,680.9,1710.4,656.8,1710.4z M715.9,1626.2c0,3.1-2.5,5.6-5.6,5.6
		h-22.3c-3.1,0-5.6-2.5-5.6-5.6v-8.8c0-3.1,2.5-5.6,5.6-5.6h22.3c3.1,0,5.6,2.5,5.6,5.6V1626.2z M721.5,1604.1
		c-3-5.4-11.7-10.2-23.1-10.2c-11.4,0-20.1,4.8-23.1,10.2h-7.4c2.8-9.7,15.4-17,30.5-17s27.7,7.3,30.5,17H721.5z"/>
	<path class="st1" d="M1093.3,1536.5H906.7c-11.2,0-20.3,9.1-20.3,20.3v186.6c0,11.2,9.1,20.3,20.3,20.3h186.6
		c11.2,0,20.3-9.1,20.3-20.3v-186.6C1113.6,1545.6,1104.5,1536.5,1093.3,1536.5z M937.6,1581h-7.4c2.8-9.7,15.4-17,30.5-17
		s27.7,7.3,30.5,17h-7.4c-3-5.4-11.7-10.2-23.1-10.2C949.4,1570.7,940.7,1575.5,937.6,1581z M944.6,1624.6v-19c0-4,3.2-7.2,7.2-7.2
		h19c4,0,7.2,3.2,7.2,7.2v19c0,4-3.2,7.2-7.2,7.2h-19C947.8,1631.8,944.6,1628.6,944.6,1624.6z M1000,1723.4
		c-24.1,0-44.4-13.2-50.4-31.2h100.7C1044.4,1710.2,1024.1,1723.4,1000,1723.4z M1067.1,1618c0,1.2-1,2.2-2.2,2.2h-35.6
		c-1.2,0-2.2-1-2.2-2.2v-5.9c0-1.2,1-2.2,2.2-2.2h35.6c1.2,0,2.2,1,2.2,2.2V1618z M1067.2,1598.3c-3-5.4-11.7-10.2-23.1-10.2
		s-20.1,4.8-23.1,10.2h-7.4c2.8-9.7,15.4-17,30.5-17c15.1,0,27.7,7.3,30.5,17H1067.2z"/>
	<path class="st1" d="M1436.5,1536.5h-186.6c-11.2,0-20.3,9.1-20.3,20.3v186.6c0,11.2,9.1,20.3,20.3,20.3h186.6
		c11.2,0,20.3-9.1,20.3-20.3v-186.6C1456.8,1545.6,1447.7,1536.5,1436.5,1536.5z M1287.7,1624.6v-19c0-4,3.2-7.2,7.2-7.2h19
		c4,0,7.2,3.2,7.2,7.2v19c0,4-3.2,7.2-7.2,7.2h-19C1291,1631.8,1287.7,1628.6,1287.7,1624.6z M1379.5,1707.8h-7
		c-7-5.3-16.8-8.5-27.6-8.5c-10.8,0-20.5,3.3-27.5,8.5h-7c-2.4,0-4.2-2.2-3.6-4.6c3-13.6,18.9-24,38.2-24c19.3,0,35.3,10.4,38.2,24
		C1383.7,1705.6,1381.9,1707.8,1379.5,1707.8z M1402.3,1624.6c0,4-3.2,7.2-7.2,7.2h-19c-4,0-7.2-3.2-7.2-7.2v-19
		c0-4,3.2-7.2,7.2-7.2h19c4,0,7.2,3.2,7.2,7.2V1624.6z"/>
	<path class="st1" d="M1783.3,1536.5h-193.8c-8.8,0-15.5,7.8-14.3,16.5l27.6,188.8c1.8,12.6,12.6,21.9,25.4,21.9h115.2
		c12.7,0,23.4-9.3,25.3-21.7l28.8-188.9C1798.8,1544.4,1792.1,1536.5,1783.3,1536.5z M1617.7,1629.8c-3.8-3.4-4.1-9.3-0.7-13.1
		l10-11.1c3.4-3.8,9.3-4.1,13.1-0.7l26.9,24.3c3.8,3.4,4.1,9.3,0.7,13.1l-10,11.1c-3.4,3.8-9.3,4.1-13.1,0.7L1617.7,1629.8z
		 M1686.4,1711c-21.8,0-39.9-10.6-43.9-24.5h10.6c4.3,7.8,16.8,14.7,33.3,14.7c16.5,0,29-6.9,33.3-14.7h10.6
		C1726.3,1700.4,1708.1,1711,1686.4,1711z M1753.5,1629.8l-26.9,24.3c-3.8,3.4-9.7,3.1-13.1-0.7l-10-11.1c-3.4-3.8-3.1-9.6,0.7-13.1
		l26.9-24.3c3.8-3.4,9.6-3.1,13.1,0.7l10,11.1C1757.6,1620.6,1757.3,1626.4,1753.5,1629.8z"/>
	<polygon class="st1" points="1662.2,708.6 1655.6,730.1 1650,708.6 	"/>
	<polygon class="st1" points="1724.5,708.6 1718,730.1 1712.3,708.6 	"/>
	<polygon class="st1" points="1662.2,708.6 1655.6,730.1 1650,708.6 	"/>
	<polygon class="st1" points="1724.5,708.6 1718,730.1 1712.3,708.6 	"/>
	<g>
		<path class="st1" d="M1631.9,561.4l-30.9-0.2c0,0-0.5-21.4,31.2-43.2C1632.2,518,1623,535.7,1631.9,561.4z"/>
		<path class="st1" d="M1741,561.4c8.9-25.6-0.3-43.4-0.3-43.4c31.8,21.9,31.3,43.2,31.3,43.2L1741,561.4z"/>
	</g>
	<path class="st1" d="M1436.5,1211.5h-186.6c-11.2,0-20.3,9.1-20.3,20.3v186.6c0,11.2,9.1,20.3,20.3,20.3h186.6
		c11.2,0,20.3-9.1,20.3-20.3v-186.6C1456.8,1220.5,1447.7,1211.5,1436.5,1211.5z M1343.2,1395.3c-30.2,0-55.5-14.7-61-34h14.7
		c6,10.8,23.3,20.4,46.3,20.4c22.9,0,40.3-9.6,46.2-20.4h14.7C1398.7,1380.6,1373.5,1395.3,1343.2,1395.3z M1422.5,1286.3
		c0,1.9-1.5,3.4-3.4,3.4h-2.4c-1.3,0-2.4,1.1-2.4,2.4v31.7c0,7.4-6,13.3-13.3,13.3h-35c-7.4,0-13.3-6-13.3-13.3v-12.9
		c0-2.1-1.7-3.8-3.8-3.8h-10.8c-2.1,0-3.8,1.7-3.8,3.8v13c0,7.4-6,13.3-13.3,13.3h-35c-7.4,0-13.3-6-13.3-13.3v-31.8
		c0-1.3-1.1-2.4-2.4-2.4h-1.7c-1.9,0-3.4-1.5-3.4-3.4v-6.8c0-1.9,1.5-3.4,3.4-3.4h150.6c1.9,0,3.4,1.5,3.4,3.4V1286.3z"/>
</g>
</svg>
