<?xml version="1.0" encoding="utf-8"?>
<!-- Generator: Adobe Illustrator 22.1.0, SVG Export Plug-In . SVG Version: 6.00 Build 0)  -->
<svg version="1.1" xmlns="http://www.w3.org/2000/svg" xmlns:xlink="http://www.w3.org/1999/xlink" x="0px" y="0px"
	 viewBox="0 0 1000 2000" style="enable-background:new 0 0 1000 2000;" xml:space="preserve">
<style type="text/css">
	.st0{fill:#1B2638;}
	.st1{fill:#FFFFFF;}
</style>
<g id="Layer_3">
	<rect class="st0" width="1000" height="2000"/>
</g>
<g id="Layer_2">
	<path class="st1" d="M265.6,242.4H115.2c-5.5,0-10-4.5-10-10V82c0-5.5,4.5-10,10-10h150.4c5.5,0,10,4.5,10,10v150.4
		C275.6,237.9,271.2,242.4,265.6,242.4z"/>
	<path class="st1" d="M576,242.4H425.6c-5.5,0-10-4.5-10-10V82c0-5.5,4.5-10,10-10H576c5.5,0,10,4.5,10,10v150.4
		C586,237.9,581.5,242.4,576,242.4z"/>
	<path class="st1" d="M886.3,242.4H735.9c-5.5,0-10-4.5-10-10V82c0-5.5,4.5-10,10-10h150.4c5.5,0,10,4.5,10,10v150.4
		C896.3,237.9,891.8,242.4,886.3,242.4z"/>
	<path class="st1" d="M265.6,510.1H115.2c-5.5,0-10-4.5-10-10V349.7c0-5.5,4.5-10,10-10h150.4c5.5,0,10,4.5,10,10v150.4
		C275.6,505.7,271.2,510.1,265.6,510.1z"/>
	<path class="st1" d="M576,510.1H425.6c-5.5,0-10-4.5-10-10V349.7c0-5.5,4.5-10,10-10H576c5.5,0,10,4.5,10,10v150.4
		C586,505.7,581.5,510.1,576,510.1z"/>
	<path class="st1" d="M886.3,510.1H735.9c-5.5,0-10-4.5-10-10V349.7c0-5.5,4.5-10,10-10h150.4c5.5,0,10,4.5,10,10v150.4
		C896.3,505.7,891.8,510.1,886.3,510.1z"/>
	<path class="st1" d="M576,1904.2H425.6c-5.5,0-10-4.5-10-10v-150.4c0-5.5,4.5-10,10-10H576c5.5,0,10,4.5,10,10v150.4
		C586,1899.7,581.5,1904.2,576,1904.2z"/>
	<path class="st1" d="M265.6,1608.8H115.2c-5.5,0-10-4.5-10-10v-150.4c0-5.5,4.5-10,10-10h150.4c5.5,0,10,4.5,10,10v150.4
		C275.6,1604.3,271.2,1608.8,265.6,1608.8z"/>
	<path class="st1" d="M886.3,1608.8H735.9c-5.5,0-10-4.5-10-10v-150.4c0-5.5,4.5-10,10-10h150.4c5.5,0,10,4.5,10,10v150.4
		C896.3,1604.3,891.8,1608.8,886.3,1608.8z"/>
	<path class="st1" d="M576,1608.8H425.6c-5.5,0-10-4.5-10-10v-150.4c0-5.5,4.5-10,10-10H576c5.5,0,10,4.5,10,10v150.4
		C586,1604.3,581.5,1608.8,576,1608.8z"/>
	<path class="st1" d="M265.6,1904.2H115.2c-5.5,0-10-4.5-10-10v-150.4c0-5.5,4.5-10,10-10h150.4c5.5,0,10,4.5,10,10v150.4
		C275.6,1899.7,271.2,1904.2,265.6,1904.2z"/>
	<path class="st1" d="M886.3,1904.2H735.9c-5.5,0-10-4.5-10-10v-150.4c0-5.5,4.5-10,10-10h150.4c5.5,0,10,4.5,10,10v150.4
		C896.3,1899.7,891.8,1904.2,886.3,1904.2z"/>
	<path class="st1" d="M265.6,1045.6H115.2c-5.5,0-10-4.5-10-10V885.2c0-5.5,4.5-10,10-10h150.4c5.5,0,10,4.5,10,10v150.4
		C275.6,1041.2,271.2,1045.6,265.6,1045.6z"/>
	<path class="st1" d="M576,1045.6H425.6c-5.5,0-10-4.5-10-10V885.2c0-5.5,4.5-10,10-10H576c5.5,0,10,4.5,10,10v150.4
		C586,1041.2,581.5,1045.6,576,1045.6z"/>
	<path class="st1" d="M265.6,1313.4H115.2c-5.5,0-10-4.5-10-10V1153c0-5.5,4.5-10,10-10h150.4c5.5,0,10,4.5,10,10v150.4
		C275.6,1308.9,271.2,1313.4,265.6,1313.4z"/>
	<path class="st1" d="M576,1313.4H425.6c-5.5,0-10-4.5-10-10V1153c0-5.5,4.5-10,10-10H576c5.5,0,10,4.5,10,10v150.4
		C586,1308.9,581.5,1313.4,576,1313.4z"/>
	<path class="st1" d="M886.3,1313.4H735.9c-5.5,0-10-4.5-10-10V1153c0-5.5,4.5-10,10-10h150.4c5.5,0,10,4.5,10,10v150.4
		C896.3,1308.9,891.8,1313.4,886.3,1313.4z"/>
	<path class="st1" d="M265.6,777.9H115.2c-5.5,0-10-4.5-10-10V617.5c0-5.5,4.5-10,10-10h150.4c5.5,0,10,4.5,10,10v150.4
		C275.6,773.4,271.2,777.9,265.6,777.9z"/>
	<path class="st1" d="M576,777.9H425.6c-5.5,0-10-4.5-10-10V617.5c0-5.5,4.5-10,10-10H576c5.5,0,10,4.5,10,10v150.4
		C586,773.4,581.5,777.9,576,777.9z"/>
	<path class="st1" d="M886.3,1045.6H735.9c-5.5,0-10-4.5-10-10V885.2c0-5.5,4.5-10,10-10h150.4c5.5,0,10,4.5,10,10v150.4
		C896.3,1041.2,891.8,1045.6,886.3,1045.6z"/>
	<path class="st1" d="M886.3,777.9H735.9c-5.5,0-10-4.5-10-10V617.5c0-5.5,4.5-10,10-10h150.4c5.5,0,10,4.5,10,10v150.4
		C896.3,773.4,891.8,777.9,886.3,777.9z"/>
</g>
<g id="Layer_1">
	<g>
		<path class="st0" d="M232.6,116.7c-9.5-9.5-22.7-15.4-37.2-15.4h-6.6c-30.9,0-55.9,25-55.9,55.9v0c0,30.9,25,55.9,55.9,55.9
			c16.3,0,31.1-6.6,41.8-17.3c10.7-10.7,17.3-25.5,17.3-41.8C248,139.4,242.1,126.2,232.6,116.7z M216.6,173.4
			c-5.2,5.2-12.1,8.1-19.5,8.1c-0.7,0-1.5,0-2.2-0.1c-13.3-1-24.2-11.9-25.3-25.2c-0.6-8.1,2.3-16,8-21.7c5.2-5.2,12.1-8.1,19.5-8.1
			s14.3,2.9,19.5,8.1c5.2,5.2,8.1,12.1,8.1,19.5C224.7,161.3,221.8,168.2,216.6,173.4z"/>
		<path class="st0" d="M220.5,153.9c0,6.5-2.6,12.3-6.8,16.5c-4.6,4.6-11.2,7.3-18.4,6.8c-11.3-0.9-20.5-10.1-21.4-21.4
			c-0.6-7.2,2.1-13.8,6.8-18.4c4.2-4.2,10.1-6.9,16.5-6.9s12.3,2.6,16.5,6.9C217.9,141.6,220.5,147.5,220.5,153.9z"/>
	</g>
	<g>
		<path class="st0" d="M493.7,191.2c0,12.8-4.8,23.5-4.8,23.5h-10.6c0,0,4.8-10.7,4.8-23.5c0-10.6-8.7-21.1-8.7-31.7
			c0-12.1,7-24.1,7-36.2c0-7.9-3.2-23.7-3.2-23.7h10.6c0,0,3.2,15.8,3.2,23.7c0,12.1-7,24.1-7,36.2
			C485.1,170.1,493.7,180.7,493.7,191.2z"/>
		<path class="st0" d="M513.7,191.2c0,12.8-4.8,23.5-4.8,23.5h-16.6c0,0,4.8-10.7,4.8-23.5c0-10.6-8.7-21.1-8.7-31.7
			c0-12.1,7-24.1,7-36.2c0-7.9-3.2-23.7-3.2-23.7h16.6c0,0,3.1,15.8,3.1,23.7c0,12.1-7,24.1-7,36.2
			C505.1,170.1,513.7,180.7,513.7,191.2z"/>
		<path class="st0" d="M527.1,191.4c0,7.8-4.8,23.3-4.8,23.3h-10c0,0,4.8-10.7,4.8-23.5c0-10.6-8.7-21.1-8.7-31.7
			c0-12.1,7-24.1,7-36.2c0-7.9-3.1-23.7-3.1-23.7h10c0,0,3.2,16,3.2,24.1c0,11.4-8,22.8-8,34.3C517.5,169.1,527.1,180.3,527.1,191.4
			z"/>
	</g>
	<g>
		<path class="st0" d="M821.7,214.6h-44.5c-5.5,0-9.9-4.4-9.9-9.9v-57.4h64.3v57.4C831.6,210.2,827.2,214.6,821.7,214.6z"/>
		<path class="st0" d="M855,166v25.8c0,3.4-2.8,6.2-6.2,6.2H835v-6.5h7.4c2.9,0,5.3-2.4,5.3-5.3v-14.6c0-2.9-2.4-5.3-5.3-5.3H835
			v-6.5h13.8C852.2,159.8,855,162.6,855,166z"/>
		<path class="st0" d="M819.4,143.4l-1.2-1.3c-1.5-1.6-2.3-3.3-2.3-5c-0.1-2.9,1.9-5.1,4-7.3c2.1-2.3,4.3-4.6,4.2-7.8
			c0-2.9-2.1-5.9-6-8.7l-0.2-0.1h-5.7l2.2,1.4c3.5,2.4,5.3,4.7,5.4,7c0.1,2.5-1.8,4.5-3.8,6.7c-2.3,2.5-4.7,5.1-4.5,8.7
			c0.1,2.1,1,4.1,2.7,6.1l0.2,0.3H819.4z"/>
		<path class="st0" d="M784.9,143.4l-1.2-1.3c-1.5-1.6-2.3-3.3-2.3-5c-0.1-2.9,1.9-5.1,4-7.3c2.1-2.3,4.3-4.6,4.2-7.8
			c0-2.9-2.1-5.9-6-8.7l-0.2-0.1h-5.8l2.2,1.4c3.5,2.4,5.3,4.7,5.4,7c0.1,2.5-1.8,4.5-3.8,6.7c-2.3,2.5-4.7,5.1-4.5,8.7
			c0.1,2.1,1,4.1,2.7,6.1l0.2,0.3H784.9z"/>
		<path class="st0" d="M803.2,130l-1.2-1.3c-1.5-1.6-2.3-3.3-2.3-5c-0.1-2.9,1.9-5.1,4-7.3c2.1-2.3,4.3-4.6,4.2-7.8
			c0-2.9-2.1-5.9-6-8.7l-0.2-0.1h-5.7l2.2,1.4c3.5,2.4,5.3,4.7,5.4,7c0.1,2.5-1.8,4.5-3.8,6.7c-2.3,2.5-4.7,5.1-4.5,8.7
			c0.1,2.1,1,4.1,2.7,6.1l0.2,0.3H803.2z"/>
	</g>
	<g>
		<path class="st0" d="M551.8,1822.9c-34.2,4.4-67.8,4.4-102,0c-4-0.6-7.6,1.7-8.2,5.2c-2.9,14,11.6,24.8,24,25.9
			c23.6,1.8,46.8,1.8,70.4,0c13-0.7,26.2-12.1,24-25.9C559.4,1824.7,555.8,1822.4,551.8,1822.9z"/>
		<path class="st0" d="M554.8,1796L554.8,1796c-1.6-8.6-9.6-14.2-18.2-13.4c-24,2.4-47.6,2.4-71.6,0c-8.6-0.9-16.6,4.8-18.2,13.4v0
			C483,1801.4,518.6,1801.4,554.8,1796z"/>
		<path class="st0" d="M566.4,1807.4c-0.9-4.8-5.9-8-11.1-7.1c-36.6,5.4-72.5,5.4-109.1,0c-5.2-0.8-10.2,2.3-11.1,7.1
			c-0.9,4.8,2.8,9.6,8.3,10.5c38.5,5.7,76.3,5.7,114.8,0C563.7,1817,567.4,1812.2,566.4,1807.4z"/>
	</g>
	<g>
		<path class="st0" d="M238.6,1513h-96.4c-5.2,0-8.7-5.4-6.6-10.2c7.4-17,29.1-29.3,54.8-29.3s47.4,12.3,54.8,29.3
			C247.4,1507.6,243.9,1513,238.6,1513z"/>
		<path class="st0" d="M140,1550.1h100.9c2.2,0,3.9,1.8,3.9,3.9v3.6c0,8.8-7.1,15.9-15.9,15.9H152c-8.8,0-15.9-7.1-15.9-15.9v-3.6
			C136.1,1551.9,137.8,1550.1,140,1550.1z"/>
		<path class="st0" d="M241.8,1545.9H139.1c-3.2,0-5.8-2.6-5.8-5.8l0,0c0-3.2,2.6-5.8,5.8-5.8h102.7c3.2,0,5.8,2.6,5.8,5.8l0,0
			C247.6,1543.3,245,1545.9,241.8,1545.9z"/>
		<path class="st0" d="M239.4,1530.1h-98c-1.7,0-3.1-1.4-3.1-3.1v-6.7c0-1.7,1.4-3.1,3.1-3.1h98c1.7,0,3.1,1.4,3.1,3.1v6.7
			C242.6,1528.7,241.2,1530.1,239.4,1530.1z"/>
	</g>
	<g>
		<path class="st0" d="M779.1,1562.2l70.6-70.6c2.4-2.4,6.3-2.4,8.7,0l0,0c8.5,8.5,8.5,22.3,0,30.8l-48.4,48.4
			c-8.5,8.5-22.3,8.5-30.8,0l0,0C776.7,1568.4,776.7,1564.6,779.1,1562.2z"/>
		<path class="st0" d="M852.6,1484.6l-80.5,80.5c-3.3,3.3-8.8,3.3-12.1,0h0c-3.3-3.3-3.3-8.8,0-12.1l80.5-80.5
			c3.3-3.3,8.8-3.3,12.1,0l0,0C856,1475.8,856,1481.2,852.6,1484.6z"/>
	</g>
	<g>
		<path class="st0" d="M543.5,1511.9c11,24.3-0.3,53-25.3,63.1c-22.1,8.9-47.8-0.5-58.9-21.6c-11.1-21-4.7-46.1,13.2-59.5
			c0.3-0.2,0.7,0.1,0.6,0.4c-0.2,0.8-0.2,1.6,0.1,2.3c1.3,2.8,6.6,3.1,12,0.7c5.3-2.4,8.6-6.7,7.4-9.5c-0.3-0.7-0.9-1.3-1.7-1.6
			c-0.3-0.1-0.2-0.6,0.1-0.7C512.1,1480.9,534.2,1491.5,543.5,1511.9z"/>
		<path class="st0" d="M471.2,1470l2.4-1.1c0.3-0.1,0.6,0.1,0.6,0.4c-0.4,2.5-0.1,4.4,0.1,5.6c1,4.3,3.7,6.2,7.7,12.2
			c1.4,2.1,2.4,3.9,3.1,5.1c0.2,0.3,0,0.7-0.3,0.8l-2.2,1c-0.3,0.1-0.7,0-0.8-0.3c-0.2-0.6-0.5-1.4-1-2.2c-4.3-9-10.6-11.2-10.9-17
			c0-0.9,0-2.3,0.9-4.1C470.9,1470.2,471.1,1470.1,471.2,1470z"/>
	</g>
	<g>
		<polygon class="st0" points="164.2,1865 216.6,1865 215.2,1876.2 165.7,1876.2 		"/>
		<polygon class="st0" points="225.3,1796.7 217.2,1860.8 163.7,1860.8 155.5,1796.7 170.6,1796.7 181.7,1817.6 199.2,1817.6 
			210.3,1796.7 		"/>
		<g>
			<polygon class="st0" points="167.9,1778.4 169.6,1793.8 160,1793.8 153.4,1771.9 164.9,1768.5 			"/>
			<polygon class="st0" points="181.3,1763.7 181.8,1768.4 181.8,1811.7 172.9,1794.8 172.8,1794.5 172.5,1794 172.4,1793.4 
				170.7,1777.8 169.4,1765 			"/>
			<polygon class="st0" points="227.5,1771.9 220.9,1793.8 211.3,1793.8 213,1778.3 213,1778.3 216,1768.5 			"/>
			<polygon class="st0" points="211.5,1765 210.1,1777.8 208.4,1793.4 208.4,1794 208.1,1794.5 208,1794.8 199.7,1810.6 
				197.5,1814.7 194,1814.7 196.8,1789.3 199.5,1763.7 199.7,1763.7 			"/>
			<polygon class="st0" points="196.8,1761.7 196.8,1762.5 191.1,1814.7 184.7,1814.7 184.7,1761.7 			"/>
		</g>
	</g>
	<g>
		
			<ellipse transform="matrix(0.9732 -0.2299 0.2299 0.9732 -399.7296 231.7286)" class="st0" cx="794.5" cy="1831.2" rx="32.3" ry="46"/>
		
			<ellipse transform="matrix(0.2299 -0.9732 0.9732 0.2299 -1144.705 2215.7183)" class="st0" cx="827.7" cy="1831.2" rx="46" ry="32.3"/>
		<path class="st0" d="M833.3,1761.6c0.8,5.8-1.6,12.7-6.9,18c-5.3,5.3-12.2,7.7-18,6.9c-0.8-5.8,1.6-12.7,6.9-18
			C820.7,1763.2,827.6,1760.8,833.3,1761.6z"/>
	</g>
	<g>
		<g>
			<path class="st0" d="M191.6,1180.1v45.4l32.1-32.1C215.3,1185.4,204,1180.3,191.6,1180.1z M197.8,1212.1c-1.3,0-2.4-1.1-2.4-2.4
				c0-1.3,1.1-2.4,2.4-2.4c1.3,0,2.4,1.1,2.4,2.4C200.2,1211,199.1,1212.1,197.8,1212.1z M197.8,1200.9c-1.3,0-2.4-1.1-2.4-2.4
				c0-1.3,1.1-2.4,2.4-2.4c1.3,0,2.4,1.1,2.4,2.4C200.2,1199.8,199.1,1200.9,197.8,1200.9z M197.8,1189.7c-1.3,0-2.4-1.1-2.4-2.4
				c0-1.3,1.1-2.4,2.4-2.4c1.3,0,2.4,1.1,2.4,2.4C200.2,1188.7,199.1,1189.7,197.8,1189.7z M205.9,1204.8c-1.3,0-2.4-1.1-2.4-2.4
				c0-1.3,1.1-2.4,2.4-2.4c1.3,0,2.4,1.1,2.4,2.4C208.3,1203.7,207.2,1204.8,205.9,1204.8z M206.2,1192.9c-1.3,0-2.4-1.1-2.4-2.4
				c0-1.3,1.1-2.4,2.4-2.4c1.3,0,2.4,1.1,2.4,2.4C208.6,1191.8,207.5,1192.9,206.2,1192.9z M213.9,1198c-1.3,0-2.4-1.1-2.4-2.4
				c0-1.3,1.1-2.4,2.4-2.4c1.3,0,2.4,1.1,2.4,2.4C216.3,1196.9,215.2,1198,213.9,1198z"/>
		</g>
		<g>
			<path class="st0" d="M157.2,1193.4l32.1,32.1v-45.4C177.7,1180.3,166.2,1184.8,157.2,1193.4z M184.3,1211.6
				c-0.9,0.9-2.4,0.9-3.4,0c-0.9-0.9-0.9-2.4,0-3.4s2.4-0.9,3.4,0C185.2,1209.2,185.2,1210.7,184.3,1211.6z M176.3,1203.7
				c-0.9,0.9-2.4,0.9-3.4,0c-0.9-0.9-0.9-2.4,0-3.4c0.9-0.9,2.4-0.9,3.4,0C177.3,1201.2,177.3,1202.8,176.3,1203.7z M168.5,1195.8
				c-0.9,0.9-2.4,0.9-3.4,0c-0.9-0.9-0.9-2.4,0-3.4c0.9-0.9,2.4-0.9,3.4,0C169.4,1193.4,169.4,1194.9,168.5,1195.8z M184.8,1200.7
				c-0.9,0.9-2.4,0.9-3.4,0c-0.9-0.9-0.9-2.4,0-3.4c0.9-0.9,2.4-0.9,3.4,0C185.7,1198.3,185.7,1199.8,184.8,1200.7z M176.6,1192.1
				c-0.9,0.9-2.4,0.9-3.4,0c-0.9-0.9-0.9-2.4,0-3.4c0.9-0.9,2.4-0.9,3.4,0C177.5,1189.7,177.5,1191.2,176.6,1192.1z M185.7,1190.3
				c-0.9,0.9-2.4,0.9-3.4,0c-0.9-0.9-0.9-2.4,0-3.4c0.9-0.9,2.4-0.9,3.4,0C186.6,1187.8,186.6,1189.3,185.7,1190.3z"/>
		</g>
		<g>
			<path class="st0" d="M142.3,1227.1h45.4l-32.1-32.1C147.6,1203.3,142.6,1214.6,142.3,1227.1z M174.3,1220.8
				c0,1.3-1.1,2.4-2.4,2.4c-1.3,0-2.4-1.1-2.4-2.4c0-1.3,1.1-2.4,2.4-2.4C173.3,1218.4,174.3,1219.5,174.3,1220.8z M163.2,1220.8
				c0,1.3-1.1,2.4-2.4,2.4c-1.3,0-2.4-1.1-2.4-2.4c0-1.3,1.1-2.4,2.4-2.4C162.1,1218.4,163.2,1219.5,163.2,1220.8z M152,1220.8
				c0,1.3-1.1,2.4-2.4,2.4c-1.3,0-2.4-1.1-2.4-2.4c0-1.3,1.1-2.4,2.4-2.4C150.9,1218.4,152,1219.5,152,1220.8z M167,1212.7
				c0,1.3-1.1,2.4-2.4,2.4c-1.3,0-2.4-1.1-2.4-2.4c0-1.3,1.1-2.4,2.4-2.4C166,1210.3,167,1211.4,167,1212.7z M155.1,1212.4
				c0,1.3-1.1,2.4-2.4,2.4c-1.3,0-2.4-1.1-2.4-2.4c0-1.3,1.1-2.4,2.4-2.4C154.1,1210.1,155.1,1211.1,155.1,1212.4z M160.2,1204.7
				c0,1.3-1.1,2.4-2.4,2.4c-1.3,0-2.4-1.1-2.4-2.4c0-1.3,1.1-2.4,2.4-2.4C159.2,1202.4,160.2,1203.4,160.2,1204.7z"/>
		</g>
		<g>
			<path class="st0" d="M155.6,1261.4l32.1-32.1h-45.4C142.6,1240.9,147,1252.4,155.6,1261.4z M173.9,1234.4c0.9,0.9,0.9,2.4,0,3.4
				c-0.9,0.9-2.4,0.9-3.4,0c-0.9-0.9-0.9-2.4,0-3.4C171.4,1233.4,172.9,1233.4,173.9,1234.4z M165.9,1242.3c0.9,0.9,0.9,2.4,0,3.4
				c-0.9,0.9-2.4,0.9-3.4,0s-0.9-2.4,0-3.4C163.5,1241.3,165,1241.3,165.9,1242.3z M158.1,1250.2c0.9,0.9,0.9,2.4,0,3.4
				c-0.9,0.9-2.4,0.9-3.4,0c-0.9-0.9-0.9-2.4,0-3.4C155.6,1249.2,157.1,1249.2,158.1,1250.2z M163,1233.8c0.9,0.9,0.9,2.4,0,3.4
				c-0.9,0.9-2.4,0.9-3.4,0c-0.9-0.9-0.9-2.4,0-3.4C160.5,1232.9,162,1232.9,163,1233.8z M154.4,1242c0.9,0.9,0.9,2.4,0,3.4
				c-0.9,0.9-2.4,0.9-3.4,0c-0.9-0.9-0.9-2.4,0-3.4C151.9,1241.1,153.4,1241.1,154.4,1242z M152.5,1233c0.9,0.9,0.9,2.4,0,3.4
				c-0.9,0.9-2.4,0.9-3.4,0c-0.9-0.9-0.9-2.4,0-3.4C150.1,1232,151.6,1232,152.5,1233z"/>
		</g>
		<g>
			<path class="st0" d="M189.3,1276.3v-45.4l-32.1,32.1C165.6,1271,176.9,1276,189.3,1276.3z M183.1,1244.3c1.3,0,2.4,1.1,2.4,2.4
				c0,1.3-1.1,2.4-2.4,2.4c-1.3,0-2.4-1.1-2.4-2.4C180.7,1245.3,181.8,1244.3,183.1,1244.3z M183.1,1255.5c1.3,0,2.4,1.1,2.4,2.4
				c0,1.3-1.1,2.4-2.4,2.4c-1.3,0-2.4-1.1-2.4-2.4C180.7,1256.5,181.8,1255.5,183.1,1255.5z M183.1,1266.6c1.3,0,2.4,1.1,2.4,2.4
				c0,1.3-1.1,2.4-2.4,2.4c-1.3,0-2.4-1.1-2.4-2.4C180.7,1267.7,181.8,1266.6,183.1,1266.6z M175,1251.6c1.3,0,2.4,1.1,2.4,2.4
				c0,1.3-1.1,2.4-2.4,2.4c-1.3,0-2.4-1.1-2.4-2.4C172.6,1252.7,173.7,1251.6,175,1251.6z M174.7,1263.5c1.3,0,2.4,1.1,2.4,2.4
				c0,1.3-1.1,2.4-2.4,2.4c-1.3,0-2.4-1.1-2.4-2.4C172.3,1264.6,173.4,1263.5,174.7,1263.5z M167,1258.4c1.3,0,2.4,1.1,2.4,2.4
				c0,1.3-1.1,2.4-2.4,2.4c-1.3,0-2.4-1.1-2.4-2.4C164.6,1259.4,165.7,1258.4,167,1258.4z"/>
		</g>
		<g>
			<path class="st0" d="M223.7,1263l-32.1-32.1v45.4C203.2,1276,214.7,1271.6,223.7,1263z M196.6,1244.8c0.9-0.9,2.4-0.9,3.4,0
				c0.9,0.9,0.9,2.4,0,3.4c-0.9,0.9-2.4,0.9-3.4,0C195.7,1247.2,195.7,1245.7,196.6,1244.8z M204.5,1252.7c0.9-0.9,2.4-0.9,3.4,0
				c0.9,0.9,0.9,2.4,0,3.4c-0.9,0.9-2.4,0.9-3.4,0C203.6,1255.1,203.6,1253.6,204.5,1252.7z M212.4,1260.6c0.9-0.9,2.4-0.9,3.4,0
				c0.9,0.9,0.9,2.4,0,3.4c-0.9,0.9-2.4,0.9-3.4,0C211.5,1263,211.5,1261.5,212.4,1260.6z M196.1,1255.7c0.9-0.9,2.4-0.9,3.4,0
				c0.9,0.9,0.9,2.4,0,3.4c-0.9,0.9-2.4,0.9-3.4,0C195.1,1258.1,195.1,1256.6,196.1,1255.7z M204.3,1264.3c0.9-0.9,2.4-0.9,3.4,0
				c0.9,0.9,0.9,2.4,0,3.4c-0.9,0.9-2.4,0.9-3.4,0C203.3,1266.7,203.3,1265.2,204.3,1264.3z M195.2,1266.1c0.9-0.9,2.4-0.9,3.4,0
				c0.9,0.9,0.9,2.4,0,3.4c-0.9,0.9-2.4,0.9-3.4,0C194.3,1268.6,194.3,1267,195.2,1266.1z"/>
		</g>
		<g>
			<path class="st0" d="M238.6,1229.3h-45.4l32.1,32.1C233.3,1253,238.3,1241.8,238.6,1229.3z M206.5,1235.5c0-1.3,1.1-2.4,2.4-2.4
				c1.3,0,2.4,1.1,2.4,2.4s-1.1,2.4-2.4,2.4C207.6,1237.9,206.5,1236.9,206.5,1235.5z M217.7,1235.5c0-1.3,1.1-2.4,2.4-2.4
				c1.3,0,2.4,1.1,2.4,2.4s-1.1,2.4-2.4,2.4C218.8,1237.9,217.7,1236.9,217.7,1235.5z M228.9,1235.5c0-1.3,1.1-2.4,2.4-2.4
				c1.3,0,2.4,1.1,2.4,2.4s-1.1,2.4-2.4,2.4C229.9,1237.9,228.9,1236.9,228.9,1235.5z M213.9,1243.6c0-1.3,1.1-2.4,2.4-2.4
				c1.3,0,2.4,1.1,2.4,2.4c0,1.3-1.1,2.4-2.4,2.4C214.9,1246,213.9,1245,213.9,1243.6z M225.7,1243.9c0-1.3,1.1-2.4,2.4-2.4
				c1.3,0,2.4,1.1,2.4,2.4c0,1.3-1.1,2.4-2.4,2.4C226.8,1246.3,225.7,1245.2,225.7,1243.9z M220.6,1251.6c0-1.3,1.1-2.4,2.4-2.4
				c1.3,0,2.4,1.1,2.4,2.4c0,1.3-1.1,2.4-2.4,2.4C221.7,1254,220.6,1252.9,220.6,1251.6z"/>
		</g>
		<g>
			<path class="st0" d="M225.3,1195l-32.1,32.1h45.4C238.3,1215.5,233.9,1204,225.3,1195z M207,1222c-0.9-0.9-0.9-2.4,0-3.4
				c0.9-0.9,2.4-0.9,3.4,0c0.9,0.9,0.9,2.4,0,3.4C209.5,1222.9,208,1222.9,207,1222z M214.9,1214.1c-0.9-0.9-0.9-2.4,0-3.4
				c0.9-0.9,2.4-0.9,3.4,0c0.9,0.9,0.9,2.4,0,3.4C217.4,1215,215.9,1215,214.9,1214.1z M222.8,1206.2c-0.9-0.9-0.9-2.4,0-3.4
				c0.9-0.9,2.4-0.9,3.4,0s0.9,2.4,0,3.4C225.3,1207.1,223.8,1207.1,222.8,1206.2z M217.9,1222.5c-0.9-0.9-0.9-2.4,0-3.4
				c0.9-0.9,2.4-0.9,3.4,0c0.9,0.9,0.9,2.4,0,3.4C220.4,1223.5,218.9,1223.5,217.9,1222.5z M226.5,1214.4c-0.9-0.9-0.9-2.4,0-3.4
				c0.9-0.9,2.4-0.9,3.4,0c0.9,0.9,0.9,2.4,0,3.4C229,1215.3,227.5,1215.3,226.5,1214.4z M228.4,1223.4c-0.9-0.9-0.9-2.4,0-3.4
				c0.9-0.9,2.4-0.9,3.4,0c0.9,0.9,0.9,2.4,0,3.4C230.8,1224.3,229.3,1224.3,228.4,1223.4z"/>
		</g>
		<path class="st0" d="M230.3,1186.7l-5.1,5.1c-8.8-8.4-20.6-13.7-33.7-14v-7.2C206.6,1170.9,220.2,1177,230.3,1186.7z"/>
		<path class="st0" d="M248,1227.1h-7.2c-0.3-13-5.6-24.9-14-33.7l5.1-5.1C241.6,1198.4,247.7,1212,248,1227.1z"/>
		<path class="st0" d="M248,1229.3c-0.3,15-6.3,28.7-16,38.8l-5.1-5.1c8.4-8.8,13.7-20.6,14-33.7H248z"/>
		<path class="st0" d="M230.3,1269.7c-10.1,9.7-23.7,15.8-38.8,16v-7.2c13-0.3,24.9-5.6,33.7-14L230.3,1269.7z"/>
		<path class="st0" d="M189.3,1278.5v7.2c-15-0.3-28.7-6.3-38.7-16l5.1-5.1C164.4,1273,176.3,1278.3,189.3,1278.5z"/>
		<path class="st0" d="M154,1263l-5.1,5.1c-9.7-10.1-15.8-23.7-16.1-38.8h7.2C140.4,1242.4,145.6,1254.2,154,1263z"/>
		<path class="st0" d="M154,1193.4c-8.4,8.8-13.7,20.6-14,33.7h-7.2c0.3-15,6.3-28.7,16.1-38.8L154,1193.4z"/>
		<path class="st0" d="M189.3,1170.6v7.2c-13,0.3-24.9,5.5-33.7,14l-5.1-5.1C160.7,1177,174.3,1170.9,189.3,1170.6z"/>
	</g>
	<g>
		<path class="st0" d="M240.3,973c0,24.9-22.3,45-49.9,45c-27.5,0-49.9-20.1-49.9-45c0-7.8,2.2-15.2,6.1-21.6l1.8,0.1
			c0.6,0,1.2,0.1,1.8,0.1c11,0,18.3-5.5,21.6-8.8c6.4,5.2,5.2,9.1,5,9.6l-4.8,7.8l8.7-3.7c7.8-3.3,11.7-8.2,13.5-11.6
			c4.6,3.5,6.2,8.9,6.2,9l1.1,4l3.5-2.3c4.8-3.2,7.2-7,8.4-9.9c9,5.9,19.4,8,19.9,8.1l2.5,0.5C238.7,960,240.3,966.3,240.3,973z"/>
		<path class="st0" d="M233.9,950.8C233.9,950.8,233.9,950.8,233.9,950.8c-0.4-0.1-13.3-2.7-22.2-10.3c0,0-0.1,6.9-8.3,12.5
			c0,0-2.5-8.8-10.6-12.5c0,0-1.9,8.4-13.2,13.2c0.2-0.3,3.4-7.1-8.1-15c0,0-7.9,10.6-22.8,9.8c0,0,0,0,0.1-0.1c0,0,0,0,0.1-0.1
			c1.1-1.7,12.4-18.1,34.7-20.1c0,0-0.3,0.5-0.3,0.6c-0.2,0.3-0.2,0.7-0.2,1.1c0,2.1,2.6,3.9,5.9,3.9c3.2,0,5.9-1.7,5.9-3.9
			c0-0.6-0.2-1.1-0.5-1.6c19.2,1.7,30.5,11.2,35.9,17.4c0.3,0.3,0.5,0.6,0.7,0.8c0.1,0.2,0.3,0.3,0.4,0.5
			C233,949.2,233.9,950.8,233.9,950.8z"/>
		<path class="st0" d="M188.1,902.9h1.9c0.5,0,0.9,0.6,0.7,1.1c-0.8,1.9-1.7,4.2-2.2,7c-1.5,8.4,0.8,15.4,2.2,18.8
			c0.2,0.5-0.1,1-0.6,1h-2c-0.4,0-0.8-0.3-1-0.7c-1.4-3.5-3.9-11-2.2-19.7c0.5-2.7,1.3-5,2.2-6.8
			C187.4,903.1,187.7,902.9,188.1,902.9z"/>
	</g>
	<path class="st0" d="M500.8,902.9c-24.5,0-44.3,38.1-44.3,69.9c0,31.8,19.8,45.2,44.3,45.2c24.5,0,44.3-13.4,44.3-45.2
		C545.1,941,525.2,902.9,500.8,902.9z M476.4,938.6c-3.8,8.5-4.8,16.2-5,21.4c0,1.2-1.2,2-2.3,1.6c-0.4-0.1-0.8-0.3-1.2-0.4
		c-0.7-0.3-1.1-0.9-1.1-1.6c0.1-5.3,0.9-13.8,5-23.3c3.9-8.9,9.1-15,12.8-18.6c0.5-0.5,1.3-0.6,1.9-0.3c0.6,0.3,1.2,0.6,1.8,0.8
		c1.1,0.5,1.4,2,0.5,2.8C485.1,924.5,480.1,930.3,476.4,938.6z"/>
	<g>
		<path class="st0" d="M526.1,1185v16.8h-50.7V1185c0-7.9,6.4-14.3,14.3-14.3h22C519.7,1170.6,526.1,1177.1,526.1,1185z"/>
		<path class="st0" d="M475.5,1206.1h50.7v40.6c0,7.9-6.4,14.3-14.3,14.3h-22c-7.9,0-14.3-6.4-14.3-14.3V1206.1z"/>
		<path class="st0" d="M500.8,1285.7L500.8,1285.7c3,0,5.5-2.4,5.5-5.5v-15.8h-10.9v15.8C495.3,1283.3,497.8,1285.7,500.8,1285.7z"
			/>
	</g>
	<g>
		<polygon class="st0" points="810,1286.1 783.7,1209.7 838.6,1209.7 		"/>
		<path class="st0" d="M838.6,1188v18h-54.9v-18c0-9.8,7.9-17.7,17.7-17.7h19.5C830.7,1170.3,838.6,1178.2,838.6,1188z"/>
	</g>
	<g>
		<path class="st0" d="M171.7,448l-31.7-31.7c-11.4-11.4-11.4-29.9,0-41.3l0,0c11.4-11.4,29.9-11.4,41.3,0l31.7,31.7
			c7.9,7.9,7.9,20.8,0,28.8L200.5,448C192.6,455.9,179.7,455.9,171.7,448z"/>
		<path class="st0" d="M249.1,461.9l0.2-5.5c0.1-3.8-3-6.9-6.8-6.8l-10.1,0.4c-3.8,0.1-7.4-1.3-10.1-4l-7.4-7.4L204.5,449l7.4,7.4
			c2.7,2.7,4.1,6.3,4,10.1l-0.4,10.1c-0.1,3.8,3,6.9,6.8,6.8l5.5-0.2c3.4-0.1,6.1-2.9,6.3-6.3l0.1-2.8c0.1-3.2,2.7-5.7,5.8-5.8
			l2.8-0.1C246.3,468,249,465.3,249.1,461.9z"/>
	</g>
	<g>
		<path class="st0" d="M520.8,424.3c-6.8-8-25.7-16.6-31.7-10.5c-6.1,6.1,2.6,24.9,10.5,31.7c8,6.8,30.9,24.4,38.2,17
			C545.2,455.1,527.6,432.3,520.8,424.3z M489.9,422.5c-0.8-0.8-0.8-2.2,0-3c0.8-0.8,2.2-0.8,3,0c0.8,0.8,0.8,2.2,0,3
			C492.1,423.3,490.7,423.3,489.9,422.5z M494.8,417.6c-0.8-0.8-0.8-2.2,0-3c0.8-0.8,2.2-0.8,3,0c0.8,0.8,0.8,2.2,0,3
			C496.9,418.5,495.6,418.5,494.8,417.6z"/>
		<g>
			<g>
				<path class="st0" d="M494.3,408c-1.9,0.1-3.7,0.5-5.3,1.3c0,0,0-0.1,0-0.1c0.8-3-5-7-5-7C490.1,401.4,493.1,405.4,494.3,408z"/>
			</g>
			<path class="st0" d="M483.2,419.3c-2.8-1.5-7.2-4.8-5.9-10.5c0,0,4,5.8,7,5c0,0,0.1,0,0.1,0C483.7,415.4,483.3,417.3,483.2,419.3
				z"/>
		</g>
		<path class="st0" d="M513,403.3c-11.7,11.7-16.3-6.5-27.9-19.8c-3.9-5.3-15.1-8.8-15.1-8.8s15.7-18.6,39.3,5
			C516.9,387.3,518.5,397.8,513,403.3z"/>
		<path class="st0" d="M491.1,396.5c-4.4,0.3-12.8-1.2-19.7-14c0,0,6.9,4.4,12.4,3.8C486.6,389.6,489,393.3,491.1,396.5z"/>
		<path class="st0" d="M478.8,437.5c11.7-11.7-6.5-16.3-19.8-27.9c-5.3-3.9-8.8-15.1-8.8-15.1s-18.6,15.7,5,39.3
			C462.8,441.4,473.3,443,478.8,437.5z"/>
		<path class="st0" d="M472,415.6c-3.2-2.1-6.9-4.5-10.2-7.3c0.6-5.4-3.8-12.4-3.8-12.4C470.9,402.8,472.3,411.2,472,415.6z"/>
		<path class="st0" d="M548.5,477.1c-3.2,1.7-5.3,0.3-6.6-1.3c1,2.2,1.6,5.1-1.2,6.1c-4.7,1.7-7.1-9.6-8.6-13.7c0-0.1,0-0.2-0.1-0.2
			c3.3,0.2,6.2-0.6,8.4-2.8c2.5-2.5,3.2-5.9,2.7-9.8c3.3-0.5,8-0.9,11.3,0.1c5.5,1.6,5.8,10.3-3.5,6.2c0.6,0.3,8.9,4.2,5,8.1
			c-2.8,2.8-6.7,0.6-8.8-1C549.2,470.8,552.7,474.9,548.5,477.1z"/>
		<path class="st0" d="M549.6,437.2c-4,3.9-8,5.1-11.2,5.4c-0.5-1-1.1-2-1.7-3c2.7,0.1,6.7-0.7,10.8-4.6L549.6,437.2z"/>
		<path class="st0" d="M534.3,435.9c-0.6-0.9-1.2-1.7-1.7-2.5c2.5-2,5.9-5.1,8-8.7l2.7,1.5C540.8,430.3,537,433.8,534.3,435.9z"/>
		<path class="st0" d="M530.4,430.4c-0.6-0.8-1.3-1.7-1.9-2.5c3.2-2.5,8.2-6.8,9.6-11.3l2.9,0.9C539.4,422.9,534,427.7,530.4,430.4z
			"/>
		<path class="st0" d="M525.9,424.6c-0.7-0.9-1.4-1.7-2-2.4c3.6-2.7,9.3-8,10.8-15.4l3,0.6C536,415.8,529.9,421.6,525.9,424.6z"/>
		<path class="st0" d="M513,473.7l-2.2-2.1c3.5-3.7,4.5-7.3,4.6-9.9c1,0.6,1.9,1.1,2.9,1.6C517.9,466.4,516.5,470,513,473.7z"/>
		<path class="st0" d="M502,467.4l-1.5-2.7c3.3-1.9,6.3-4.9,8.2-7.3c0.8,0.6,1.7,1.2,2.5,1.7C509.1,461.7,505.9,465.2,502,467.4z"/>
		<path class="st0" d="M493.4,465.2l-0.9-2.9c4.2-1.3,8.3-5.7,10.8-9c0.8,0.6,1.6,1.2,2.4,1.9C503,458.7,498.4,463.7,493.4,465.2z"
			/>
		<path class="st0" d="M483.2,461.9l-0.6-3c7.1-1.4,12.2-6.5,15-10.1c0.7,0.6,1.5,1.3,2.4,2C496.8,454.7,491.2,460.2,483.2,461.9z"
			/>
	</g>
	<g>
		<path class="st0" d="M858,412.7c-0.9-0.6-2.8-1.8-2.3-4.9c0.6-3.9,4.6-4.6,7.3-5.1c-9.3-17.1-29.1-28.9-51.9-28.9
			c-28.4,0-52,18.2-56.8,42.2c2.6,0.8,5.5,2.5,6.3,5.6c0.6,2.4,0.1,3.9-0.3,5c-0.3,0.9-0.5,1.3,0.2,2.7c0.2,0.4,0.3,0.5,0.3,0.5
			c0.2,0.1,0.9-0.1,1.4-0.1c1.4-0.3,4.1-0.7,5.9,1.8c1.7,2.4,0.8,5,0.2,6.8c-0.6,1.8-0.8,2.6-0.3,3.2c0.5,0.6,1.2,0.6,3.3,0.3
			c2.1-0.3,4.7-0.6,6.9,1.2c1.8,1.5,2.4,3.3,2.8,4.8c0.5,1.7,0.8,2.6,2.7,3.4c1.4,0.6,2.2,0.1,4.3-1.3c2-1.4,4.4-3.1,8-2.4
			c2.8,0.6,4.5,2.1,5.9,3.4c1.7,1.6,2.9,2.6,6.2,2.2c2.9-0.4,3.9-1.9,5.1-3.8c1.1-1.8,2.7-4.3,6.3-4.2c1.9,0.1,4.2,0.8,6.6,1.6
			c4,1.3,8.5,2.7,10.3,0.8c1.3-1.4,1.2-1.7,0.9-2.6c-0.4-1.3-1.1-3.4,1.4-6.2c2-2.2,5.2-3,8.3-3.7c3.6-0.9,6.1-1.5,6.4-3.2
			c0.4-1.9,0-2.4-0.7-3.3c-0.9-1.2-2.1-2.9-1-6.3c1-2.9,2.9-4.1,4.4-5c1.4-0.8,2-1.3,2.3-2.9C858.8,413.2,858.7,413.1,858,412.7z
			 M812.8,388.2l6.4-9.2c0.6-0.8,1.7-1,2.5-0.4c0.8,0.6,1,1.7,0.5,2.5l-6.4,9.2c-0.3,0.5-0.9,0.8-1.5,0.8c-0.4,0-0.7-0.1-1-0.3
			C812.4,390.1,812.2,389,812.8,388.2z M799.8,390.9c0.6-0.8,1.7-0.9,2.5-0.3l8.7,6.8c0.8,0.6,0.9,1.7,0.3,2.5
			c-0.3,0.4-0.9,0.7-1.4,0.7c-0.4,0-0.8-0.1-1.1-0.4l-8.7-6.8C799.3,392.8,799.2,391.7,799.8,390.9z M783,389.3l5.2-7.6
			c0.6-0.8,1.7-1,2.5-0.5c0.8,0.6,1,1.7,0.5,2.5l-5.2,7.6c-0.3,0.5-0.9,0.8-1.5,0.8c-0.3,0-0.7-0.1-1-0.3
			C782.6,391.2,782.4,390.1,783,389.3z M764.2,401.3c-0.7-0.6-0.8-1.8-0.2-2.5c0.6-0.7,1.8-0.8,2.5-0.2l8,6.9
			c0.7,0.6,0.8,1.8,0.2,2.5c-0.4,0.4-0.9,0.6-1.4,0.6c-0.4,0-0.8-0.1-1.2-0.4L764.2,401.3z M781.9,434.6l-8.4,3.6
			c-0.2,0.1-0.5,0.1-0.7,0.1c-0.7,0-1.4-0.4-1.6-1.1c-0.4-0.9,0-1.9,0.9-2.3l8.4-3.6c0.9-0.4,1.9,0,2.3,1
			C783.2,433.2,782.8,434.2,781.9,434.6z M784.1,423.7c-0.3,0.6-0.9,1-1.6,1c-0.3,0-0.5-0.1-0.8-0.2l-10.8-5.5
			c-0.9-0.4-1.2-1.5-0.8-2.4s1.5-1.2,2.4-0.8l10.8,5.5C784.2,421.7,784.5,422.8,784.1,423.7z M780.6,399.8c-0.9-0.3-1.4-1.3-1.1-2.2
			c0.3-0.9,1.3-1.4,2.2-1.1l11.1,3.7c0.9,0.3,1.4,1.3,1.1,2.2c-0.2,0.7-0.9,1.2-1.7,1.2c-0.2,0-0.4,0-0.6-0.1L780.6,399.8z
			 M805.7,443.9c-0.3,0.4-0.9,0.6-1.4,0.6c-0.4,0-0.8-0.1-1.1-0.4l-8.7-7.1c-0.8-0.6-0.9-1.7-0.3-2.5c0.6-0.8,1.7-0.9,2.5-0.3
			l8.7,7.1C806.2,442,806.3,443.1,805.7,443.9z M809.9,430.6c-9.7,0-17.6-5.1-17.6-11.3s7.9-11.3,17.6-11.3s17.6,5.1,17.6,11.3
			S819.6,430.6,809.9,430.6z M832.2,431.5l-5.5,9.6c-0.3,0.6-0.9,0.9-1.5,0.9c-0.3,0-0.6-0.1-0.9-0.2c-0.8-0.5-1.1-1.6-0.6-2.4
			l5.5-9.6c0.5-0.8,1.6-1.1,2.4-0.6C832.4,429.6,832.7,430.7,832.2,431.5z M836.7,402.6l-11,3.4c-0.2,0.1-0.3,0.1-0.5,0.1
			c-0.8,0-1.5-0.5-1.7-1.3c-0.3-0.9,0.2-1.9,1.2-2.2l11-3.4c0.9-0.3,1.9,0.2,2.2,1.2C838.2,401.3,837.6,402.3,836.7,402.6z
			 M837.4,387.7l-8.7,8.3c-0.3,0.3-0.8,0.5-1.2,0.5c-0.5,0-0.9-0.2-1.3-0.6c-0.7-0.7-0.6-1.8,0.1-2.5l8.8-8.3
			c0.7-0.7,1.8-0.6,2.5,0.1C838.1,385.9,838.1,387,837.4,387.7z M843,427.3c0,1-0.8,1.8-1.8,1.8c-1,0-1.8-0.8-1.8-1.8v-11.6
			c0-1,0.8-1.8,1.8-1.8c1,0,1.8,0.8,1.8,1.8V427.3z M845.1,409.5c-0.3,0.1-0.5,0.2-0.8,0.2c-0.6,0-1.3-0.3-1.6-1
			c-0.5-0.9-0.1-1.9,0.8-2.4l10.2-5.3c0.9-0.5,1.9-0.1,2.4,0.7c0.5,0.9,0.1,1.9-0.8,2.4L845.1,409.5z"/>
		<path class="st0" d="M868.8,424.9c0,28.2-25.8,51.1-57.7,51.1c-31.8,0-57.7-22.9-57.7-51.1c0-1.5,0.1-3,0.2-4.4
			c1.2,0.4,2.4,1.1,2.7,2.2c0.3,1.1,0.1,1.6-0.2,2.4c-0.6,1.6-1,3.3,0.3,6.1c1.7,3.8,5,3.2,6.5,2.9c0.4-0.1,1.2-0.2,1.3-0.1
			c0,0,0,0,0.1,0.1c0.3,0.5,0.1,1.4-0.4,2.9c-0.7,2.1-1.6,4.9,0.5,7.5c2.1,2.6,5.1,2.2,7.3,1.9c1.8-0.2,2.9-0.3,3.6,0.3
			c0.7,0.6,1,1.4,1.4,2.6c0.6,2,1.4,4.7,5.3,6.3c3.8,1.6,6.5-0.4,8.5-1.8c1.8-1.2,2.9-2,4.5-1.7c1.7,0.3,2.6,1.2,3.8,2.3
			c1.7,1.5,3.8,3.4,7.8,3.4c0.6,0,1.3,0,2-0.1c5-0.7,7-3.8,8.3-5.9c1.1-1.9,1.5-2.1,2.3-2.1c1.4,0.1,3.4,0.7,5.5,1.4
			c5,1.6,11.2,3.6,14.9-0.4c2.8-3,2.4-5.2,1.9-7c-0.3-0.9-0.3-1,0.5-2c1-1.2,3.6-1.7,6-2.3c3.9-0.9,8.8-2.1,9.7-6.6
			c0.7-3.8-0.6-5.6-1.5-6.8c-0.7-0.9-0.8-1.1-0.4-2.2c0.5-1.4,1.3-1.9,2.5-2.6c1.6-1,3.7-2.3,4.4-5.9c0.7-4.1-1.4-5.5-2.5-6.3
			c-0.1-0.1-0.3-0.2-0.4-0.3c0-0.1,0-0.1,0-0.3c0.1-0.8,2.3-1.1,3.9-1.4c0.4-0.1,0.7-0.1,1.1-0.2
			C867.5,412.5,868.8,418.6,868.8,424.9z"/>
	</g>
	<g>
		<circle class="st0" cx="167.7" cy="729.5" r="21.1"/>
		<circle class="st0" cx="213.2" cy="716.4" r="21.1"/>
		<path class="st0" d="M206.7,692.9c-1.7,0.5-3.3,1.1-4.8,1.9c-7.1-15-8.1-28.3-8-36c-12.6,13.4-19.4,35.6-22.2,46.7
			c-1.3-0.2-2.7-0.3-4.1-0.3c-0.4,0-0.8,0-1.2,0c3-12.5,11.5-41,29-54.8l2-1.6c1.2-0.9,2.9,0.1,2.6,1.6l-0.4,2.5
			C199.5,653,196.5,671.4,206.7,692.9z"/>
		<path class="st0" d="M165.2,642.3c0,0,16.3,4.1,28.7,5.6c-4.9,4.2-12.5,6.2-20.6,4.7c-8.3-1.5-14.9-6.3-17.9-12.2
			c4.8-4.5,12.7-6.6,21.1-5.1c8,1.5,14.4,5.9,17.5,11.5C188.1,645.2,177.9,642.9,165.2,642.3z"/>
	</g>
	<g>
		<path class="st0" d="M566.2,671.8c-22,3.4-22.6,17.4-22.6,17.4c-4.5,1.9-11.8,1-11.8,1c-60.9-47.1-96.4,6.7-96.4,6.7l7.8,5.4
			l-7.8,3c54.7,32.1,94.1-4,99.8-7c5.7-3,8.6-1.5,8.6-1.5c3.8,15,21.3,11.4,21.3,11.4C541.5,692.8,566.2,671.8,566.2,671.8z
			 M447.7,696.6c-1.8,0-3.2-1.4-3.2-3.2c0-1.8,1.4-3.2,3.2-3.2c1.8,0,3.2,1.4,3.2,3.2C451,695.2,449.5,696.6,447.7,696.6z"/>
		<path class="st0" d="M481.8,667.6c-7.1,0.2-13.5,1.7-19.1,3.9c-0.2-3.6,0.7-13.7,15.4-17.6C478.1,653.9,474,663.5,481.8,667.6z"/>
		<path class="st0" d="M476.3,731.5c-12-2.5-14.4-9-14.8-11.8c3.8,0.9,7.7,1.5,11.5,1.9C470.7,725,476.3,731.5,476.3,731.5z"/>
		<path class="st0" d="M506.8,724.9c-4.9-1-8.2-2.7-10.5-4.6c2.4-0.5,4.7-1.1,6.9-1.7C504.1,721.7,506.8,724.9,506.8,724.9z"/>
	</g>
	<g>
		<path class="st0" d="M787.6,1012.1h47.1c2.1,0,3.8,1.7,3.8,3.8l0,0c0,1.1-0.9,2.1-2.1,2.1h-50.6c-1.1,0-2.1-0.9-2.1-2.1l0,0
			C783.8,1013.8,785.5,1012.1,787.6,1012.1z"/>
		<path class="st0" d="M814.8,980.3v28.4h-7.4v-28.4c1.2,0.2,2.4,0.3,3.6,0.3C812.2,980.7,813.5,980.6,814.8,980.3z"/>
		<path class="st0" d="M837.5,922h-53.1c0.9-7.1,2.9-13.7,5.5-19.1h42C834.6,908.4,836.5,914.9,837.5,922z"/>
		<path class="st0" d="M838.1,931.8c0,25.2-12.2,45.6-27.2,45.6c-15,0-27.2-20.4-27.2-45.6c0-2.2,0.1-4.3,0.3-6.4h53.8
			C838,927.5,838.1,929.6,838.1,931.8z"/>
	</g>
	<g>
		<g>
			<path class="st0" d="M773,728.1v-89.4l63.2,63.2C819.7,717.7,797.5,727.6,773,728.1z M785.2,665c-2.6,0-4.7,2.1-4.7,4.7
				c0,2.6,2.1,4.7,4.7,4.7c2.6,0,4.7-2.1,4.7-4.7C789.9,667.1,787.8,665,785.2,665z M785.2,687.1c-2.6,0-4.7,2.1-4.7,4.7
				c0,2.6,2.1,4.7,4.7,4.7c2.6,0,4.7-2.1,4.7-4.7C789.9,689.2,787.8,687.1,785.2,687.1z M785.2,709c-2.6,0-4.7,2.1-4.7,4.7
				c0,2.6,2.1,4.7,4.7,4.7c2.6,0,4.7-2.1,4.7-4.7C789.9,711.1,787.8,709,785.2,709z M801.2,679.5c-2.6,0-4.7,2.1-4.7,4.7
				c0,2.6,2.1,4.7,4.7,4.7c2.6,0,4.7-2.1,4.7-4.7C805.9,681.6,803.8,679.5,801.2,679.5z M801.7,702.9c-2.6,0-4.7,2.1-4.7,4.7
				c0,2.6,2.1,4.7,4.7,4.7c2.6,0,4.7-2.1,4.7-4.7C806.4,705,804.3,702.9,801.7,702.9z M816.9,692.8c-2.6,0-4.7,2.1-4.7,4.7
				c0,2.6,2.1,4.7,4.7,4.7c2.6,0,4.7-2.1,4.7-4.7C821.6,694.9,819.5,692.8,816.9,692.8z"/>
		</g>
		<path class="st0" d="M849.3,715l-10-10C822,721.6,798.7,732,773,732.5v14.1C802.6,746.1,829.4,734.2,849.3,715z"/>
	</g>
</g>
</svg>
