<?xml version="1.0" encoding="utf-8"?>
<!-- Generator: Adobe Illustrator 22.1.0, SVG Export Plug-In . SVG Version: 6.00 Build 0)  -->
<svg version="1.1" xmlns="http://www.w3.org/2000/svg" xmlns:xlink="http://www.w3.org/1999/xlink" x="0px" y="0px"
	 viewBox="0 0 2000 2000" style="enable-background:new 0 0 2000 2000;" xml:space="preserve">
<style type="text/css">
	.st0{fill:#1B2638;}
	.st1{fill:#FFFFFF;}
</style>
<g id="Layer_3">
	<rect class="st0" width="2000" height="2000"/>
</g>
<g id="Layer_2">
	<path class="st1" d="M170.5,157.5h-92c-5.5,0-10-4.5-10-10v-92c0-5.5,4.5-10,10-10h92c5.5,0,10,4.5,10,10v92
		C180.5,153,176,157.5,170.5,157.5z"/>
	<path class="st1" d="M374.5,157.5h-92c-5.5,0-10-4.5-10-10v-92c0-5.5,4.5-10,10-10h92c5.5,0,10,4.5,10,10v92
		C384.5,153,380,157.5,374.5,157.5z"/>
	<path class="st1" d="M578.5,157.5h-92c-5.5,0-10-4.5-10-10v-92c0-5.5,4.5-10,10-10h92c5.5,0,10,4.5,10,10v92
		C588.5,153,584,157.5,578.5,157.5z"/>
	<path class="st1" d="M782.5,157.5h-92c-5.5,0-10-4.5-10-10v-92c0-5.5,4.5-10,10-10h92c5.5,0,10,4.5,10,10v92
		C792.5,153,788,157.5,782.5,157.5z"/>
	<path class="st1" d="M986.5,157.5h-92c-5.5,0-10-4.5-10-10v-92c0-5.5,4.5-10,10-10h92c5.5,0,10,4.5,10,10v92
		C996.5,153,992,157.5,986.5,157.5z"/>
	<path class="st1" d="M1190.5,157.5h-92c-5.5,0-10-4.5-10-10v-92c0-5.5,4.5-10,10-10h92c5.5,0,10,4.5,10,10v92
		C1200.5,153,1196,157.5,1190.5,157.5z"/>
	<path class="st1" d="M1394.5,157.5h-92c-5.5,0-10-4.5-10-10v-92c0-5.5,4.5-10,10-10h92c5.5,0,10,4.5,10,10v92
		C1404.5,153,1400,157.5,1394.5,157.5z"/>
	<path class="st1" d="M1598.5,157.5h-92c-5.5,0-10-4.5-10-10v-92c0-5.5,4.5-10,10-10h92c5.5,0,10,4.5,10,10v92
		C1608.5,153,1604,157.5,1598.5,157.5z"/>
	<path class="st1" d="M1802.5,157.5h-92c-5.5,0-10-4.5-10-10v-92c0-5.5,4.5-10,10-10h92c5.5,0,10,4.5,10,10v92
		C1812.5,153,1808,157.5,1802.5,157.5z"/>
	<path class="st1" d="M170.5,333.5h-92c-5.5,0-10-4.5-10-10v-92c0-5.5,4.5-10,10-10h92c5.5,0,10,4.5,10,10v92
		C180.5,329,176,333.5,170.5,333.5z"/>
	<path class="st1" d="M374.5,333.5h-92c-5.5,0-10-4.5-10-10v-92c0-5.5,4.5-10,10-10h92c5.5,0,10,4.5,10,10v92
		C384.5,329,380,333.5,374.5,333.5z"/>
	<path class="st1" d="M578.5,333.5h-92c-5.5,0-10-4.5-10-10v-92c0-5.5,4.5-10,10-10h92c5.5,0,10,4.5,10,10v92
		C588.5,329,584,333.5,578.5,333.5z"/>
	<path class="st1" d="M782.5,333.5h-92c-5.5,0-10-4.5-10-10v-92c0-5.5,4.5-10,10-10h92c5.5,0,10,4.5,10,10v92
		C792.5,329,788,333.5,782.5,333.5z"/>
	<path class="st1" d="M986.5,333.5h-92c-5.5,0-10-4.5-10-10v-92c0-5.5,4.5-10,10-10h92c5.5,0,10,4.5,10,10v92
		C996.5,329,992,333.5,986.5,333.5z"/>
	<path class="st1" d="M1190.5,333.5h-92c-5.5,0-10-4.5-10-10v-92c0-5.5,4.5-10,10-10h92c5.5,0,10,4.5,10,10v92
		C1200.5,329,1196,333.5,1190.5,333.5z"/>
	<path class="st1" d="M1394.5,333.5h-92c-5.5,0-10-4.5-10-10v-92c0-5.5,4.5-10,10-10h92c5.5,0,10,4.5,10,10v92
		C1404.5,329,1400,333.5,1394.5,333.5z"/>
	<path class="st1" d="M1598.5,333.5h-92c-5.5,0-10-4.5-10-10v-92c0-5.5,4.5-10,10-10h92c5.5,0,10,4.5,10,10v92
		C1608.5,329,1604,333.5,1598.5,333.5z"/>
	<path class="st1" d="M1802.5,333.5h-92c-5.5,0-10-4.5-10-10v-92c0-5.5,4.5-10,10-10h92c5.5,0,10,4.5,10,10v92
		C1812.5,329,1808,333.5,1802.5,333.5z"/>
	<path class="st1" d="M170.5,509.5h-92c-5.5,0-10-4.5-10-10v-92c0-5.5,4.5-10,10-10h92c5.5,0,10,4.5,10,10v92
		C180.5,505,176,509.5,170.5,509.5z"/>
	<path class="st1" d="M374.5,509.5h-92c-5.5,0-10-4.5-10-10v-92c0-5.5,4.5-10,10-10h92c5.5,0,10,4.5,10,10v92
		C384.5,505,380,509.5,374.5,509.5z"/>
	<path class="st1" d="M578.5,509.5h-92c-5.5,0-10-4.5-10-10v-92c0-5.5,4.5-10,10-10h92c5.5,0,10,4.5,10,10v92
		C588.5,505,584,509.5,578.5,509.5z"/>
	<path class="st1" d="M782.5,509.5h-92c-5.5,0-10-4.5-10-10v-92c0-5.5,4.5-10,10-10h92c5.5,0,10,4.5,10,10v92
		C792.5,505,788,509.5,782.5,509.5z"/>
	<path class="st1" d="M986.5,509.5h-92c-5.5,0-10-4.5-10-10v-92c0-5.5,4.5-10,10-10h92c5.5,0,10,4.5,10,10v92
		C996.5,505,992,509.5,986.5,509.5z"/>
	<path class="st1" d="M1190.5,509.5h-92c-5.5,0-10-4.5-10-10v-92c0-5.5,4.5-10,10-10h92c5.5,0,10,4.5,10,10v92
		C1200.5,505,1196,509.5,1190.5,509.5z"/>
	<path class="st1" d="M1394.5,509.5h-92c-5.5,0-10-4.5-10-10v-92c0-5.5,4.5-10,10-10h92c5.5,0,10,4.5,10,10v92
		C1404.5,505,1400,509.5,1394.5,509.5z"/>
	<path class="st1" d="M1598.5,509.5h-92c-5.5,0-10-4.5-10-10v-92c0-5.5,4.5-10,10-10h92c5.5,0,10,4.5,10,10v92
		C1608.5,505,1604,509.5,1598.5,509.5z"/>
	<path class="st1" d="M1598.5,1213.5h-92c-5.5,0-10-4.5-10-10v-92c0-5.5,4.5-10,10-10h92c5.5,0,10,4.5,10,10v92
		C1608.5,1209,1604,1213.5,1598.5,1213.5z"/>
	<path class="st1" d="M170.5,685.5h-92c-5.5,0-10-4.5-10-10v-92c0-5.5,4.5-10,10-10h92c5.5,0,10,4.5,10,10v92
		C180.5,681,176,685.5,170.5,685.5z"/>
	<path class="st1" d="M374.5,685.5h-92c-5.5,0-10-4.5-10-10v-92c0-5.5,4.5-10,10-10h92c5.5,0,10,4.5,10,10v92
		C384.5,681,380,685.5,374.5,685.5z"/>
	<path class="st1" d="M578.5,685.5h-92c-5.5,0-10-4.5-10-10v-92c0-5.5,4.5-10,10-10h92c5.5,0,10,4.5,10,10v92
		C588.5,681,584,685.5,578.5,685.5z"/>
	<path class="st1" d="M782.5,685.5h-92c-5.5,0-10-4.5-10-10v-92c0-5.5,4.5-10,10-10h92c5.5,0,10,4.5,10,10v92
		C792.5,681,788,685.5,782.5,685.5z"/>
	<path class="st1" d="M986.5,685.5h-92c-5.5,0-10-4.5-10-10v-92c0-5.5,4.5-10,10-10h92c5.5,0,10,4.5,10,10v92
		C996.5,681,992,685.5,986.5,685.5z"/>
	<path class="st1" d="M1190.5,685.5h-92c-5.5,0-10-4.5-10-10v-92c0-5.5,4.5-10,10-10h92c5.5,0,10,4.5,10,10v92
		C1200.5,681,1196,685.5,1190.5,685.5z"/>
	<path class="st1" d="M1394.5,685.5h-92c-5.5,0-10-4.5-10-10v-92c0-5.5,4.5-10,10-10h92c5.5,0,10,4.5,10,10v92
		C1404.5,681,1400,685.5,1394.5,685.5z"/>
	<path class="st1" d="M1598.5,685.5h-92c-5.5,0-10-4.5-10-10v-92c0-5.5,4.5-10,10-10h92c5.5,0,10,4.5,10,10v92
		C1608.5,681,1604,685.5,1598.5,685.5z"/>
	<path class="st1" d="M1802.5,685.5h-92c-5.5,0-10-4.5-10-10v-92c0-5.5,4.5-10,10-10h92c5.5,0,10,4.5,10,10v92
		C1812.5,681,1808,685.5,1802.5,685.5z"/>
	<path class="st1" d="M170.5,861.5h-92c-5.5,0-10-4.5-10-10v-92c0-5.5,4.5-10,10-10h92c5.5,0,10,4.5,10,10v92
		C180.5,857,176,861.5,170.5,861.5z"/>
	<path class="st1" d="M170.5,1037.5h-92c-5.5,0-10-4.5-10-10v-92c0-5.5,4.5-10,10-10h92c5.5,0,10,4.5,10,10v92
		C180.5,1033,176,1037.5,170.5,1037.5z"/>
	<path class="st1" d="M374.5,1037.5h-92c-5.5,0-10-4.5-10-10v-92c0-5.5,4.5-10,10-10h92c5.5,0,10,4.5,10,10v92
		C384.5,1033,380,1037.5,374.5,1037.5z"/>
	<path class="st1" d="M578.5,1037.5h-92c-5.5,0-10-4.5-10-10v-92c0-5.5,4.5-10,10-10h92c5.5,0,10,4.5,10,10v92
		C588.5,1033,584,1037.5,578.5,1037.5z"/>
	<path class="st1" d="M782.5,1037.5h-92c-5.5,0-10-4.5-10-10v-92c0-5.5,4.5-10,10-10h92c5.5,0,10,4.5,10,10v92
		C792.5,1033,788,1037.5,782.5,1037.5z"/>
	<path class="st1" d="M986.5,1037.5h-92c-5.5,0-10-4.5-10-10v-92c0-5.5,4.5-10,10-10h92c5.5,0,10,4.5,10,10v92
		C996.5,1033,992,1037.5,986.5,1037.5z"/>
	<path class="st1" d="M1190.5,1037.5h-92c-5.5,0-10-4.5-10-10v-92c0-5.5,4.5-10,10-10h92c5.5,0,10,4.5,10,10v92
		C1200.5,1033,1196,1037.5,1190.5,1037.5z"/>
	<path class="st1" d="M1394.5,1037.5h-92c-5.5,0-10-4.5-10-10v-92c0-5.5,4.5-10,10-10h92c5.5,0,10,4.5,10,10v92
		C1404.5,1033,1400,1037.5,1394.5,1037.5z"/>
	<path class="st1" d="M1598.5,1037.5h-92c-5.5,0-10-4.5-10-10v-92c0-5.5,4.5-10,10-10h92c5.5,0,10,4.5,10,10v92
		C1608.5,1033,1604,1037.5,1598.5,1037.5z"/>
	<path class="st1" d="M1802.5,1037.5h-92c-5.5,0-10-4.5-10-10v-92c0-5.5,4.5-10,10-10h92c5.5,0,10,4.5,10,10v92
		C1812.5,1033,1808,1037.5,1802.5,1037.5z"/>
	<path class="st1" d="M170.5,1213.5h-92c-5.5,0-10-4.5-10-10v-92c0-5.5,4.5-10,10-10h92c5.5,0,10,4.5,10,10v92
		C180.5,1209,176,1213.5,170.5,1213.5z"/>
	<path class="st1" d="M374.5,1213.5h-92c-5.5,0-10-4.5-10-10v-92c0-5.5,4.5-10,10-10h92c5.5,0,10,4.5,10,10v92
		C384.5,1209,380,1213.5,374.5,1213.5z"/>
	<path class="st1" d="M578.5,1213.5h-92c-5.5,0-10-4.5-10-10v-92c0-5.5,4.5-10,10-10h92c5.5,0,10,4.5,10,10v92
		C588.5,1209,584,1213.5,578.5,1213.5z"/>
	<path class="st1" d="M782.5,1213.5h-92c-5.5,0-10-4.5-10-10v-92c0-5.5,4.5-10,10-10h92c5.5,0,10,4.5,10,10v92
		C792.5,1209,788,1213.5,782.5,1213.5z"/>
	<path class="st1" d="M986.5,1213.5h-92c-5.5,0-10-4.5-10-10v-92c0-5.5,4.5-10,10-10h92c5.5,0,10,4.5,10,10v92
		C996.5,1209,992,1213.5,986.5,1213.5z"/>
	<path class="st1" d="M1190.5,1213.5h-92c-5.5,0-10-4.5-10-10v-92c0-5.5,4.5-10,10-10h92c5.5,0,10,4.5,10,10v92
		C1200.5,1209,1196,1213.5,1190.5,1213.5z"/>
	<path class="st1" d="M1394.5,1213.5h-92c-5.5,0-10-4.5-10-10v-92c0-5.5,4.5-10,10-10h92c5.5,0,10,4.5,10,10v92
		C1404.5,1209,1400,1213.5,1394.5,1213.5z"/>
	<path class="st1" d="M1598.5,1213.5h-92c-5.5,0-10-4.5-10-10v-92c0-5.5,4.5-10,10-10h92c5.5,0,10,4.5,10,10v92
		C1608.5,1209,1604,1213.5,1598.5,1213.5z"/>
	<path class="st1" d="M1802.5,1213.5h-92c-5.5,0-10-4.5-10-10v-92c0-5.5,4.5-10,10-10h92c5.5,0,10,4.5,10,10v92
		C1812.5,1209,1808,1213.5,1802.5,1213.5z"/>
	<path class="st1" d="M170.5,1389.5h-92c-5.5,0-10-4.5-10-10v-92c0-5.5,4.5-10,10-10h92c5.5,0,10,4.5,10,10v92
		C180.5,1385,176,1389.5,170.5,1389.5z"/>
	<path class="st1" d="M374.5,1389.5h-92c-5.5,0-10-4.5-10-10v-92c0-5.5,4.5-10,10-10h92c5.5,0,10,4.5,10,10v92
		C384.5,1385,380,1389.5,374.5,1389.5z"/>
	<path class="st1" d="M578.5,1389.5h-92c-5.5,0-10-4.5-10-10v-92c0-5.5,4.5-10,10-10h92c5.5,0,10,4.5,10,10v92
		C588.5,1385,584,1389.5,578.5,1389.5z"/>
	<path class="st1" d="M782.5,1389.5h-92c-5.5,0-10-4.5-10-10v-92c0-5.5,4.5-10,10-10h92c5.5,0,10,4.5,10,10v92
		C792.5,1385,788,1389.5,782.5,1389.5z"/>
	<path class="st1" d="M986.5,1389.5h-92c-5.5,0-10-4.5-10-10v-92c0-5.5,4.5-10,10-10h92c5.5,0,10,4.5,10,10v92
		C996.5,1385,992,1389.5,986.5,1389.5z"/>
	<path class="st1" d="M1190.5,1389.5h-92c-5.5,0-10-4.5-10-10v-92c0-5.5,4.5-10,10-10h92c5.5,0,10,4.5,10,10v92
		C1200.5,1385,1196,1389.5,1190.5,1389.5z"/>
	<path class="st1" d="M1394.5,1389.5h-92c-5.5,0-10-4.5-10-10v-92c0-5.5,4.5-10,10-10h92c5.5,0,10,4.5,10,10v92
		C1404.5,1385,1400,1389.5,1394.5,1389.5z"/>
	<path class="st1" d="M1598.5,1389.5h-92c-5.5,0-10-4.5-10-10v-92c0-5.5,4.5-10,10-10h92c5.5,0,10,4.5,10,10v92
		C1608.5,1385,1604,1389.5,1598.5,1389.5z"/>
	<path class="st1" d="M1802.5,1389.5h-92c-5.5,0-10-4.5-10-10v-92c0-5.5,4.5-10,10-10h92c5.5,0,10,4.5,10,10v92
		C1812.5,1385,1808,1389.5,1802.5,1389.5z"/>
	<path class="st1" d="M170.5,1565.5h-92c-5.5,0-10-4.5-10-10v-92c0-5.5,4.5-10,10-10h92c5.5,0,10,4.5,10,10v92
		C180.5,1561,176,1565.5,170.5,1565.5z"/>
	<path class="st1" d="M374.5,1565.5h-92c-5.5,0-10-4.5-10-10v-92c0-5.5,4.5-10,10-10h92c5.5,0,10,4.5,10,10v92
		C384.5,1561,380,1565.5,374.5,1565.5z"/>
	<path class="st1" d="M578.5,1565.5h-92c-5.5,0-10-4.5-10-10v-92c0-5.5,4.5-10,10-10h92c5.5,0,10,4.5,10,10v92
		C588.5,1561,584,1565.5,578.5,1565.5z"/>
	<path class="st1" d="M782.5,1565.5h-92c-5.5,0-10-4.5-10-10v-92c0-5.5,4.5-10,10-10h92c5.5,0,10,4.5,10,10v92
		C792.5,1561,788,1565.5,782.5,1565.5z"/>
	<path class="st1" d="M986.5,1565.5h-92c-5.5,0-10-4.5-10-10v-92c0-5.5,4.5-10,10-10h92c5.5,0,10,4.5,10,10v92
		C996.5,1561,992,1565.5,986.5,1565.5z"/>
	<path class="st1" d="M1190.5,1565.5h-92c-5.5,0-10-4.5-10-10v-92c0-5.5,4.5-10,10-10h92c5.5,0,10,4.5,10,10v92
		C1200.5,1561,1196,1565.5,1190.5,1565.5z"/>
	<path class="st1" d="M1394.5,1565.5h-92c-5.5,0-10-4.5-10-10v-92c0-5.5,4.5-10,10-10h92c5.5,0,10,4.5,10,10v92
		C1404.5,1561,1400,1565.5,1394.5,1565.5z"/>
	<path class="st1" d="M1598.5,1565.5h-92c-5.5,0-10-4.5-10-10v-92c0-5.5,4.5-10,10-10h92c5.5,0,10,4.5,10,10v92
		C1608.5,1561,1604,1565.5,1598.5,1565.5z"/>
	<path class="st1" d="M1802.5,1565.5h-92c-5.5,0-10-4.5-10-10v-92c0-5.5,4.5-10,10-10h92c5.5,0,10,4.5,10,10v92
		C1812.5,1561,1808,1565.5,1802.5,1565.5z"/>
	<path class="st1" d="M170.5,1741.5h-92c-5.5,0-10-4.5-10-10v-92c0-5.5,4.5-10,10-10h92c5.5,0,10,4.5,10,10v92
		C180.5,1737,176,1741.5,170.5,1741.5z"/>
	<path class="st1" d="M374.5,1741.5h-92c-5.5,0-10-4.5-10-10v-92c0-5.5,4.5-10,10-10h92c5.5,0,10,4.5,10,10v92
		C384.5,1737,380,1741.5,374.5,1741.5z"/>
	<path class="st1" d="M578.5,1741.5h-92c-5.5,0-10-4.5-10-10v-92c0-5.5,4.5-10,10-10h92c5.5,0,10,4.5,10,10v92
		C588.5,1737,584,1741.5,578.5,1741.5z"/>
	<path class="st1" d="M782.5,1741.5h-92c-5.5,0-10-4.5-10-10v-92c0-5.5,4.5-10,10-10h92c5.5,0,10,4.5,10,10v92
		C792.5,1737,788,1741.5,782.5,1741.5z"/>
	<path class="st1" d="M986.5,1741.5h-92c-5.5,0-10-4.5-10-10v-92c0-5.5,4.5-10,10-10h92c5.5,0,10,4.5,10,10v92
		C996.5,1737,992,1741.5,986.5,1741.5z"/>
	<path class="st1" d="M1190.5,1741.5h-92c-5.5,0-10-4.5-10-10v-92c0-5.5,4.5-10,10-10h92c5.5,0,10,4.5,10,10v92
		C1200.5,1737,1196,1741.5,1190.5,1741.5z"/>
	<path class="st1" d="M1394.5,1741.5h-92c-5.5,0-10-4.5-10-10v-92c0-5.5,4.5-10,10-10h92c5.5,0,10,4.5,10,10v92
		C1404.5,1737,1400,1741.5,1394.5,1741.5z"/>
	<path class="st1" d="M1598.5,1741.5h-92c-5.5,0-10-4.5-10-10v-92c0-5.5,4.5-10,10-10h92c5.5,0,10,4.5,10,10v92
		C1608.5,1737,1604,1741.5,1598.5,1741.5z"/>
	<path class="st1" d="M1802.5,1741.5h-92c-5.5,0-10-4.5-10-10v-92c0-5.5,4.5-10,10-10h92c5.5,0,10,4.5,10,10v92
		C1812.5,1737,1808,1741.5,1802.5,1741.5z"/>
	<path class="st1" d="M170.5,1917.5h-92c-5.5,0-10-4.5-10-10v-92c0-5.5,4.5-10,10-10h92c5.5,0,10,4.5,10,10v92
		C180.5,1913,176,1917.5,170.5,1917.5z"/>
	<path class="st1" d="M374.5,1917.5h-92c-5.5,0-10-4.5-10-10v-92c0-5.5,4.5-10,10-10h92c5.5,0,10,4.5,10,10v92
		C384.5,1913,380,1917.5,374.5,1917.5z"/>
	<path class="st1" d="M578.5,1917.5h-92c-5.5,0-10-4.5-10-10v-92c0-5.5,4.5-10,10-10h92c5.5,0,10,4.5,10,10v92
		C588.5,1913,584,1917.5,578.5,1917.5z"/>
	<path class="st1" d="M782.5,1917.5h-92c-5.5,0-10-4.5-10-10v-92c0-5.5,4.5-10,10-10h92c5.5,0,10,4.5,10,10v92
		C792.5,1913,788,1917.5,782.5,1917.5z"/>
	<path class="st1" d="M986.5,1917.5h-92c-5.5,0-10-4.5-10-10v-92c0-5.5,4.5-10,10-10h92c5.5,0,10,4.5,10,10v92
		C996.5,1913,992,1917.5,986.5,1917.5z"/>
	<path class="st1" d="M1190.5,1917.5h-92c-5.5,0-10-4.5-10-10v-92c0-5.5,4.5-10,10-10h92c5.5,0,10,4.5,10,10v92
		C1200.5,1913,1196,1917.5,1190.5,1917.5z"/>
	<path class="st1" d="M1394.5,1917.5h-92c-5.5,0-10-4.5-10-10v-92c0-5.5,4.5-10,10-10h92c5.5,0,10,4.5,10,10v92
		C1404.5,1913,1400,1917.5,1394.5,1917.5z"/>
	<path class="st1" d="M1598.5,1917.5h-92c-5.5,0-10-4.5-10-10v-92c0-5.5,4.5-10,10-10h92c5.5,0,10,4.5,10,10v92
		C1608.5,1913,1604,1917.5,1598.5,1917.5z"/>
	<path class="st1" d="M1802.5,1917.5h-92c-5.5,0-10-4.5-10-10v-92c0-5.5,4.5-10,10-10h92c5.5,0,10,4.5,10,10v92
		C1812.5,1913,1808,1917.5,1802.5,1917.5z"/>
</g>
<g id="Layer_1">
	<g>
		<path class="st0" d="M117.6,75.7h13.7l10.5,51.6h-10.1l-1.8-10.2v0.1h-11.5l-1.8,10.1h-9.4L117.6,75.7z M128.7,110.2l-4.5-25.5
			H124l-4.4,25.5H128.7z"/>
	</g>
	<g>
		<path class="st0" d="M312.8,75.7h15.3c5.2,0,9,1,11.4,2.9c2.4,1.9,3.6,4.9,3.6,9v2.1c0,2.7-0.5,4.8-1.6,6.5
			c-1.1,1.7-2.7,2.9-4.9,3.6v0.1c5,1.4,7.6,5,7.6,10.8v4.4c0,4-1.3,7-3.9,9.1c-2.6,2.1-6.4,3.1-11.5,3.1h-15.9V75.7z M326.9,96.7
			c2,0,3.5-0.4,4.6-1.3c1-0.8,1.5-2.2,1.5-4.2v-2.9c0-1.9-0.4-3.2-1.2-4.1c-0.8-0.8-2.1-1.3-3.9-1.3H323v13.6H326.9z M328.8,119.9
			c1.8,0,3.1-0.4,4-1.1c0.9-0.8,1.3-2.1,1.3-3.9v-4.5c0-2.4-0.5-4-1.5-4.9c-1-0.9-2.7-1.4-5-1.4H323v15.8H328.8z"/>
	</g>
	<g>
		<path class="st0" d="M521.4,124.7c-2.5-2.2-3.8-5.3-3.8-9.4V87.6c0-4,1.3-7.1,3.8-9.4c2.5-2.2,6.2-3.3,11.1-3.3
			c4.9,0,8.6,1.1,11.1,3.3c2.5,2.2,3.8,5.3,3.8,9.4v5.5h-9.6v-6c0-3.2-1.7-4.8-5.1-4.8c-3.4,0-5.1,1.6-5.1,4.8v28.8
			c0,3.1,1.7,4.7,5.1,4.7c3.4,0,5.1-1.6,5.1-4.7v-7.9h9.6v7.3c0,4-1.3,7.1-3.8,9.4c-2.5,2.2-6.2,3.3-11.1,3.3
			C527.6,128,523.9,126.9,521.4,124.7z"/>
	</g>
	<g>
		<path class="st0" d="M721.2,75.7h15.5c5,0,8.8,1.1,11.3,3.2c2.5,2.2,3.8,5.3,3.8,9.5v26.1c0,4.2-1.3,7.3-3.8,9.5
			c-2.5,2.2-6.3,3.2-11.3,3.2h-15.5V75.7z M736.5,119.9c1.7,0,2.9-0.4,3.8-1.2c0.9-0.8,1.3-2.1,1.3-3.8V88.1c0-1.8-0.4-3-1.3-3.8
			c-0.9-0.8-2.2-1.2-3.8-1.2h-5.2v36.8H736.5z"/>
	</g>
	<g>
		<path class="st0" d="M926.7,75.7h27.6v7.4h-17.5v13.6h13.9v7.4h-13.9v15.8h17.5v7.4h-27.6V75.7z"/>
	</g>
	<g>
		<path class="st0" d="M1131.1,75.7h26.8v7.4h-16.7v14.4h13.1v7.4h-13.1v22.5h-10.1V75.7z"/>
	</g>
	<g>
		<path class="st0" d="M1337.3,124.7c-2.6-2.2-3.9-5.4-3.9-9.6V87.9c0-4.2,1.3-7.4,3.9-9.6c2.6-2.2,6.3-3.4,11.2-3.4
			c4.9,0,8.7,1.1,11.2,3.4c2.6,2.2,3.9,5.4,3.9,9.6v4.4h-9.6v-4.9c0-3.4-1.8-5.1-5.3-5.1c-3.5,0-5.3,1.7-5.3,5.1v28.2
			c0,3.3,1.7,5,5.3,5c3.5,0,5.3-1.7,5.3-5v-10.1h-5.1v-7.4h14.6v16.9c0,4.2-1.3,7.4-3.9,9.6c-2.6,2.2-6.3,3.4-11.2,3.4
			C1343.6,128,1339.8,126.9,1337.3,124.7z"/>
	</g>
	<g>
		<path class="st0" d="M1536.9,75.7h10.1v21h10.9v-21h10.1v51.6h-10.1v-23.2h-10.9v23.2h-10.1V75.7z"/>
	</g>
	<g>
		<path class="st0" d="M1751.4,75.7h10.1v51.6h-10.1V75.7z"/>
	</g>
	<g>
		<path class="st0" d="M114.8,303.1v-7.4c1,0.2,2.1,0.3,3.3,0.3c2,0,3.5-0.4,4.5-1.2c1-0.8,1.5-2.1,1.5-3.7v-39.6h10.1v39.4
			c0,4.2-1.2,7.4-3.6,9.4c-2.4,2.1-6.1,3.1-11.1,3.1C117.6,303.4,116.1,303.3,114.8,303.1z"/>
	</g>
	<g>
		<path class="st0" d="M311.8,251.7H322v21.7l12.9-21.7H345l-12.1,18.9l12.3,32.6h-10.6l-8.6-23l-4.1,6.6v16.4h-10.1V251.7z"/>
	</g>
	<g>
		<path class="st0" d="M519.1,251.7h10.1v44.2h16.7v7.4h-26.8V251.7z"/>
	</g>
	<g>
		<path class="st0" d="M715.5,251.7H730l6.4,36.9h0.2l6.4-36.9h14.5v51.6h-9.6v-39.1h-0.2l-7.4,39.1h-8.5l-7.4-39.1h-0.2v39.1h-8.8
			V251.7z"/>
	</g>
	<g>
		<path class="st0" d="M924.6,251.7h12.7l9.9,30.9h0.2v-30.9h9v51.6H946l-12.2-37.7h-0.2v37.7h-9V251.7z"/>
	</g>
	<g>
		<path class="st0" d="M1133.1,300.6c-2.6-2.3-4-5.5-4-9.6v-27.1c0-4.1,1.3-7.3,4-9.6c2.6-2.3,6.4-3.4,11.4-3.4s8.8,1.1,11.4,3.4
			c2.6,2.3,4,5.5,4,9.6v27.1c0,4.1-1.3,7.3-4,9.6c-2.6,2.3-6.4,3.4-11.4,3.4S1135.7,302.9,1133.1,300.6z M1149.8,291.6v-28.2
			c0-3.4-1.8-5.1-5.3-5.1c-3.5,0-5.3,1.7-5.3,5.1v28.2c0,3.4,1.7,5.1,5.3,5.1C1148,296.7,1149.8,295,1149.8,291.6z"/>
	</g>
	<g>
		<path class="st0" d="M1333.5,251.7h14.9c5,0,8.8,1.1,11.3,3.2c2.5,2.2,3.8,5.3,3.8,9.5v5.1c0,4.2-1.3,7.3-3.8,9.5
			c-2.5,2.2-6.3,3.2-11.3,3.2h-4.8v21h-10.1V251.7z M1348.4,274.9c1.7,0,2.9-0.4,3.7-1.1c0.8-0.7,1.2-2,1.2-3.8v-6.1
			c0-1.8-0.4-3-1.2-3.8c-0.8-0.7-2.1-1.1-3.7-1.1h-4.8v15.8H1348.4z"/>
	</g>
	<g>
		<path class="st0" d="M1558,301.1c-1.9,0.6-4.1,0.9-6.7,0.9c-5,0-8.8-1.1-11.4-3.4c-2.6-2.3-4-5.5-4-9.6v-27.1c0-4.1,1.3-7.3,4-9.6
			c2.6-2.3,6.4-3.4,11.4-3.4s8.8,1.1,11.4,3.4c2.6,2.3,4,5.5,4,9.6V289c0,3.4-1,6.3-2.9,8.5c0.4,0.5,0.8,0.8,1.4,1
			c0.6,0.1,1.3,0.2,2.4,0.2h1.6v7.4h-2.7C1561.9,306.1,1559,304.4,1558,301.1z M1556.5,289.5v-28.2c0-3.4-1.8-5.1-5.3-5.1
			c-3.5,0-5.3,1.7-5.3,5.1v28.2c0,3.4,1.7,5.1,5.3,5.1C1554.8,294.6,1556.5,292.9,1556.5,289.5z"/>
	</g>
	<g>
		<path class="st0" d="M1740.9,251.7h15c5.2,0,9,1,11.4,2.9c2.4,1.9,3.6,4.9,3.6,9v3.2c0,5.4-2.2,8.7-6.6,10.2v0.1
			c2.5,0.6,4.2,1.8,5.2,3.6c1,1.8,1.5,4.3,1.5,7.3v9.1c0,1.5,0.1,2.7,0.2,3.6c0.1,0.9,0.4,1.8,0.9,2.7h-10.3
			c-0.4-0.8-0.6-1.6-0.7-2.4c-0.1-0.7-0.2-2.1-0.2-4v-9.4c0-2.4-0.5-4-1.4-4.9c-1-0.9-2.6-1.4-4.9-1.4h-3.5v22.1h-10.1V251.7z
			 M1754.7,273.8c2,0,3.5-0.4,4.6-1.3c1-0.8,1.5-2.2,1.5-4.2v-4c0-1.9-0.4-3.2-1.2-4.1c-0.8-0.8-2.1-1.3-3.9-1.3h-4.6v14.7H1754.7z"
			/>
	</g>
	<g>
		<path class="st0" d="M113.2,476.7c-2.5-2.2-3.8-5.4-3.8-9.6v-2.9h9.6v3.5c0,3.3,1.7,5,5.3,5c1.7,0,3-0.4,3.9-1.2
			c0.9-0.8,1.3-2.1,1.3-3.9c0-2.2-0.6-4.1-1.8-5.7c-1.2-1.6-3.5-3.6-6.8-5.9c-4.2-2.9-7.1-5.6-8.8-8c-1.7-2.4-2.5-5.1-2.5-8.1
			c0-4.1,1.3-7.2,3.9-9.5c2.6-2.2,6.3-3.4,11.2-3.4c4.9,0,8.5,1.1,11,3.4c2.5,2.2,3.7,5.4,3.7,9.6v2.1h-9.6v-2.7
			c0-1.8-0.4-3.1-1.3-3.9c-0.9-0.8-2.1-1.2-3.8-1.2c-3.4,0-5.1,1.6-5.1,4.9c0,1.9,0.6,3.6,1.9,5.2c1.3,1.6,3.5,3.6,6.9,5.9
			c4.2,2.9,7.2,5.6,8.8,8c1.6,2.4,2.4,5.2,2.4,8.5c0,4.2-1.3,7.5-3.9,9.7c-2.6,2.3-6.4,3.4-11.4,3.4
			C119.4,480,115.7,478.9,113.2,476.7z"/>
	</g>
	<g>
		<path class="st0" d="M323.4,435.1h-10.6v-7.4h31.3v7.4h-10.6v44.2h-10.1V435.1z"/>
	</g>
	<g>
		<path class="st0" d="M521.3,476.3c-2.6-2.2-3.9-5.4-3.9-9.6v-39.4h10.1v39.9c0,1.8,0.4,3,1.3,3.8c0.9,0.8,2.2,1.2,3.8,1.2
			c1.7,0,2.9-0.4,3.8-1.2c0.9-0.8,1.3-2.1,1.3-3.8v-39.9h9.8v39.4c0,4.2-1.3,7.4-3.9,9.6c-2.6,2.2-6.3,3.4-11.2,3.4
			C527.6,479.7,523.8,478.5,521.3,476.3z"/>
	</g>
	<g>
		<path class="st0" d="M720,427.7h10.2l6.6,40h0.2l6.6-40h9.3l-9.8,51.6h-13.5L720,427.7z"/>
	</g>
	<g>
		<path class="st0" d="M916.2,427.7h9.8l4.5,39.6h0.2l4.8-39.6h11.1l4.8,39.6h0.2l4.5-39.6h8.8l-6.5,51.6h-12.6l-4.6-34.8h-0.2
			l-4.6,34.8h-13.4L916.2,427.7z"/>
	</g>
	<g>
		<path class="st0" d="M1138.5,452.9l-11.1-25.2h10.7l6.8,16.7h0.2l7-16.7h9.6l-11.1,25.2l11.7,26.4h-10.7l-7.4-18h-0.2l-7.6,18
			h-9.6L1138.5,452.9z"/>
	</g>
	<g>
		<path class="st0" d="M1343.4,457.3l-12.3-29.6h10.8l6.9,18.9h0.2l6.9-18.9h9.9l-12.3,29.6v22h-10.1V457.3z"/>
	</g>
	<g>
		<path class="st0" d="M1537.7,472.1l18.8-37h-17.9v-7.4h28.7v7.2l-18.8,37h18.8v7.4h-29.7V472.1z"/>
	</g>
	<g>
		<path class="st0" d="M124.7,615.9h-10.6v-5.7c2.9,0,5.2-0.2,7-0.6c1.7-0.4,3.1-1,4.2-2c1-0.9,2-2.2,2.8-3.9h6.8v51.6h-10.1V615.9z
			"/>
	</g>
	<g>
		<path class="st0" d="M313.4,650.1c0-3.7,0.7-6.8,2.2-9.5c1.5-2.6,4.1-5.5,7.9-8.7c3.7-3.2,6.3-5.9,7.8-8.2
			c1.4-2.3,2.2-4.6,2.2-7.1c0-2.2-0.4-3.7-1.3-4.6c-0.9-0.9-2.2-1.3-3.9-1.3c-3.5,0-5.3,1.7-5.3,5.1v5.5h-9.6v-5
			c0-4.2,1.3-7.4,3.9-9.6c2.6-2.2,6.3-3.4,11.2-3.4c4.9,0,8.7,1.1,11.2,3.4c2.6,2.2,3.9,5.4,3.9,9.6c0,3.1-0.9,6.2-2.8,9.2
			c-1.9,3-5.1,6.4-9.7,10.3c-3,2.6-5,4.6-6.1,6.2c-1,1.6-1.6,3.3-1.6,5.1v1.1h19.3v7.4h-29.3V650.1z"/>
	</g>
	<g>
		<path class="st0" d="M521.2,652.7c-2.5-2.2-3.8-5.4-3.8-9.5V639h9.6v4.6c0,3.4,1.7,5.1,5.3,5.1c1.7,0,3-0.4,3.9-1.3
			c0.9-0.9,1.3-2.4,1.3-4.5v-4.2c0-2.4-0.5-4-1.6-5c-1-1-2.7-1.5-5.1-1.5h-3.4v-7.4h3.7c2,0,3.5-0.4,4.6-1.3c1-0.8,1.5-2.2,1.5-4.2
			v-3.8c0-1.8-0.5-3.1-1.4-3.9c-0.9-0.8-2.2-1.3-3.7-1.3c-3.3,0-4.9,1.6-4.9,4.8v3.4h-9.6v-2.7c0-4.1,1.3-7.3,3.8-9.5
			c2.5-2.2,6.2-3.3,11-3.3c4.9,0,8.5,1.1,11.1,3.3c2.5,2.2,3.8,5.3,3.8,9.5v1.8c0,2.8-0.6,5-1.7,6.7c-1.2,1.7-3,2.9-5.4,3.6v0.1
			c2.6,0.8,4.5,2.1,5.7,3.8c1.2,1.8,1.8,4,1.8,6.8v4.6c0,4.1-1.3,7.3-3.8,9.5c-2.5,2.2-6.3,3.3-11.3,3.3S523.8,654.9,521.2,652.7z"
			/>
	</g>
	<g>
		<path class="st0" d="M738.7,645.9h-19.3v-7.4l18.4-34.9h11.1v34.9h4.8v7.4h-4.8v9.4h-10.1V645.9z M738.7,638.6v-20.1h-0.2
			l-9.9,20.1H738.7z"/>
	</g>
	<g>
		<path class="st0" d="M929.3,652.3c-2.6-2.2-3.9-5.4-3.9-9.6v-4.1h9.6v4.6c0,3.3,1.7,5,5.3,5s5.3-1.7,5.3-5v-11.6
			c0-3.4-1.8-5.1-5.3-5.1s-5.3,1.7-5.3,5.1v0.4h-9.6l1.8-28.8h26.7v7.4h-17.7l-0.8,12.3h0.2c1.9-2.5,4.8-3.8,8.8-3.8
			c3.7,0,6.5,1,8.4,3c1.9,2,2.9,4.9,2.9,8.8v11.6c0,4.2-1.3,7.4-3.9,9.6c-2.6,2.2-6.3,3.4-11.2,3.4
			C935.6,655.7,931.8,654.5,929.3,652.3z"/>
	</g>
	<g>
		<path class="st0" d="M1133.1,652.6c-2.6-2.3-4-5.5-4-9.6v-26.7c0-8.9,5.2-13.4,15.5-13.4c4.9,0,8.7,1.1,11.2,3.4
			c2.6,2.2,3.9,5.4,3.9,9.6v1h-9.6v-1.5c0-3.4-1.8-5.1-5.3-5.1c-1.9,0-3.3,0.5-4.2,1.4c-0.9,0.9-1.4,2.6-1.4,4.9v9.9h0.2
			c1.8-3,4.9-4.5,9.2-4.5c3.7,0,6.5,1,8.4,3c1.9,2,2.9,4.9,2.9,8.8v9.2c0,4.1-1.3,7.3-4,9.6c-2.6,2.3-6.4,3.4-11.4,3.4
			S1135.7,654.9,1133.1,652.6z M1149.8,643.7v-9.1c0-3.4-1.7-5.1-5.3-5.1c-3.5,0-5.3,1.7-5.3,5.1v9.1c0,3.3,1.8,5,5.3,5
			C1148,648.7,1149.8,647,1149.8,643.7z"/>
	</g>
	<g>
		<path class="st0" d="M1353.8,611.1h-20.5v-7.4h30.4v7.1l-15.8,44.5h-10.3L1353.8,611.1z"/>
	</g>
	<g>
		<path class="st0" d="M1540.8,652.8c-2.7-2.2-4.1-5.3-4.1-9.5v-4.6c0-2.6,0.5-4.7,1.6-6.4c1-1.7,2.7-3.1,5.1-4.1V628
			c-2.2-0.9-3.7-2.2-4.7-3.9c-1-1.6-1.5-3.7-1.5-6.3v-2.1c0-4.1,1.3-7.3,4-9.5c2.7-2.2,6.5-3.3,11.5-3.3s8.8,1.1,11.5,3.3
			c2.7,2.2,4,5.3,4,9.5v2.1c0,4.9-2.1,8.3-6.3,10.2v0.1c2.3,1,4,2.3,5.1,4.1c1,1.7,1.6,3.9,1.6,6.4v4.6c0,4.1-1.4,7.3-4.1,9.5
			c-2.7,2.2-6.6,3.3-11.7,3.3C1547.4,656,1543.5,654.9,1540.8,652.8z M1558.2,642.8v-4.9c0-3.9-1.9-5.8-5.7-5.8
			c-3.8,0-5.7,1.9-5.7,5.8v4.9c0,3.9,1.9,5.8,5.7,5.8C1556.3,648.7,1558.2,646.7,1558.2,642.8z M1557.8,619.6v-4.1
			c0-3.4-1.8-5.2-5.3-5.2c-3.6,0-5.3,1.7-5.3,5.2v4.1c0,3.4,1.8,5.2,5.3,5.2C1556.1,624.7,1557.8,623,1557.8,619.6z"/>
	</g>
	<g>
		<path class="st0" d="M1745.2,652.7c-2.6-2.2-3.9-5.4-3.9-9.6v-1h9.6v1.5c0,3.4,1.8,5.1,5.3,5.1c1.9,0,3.3-0.5,4.2-1.4
			c0.9-0.9,1.4-2.6,1.4-4.9v-9.9h-0.2c-1.8,3-4.9,4.5-9.2,4.5c-3.7,0-6.5-1-8.4-3c-1.9-2-2.9-4.9-2.9-8.8v-9.2c0-4.1,1.3-7.3,4-9.6
			c2.6-2.3,6.4-3.4,11.4-3.4s8.8,1.1,11.4,3.4c2.6,2.3,4,5.5,4,9.6v26.7c0,8.9-5.2,13.4-15.5,13.4
			C1751.5,656,1747.7,654.9,1745.2,652.7z M1761.8,624.5v-9.1c0-3.3-1.7-5-5.3-5c-3.5,0-5.3,1.7-5.3,5v9.1c0,3.4,1.8,5.1,5.3,5.1
			C1760,629.6,1761.8,627.9,1761.8,624.5z"/>
	</g>
	<g>
		<path class="st0" d="M113.1,828.6c-2.6-2.3-4-5.5-4-9.6v-27.1c0-4.1,1.3-7.3,4-9.6c2.6-2.3,6.4-3.4,11.4-3.4s8.8,1.1,11.4,3.4
			c2.6,2.3,4,5.5,4,9.6v27.1c0,4.1-1.3,7.3-4,9.6c-2.6,2.3-6.4,3.4-11.4,3.4S115.7,830.9,113.1,828.6z M129.8,819.6v-28.2
			c0-3.4-1.8-5.1-5.3-5.1c-3.5,0-5.3,1.7-5.3,5.1v28.2c0,3.4,1.7,5.1,5.3,5.1C128,824.7,129.8,823,129.8,819.6z"/>
	</g>
	<g>
		<path class="st0" d="M96.5,1307.7h26.8v7.4h-16.7v14.4h13.1v7.4h-13.1v22.5H96.5V1307.7z"/>
		<path class="st0" d="M142.4,1319.9h-10.6v-5.7c2.9,0,5.2-0.2,7-0.6c1.7-0.4,3.1-1,4.2-2c1-0.9,2-2.2,2.8-3.9h6.8v51.6h-10.1
			V1319.9z"/>
	</g>
	<g>
		<path class="st0" d="M297.6,1308.1h26.8v7.4h-16.7v14.4h13.1v7.4h-13.1v22.5h-10.1V1308.1z"/>
		<path class="st0" d="M329.1,1354.1c0-3.7,0.7-6.8,2.2-9.5c1.5-2.6,4.1-5.5,7.9-8.7c3.7-3.2,6.3-5.9,7.8-8.2
			c1.4-2.3,2.2-4.6,2.2-7.1c0-2.2-0.4-3.7-1.3-4.6c-0.9-0.9-2.2-1.3-3.9-1.3c-3.5,0-5.3,1.7-5.3,5.1v5.5h-9.6v-5
			c0-4.2,1.3-7.4,3.9-9.6c2.6-2.2,6.3-3.4,11.2-3.4c4.9,0,8.7,1.1,11.2,3.4c2.6,2.2,3.9,5.4,3.9,9.6c0,3.1-0.9,6.2-2.8,9.2
			c-1.9,3-5.1,6.4-9.7,10.3c-3,2.6-5,4.6-6.1,6.2c-1,1.6-1.6,3.3-1.6,5.1v1.1h19.3v7.4h-29.3V1354.1z"/>
	</g>
	<g>
		<path class="st0" d="M501.9,1307.7h26.8v7.4H512v14.4h13.1v7.4H512v22.5h-10.1V1307.7z"/>
		<path class="st0" d="M536.7,1356.7c-2.5-2.2-3.8-5.4-3.8-9.5v-4.2h9.6v4.6c0,3.4,1.7,5.1,5.3,5.1c1.7,0,3-0.4,3.9-1.3
			c0.9-0.9,1.3-2.4,1.3-4.5v-4.2c0-2.4-0.5-4-1.6-5c-1-1-2.7-1.5-5.1-1.5h-3.4v-7.4h3.7c2,0,3.5-0.4,4.6-1.3c1-0.8,1.5-2.2,1.5-4.2
			v-3.8c0-1.8-0.5-3.1-1.4-3.9c-0.9-0.8-2.2-1.3-3.7-1.3c-3.3,0-4.9,1.6-4.9,4.8v3.4h-9.6v-2.7c0-4.1,1.3-7.3,3.8-9.5
			c2.5-2.2,6.2-3.3,11-3.3c4.9,0,8.5,1.1,11.1,3.3c2.5,2.2,3.8,5.3,3.8,9.5v1.8c0,2.8-0.6,5-1.7,6.7c-1.2,1.7-3,2.9-5.4,3.6v0.1
			c2.6,0.8,4.5,2.1,5.7,3.8c1.2,1.8,1.8,4,1.8,6.8v4.6c0,4.1-1.3,7.3-3.8,9.5c-2.5,2.2-6.3,3.3-11.3,3.3S539.2,1358.9,536.7,1356.7z
			"/>
	</g>
	<g>
		<path class="st0" d="M704.7,1307.7h26.8v7.4h-16.7v14.4h13.1v7.4h-13.1v22.5h-10.1V1307.7z"/>
		<path class="st0" d="M753.4,1349.9H734v-7.4l18.4-34.9h11.1v34.9h4.8v7.4h-4.8v9.4h-10.1V1349.9z M753.4,1342.6v-20.1h-0.2
			l-9.9,20.1H753.4z"/>
	</g>
	<g>
		<path class="st0" d="M909.7,1307.3h26.8v7.4h-16.7v14.4h13.1v7.4h-13.1v22.5h-10.1V1307.3z"/>
		<path class="st0" d="M945,1356.3c-2.6-2.2-3.9-5.4-3.9-9.6v-4.1h9.6v4.6c0,3.3,1.7,5,5.3,5c3.5,0,5.3-1.7,5.3-5v-11.6
			c0-3.4-1.8-5.1-5.3-5.1c-3.5,0-5.3,1.7-5.3,5.1v0.4h-9.6l1.8-28.8h26.7v7.4H952l-0.8,12.3h0.2c1.9-2.5,4.8-3.8,8.8-3.8
			c3.7,0,6.5,1,8.4,3c1.9,2,2.9,4.9,2.9,8.8v11.6c0,4.2-1.3,7.4-3.9,9.6c-2.6,2.2-6.3,3.4-11.2,3.4
			C951.3,1359.7,947.5,1358.5,945,1356.3z"/>
	</g>
	<g>
		<path class="st0" d="M1113.5,1307.7h26.8v7.4h-16.7v14.4h13.1v7.4h-13.1v22.5h-10.1V1307.7z"/>
		<path class="st0" d="M1148.7,1356.6c-2.6-2.3-4-5.5-4-9.6v-26.7c0-8.9,5.2-13.4,15.5-13.4c4.9,0,8.7,1.1,11.2,3.4
			c2.6,2.2,3.9,5.4,3.9,9.6v1h-9.6v-1.5c0-3.4-1.8-5.1-5.3-5.1c-1.9,0-3.3,0.5-4.2,1.4c-0.9,0.9-1.4,2.6-1.4,4.9v9.9h0.2
			c1.8-3,4.9-4.5,9.2-4.5c3.7,0,6.5,1,8.4,3c1.9,2,2.9,4.9,2.9,8.8v9.2c0,4.1-1.3,7.3-4,9.6c-2.6,2.3-6.4,3.4-11.4,3.4
			S1151.3,1358.9,1148.7,1356.6z M1165.4,1347.7v-9.1c0-3.4-1.8-5.1-5.3-5.1c-3.5,0-5.3,1.7-5.3,5.1v9.1c0,3.3,1.8,5,5.3,5
			C1163.6,1352.7,1165.4,1351,1165.4,1347.7z"/>
	</g>
	<g>
		<path class="st0" d="M1317.8,1307.7h26.8v7.4h-16.7v14.4h13.1v7.4h-13.1v22.5h-10.1V1307.7z"/>
		<path class="st0" d="M1369.3,1315.1h-20.5v-7.4h30.4v7.1l-15.8,44.5h-10.3L1369.3,1315.1z"/>
	</g>
	<g>
		<path class="st0" d="M1521.4,1307.7h26.8v7.4h-16.7v14.4h13.1v7.4h-13.1v22.5h-10.1V1307.7z"/>
		<path class="st0" d="M1556,1356.8c-2.7-2.2-4.1-5.3-4.1-9.5v-4.6c0-2.6,0.5-4.7,1.6-6.4c1-1.7,2.7-3.1,5.1-4.1v-0.1
			c-2.2-0.9-3.7-2.2-4.7-3.9c-1-1.6-1.5-3.7-1.5-6.3v-2.1c0-4.1,1.3-7.3,4-9.5c2.7-2.2,6.5-3.3,11.5-3.3s8.8,1.1,11.5,3.3
			c2.7,2.2,4,5.3,4,9.5v2.1c0,4.9-2.1,8.3-6.3,10.2v0.1c2.3,1,4,2.3,5.1,4.1c1,1.7,1.6,3.9,1.6,6.4v4.6c0,4.1-1.4,7.3-4.1,9.5
			c-2.7,2.2-6.6,3.3-11.7,3.3C1562.6,1360,1558.7,1358.9,1556,1356.8z M1573.5,1346.8v-4.9c0-3.9-1.9-5.8-5.7-5.8
			c-3.8,0-5.7,1.9-5.7,5.8v4.9c0,3.9,1.9,5.8,5.7,5.8C1571.6,1352.7,1573.5,1350.7,1573.5,1346.8z M1573.1,1323.6v-4.1
			c0-3.4-1.8-5.2-5.3-5.2c-3.6,0-5.3,1.7-5.3,5.2v4.1c0,3.4,1.8,5.2,5.3,5.2C1571.3,1328.7,1573.1,1327,1573.1,1323.6z"/>
	</g>
	<g>
		<path class="st0" d="M1725.8,1307.7h26.8v7.4h-16.7v14.4h13.1v7.4h-13.1v22.5h-10.1V1307.7z"/>
		<path class="st0" d="M1760.5,1356.7c-2.6-2.2-3.9-5.4-3.9-9.6v-1h9.6v1.5c0,3.4,1.8,5.1,5.3,5.1c1.9,0,3.3-0.5,4.2-1.4
			c0.9-0.9,1.4-2.6,1.4-4.9v-9.9h-0.2c-1.8,3-4.9,4.5-9.2,4.5c-3.7,0-6.5-1-8.4-3c-1.9-2-2.9-4.9-2.9-8.8v-9.2c0-4.1,1.3-7.3,4-9.6
			c2.6-2.3,6.4-3.4,11.4-3.4s8.8,1.1,11.4,3.4c2.6,2.3,4,5.5,4,9.6v26.7c0,8.9-5.2,13.4-15.5,13.4
			C1766.8,1360,1763.1,1358.9,1760.5,1356.7z M1777.1,1328.5v-9.1c0-3.3-1.7-5-5.3-5c-3.5,0-5.3,1.7-5.3,5v9.1
			c0,3.4,1.8,5.1,5.3,5.1C1775.3,1333.6,1777.1,1331.9,1777.1,1328.5z"/>
	</g>
	<g>
		<path class="st0" d="M293.4,1490h20.3v5.6h-12.6v10.9h9.9v5.6h-9.9v17h-7.7V1490z"/>
		<path class="st0" d="M328.1,1499.2h-8v-4.3c2.2,0,3.9-0.1,5.3-0.4c1.3-0.3,2.4-0.8,3.2-1.5c0.8-0.7,1.5-1.7,2.1-3h5.2v39h-7.7
			V1499.2z"/>
		<path class="st0" d="M355.9,1499.2h-8v-4.3c2.2,0,3.9-0.1,5.3-0.4c1.3-0.3,2.4-0.8,3.2-1.5c0.8-0.7,1.5-1.7,2.1-3h5.2v39h-7.7
			V1499.2z"/>
	</g>
	<g>
		<path class="st0" d="M493.9,1489.6h21v5.8h-13.1v11.3h10.2v5.8h-10.2v17.6h-7.9V1489.6z"/>
		<path class="st0" d="M529.8,1499.2h-8.3v-4.5c2.3,0,4.1-0.2,5.5-0.5c1.4-0.3,2.5-0.8,3.3-1.5c0.8-0.7,1.5-1.7,2.2-3.1h5.3v40.4
			h-7.9V1499.2z"/>
		<path class="st0" d="M547.4,1525.6c0-2.9,0.6-5.4,1.7-7.4c1.2-2.1,3.2-4.3,6.2-6.8c2.9-2.5,5-4.6,6.1-6.4c1.1-1.8,1.7-3.6,1.7-5.5
			c0-1.7-0.3-2.9-1-3.6c-0.7-0.7-1.7-1-3.1-1c-2.7,0-4.1,1.3-4.1,4v4.3h-7.5v-3.9c0-3.3,1-5.8,3-7.5c2-1.8,5-2.6,8.8-2.6
			c3.8,0,6.8,0.9,8.8,2.6c2,1.8,3,4.3,3,7.5c0,2.5-0.7,4.9-2.2,7.2c-1.5,2.3-4,5-7.6,8.1c-2.4,2-3.9,3.6-4.8,4.9
			c-0.8,1.3-1.2,2.6-1.2,4v0.9h15.1v5.8h-23V1525.6z"/>
	</g>
	<g>
		<path class="st0" d="M84.6,1488.6h21.7v6H92.8v11.6h10.6v6H92.8v18.2h-8.2V1488.6z"/>
		<path class="st0" d="M121.7,1498.5h-8.6v-4.7c2.3,0,4.2-0.2,5.6-0.5c1.4-0.3,2.5-0.8,3.4-1.6c0.8-0.7,1.6-1.8,2.2-3.2h5.5v41.8
			h-8.2V1498.5z"/>
		<path class="st0" d="M142.7,1528.3c-2.1-1.8-3.2-4.4-3.2-7.8v-22c0-3.3,1.1-5.9,3.2-7.8c2.1-1.8,5.2-2.7,9.3-2.7
			c4,0,7.1,0.9,9.3,2.7c2.1,1.8,3.2,4.4,3.2,7.8v22c0,3.3-1.1,5.9-3.2,7.8c-2.1,1.8-5.2,2.7-9.3,2.7
			C147.9,1531,144.9,1530.1,142.7,1528.3z M156.2,1520.9v-22.8c0-2.7-1.4-4.1-4.3-4.1c-2.8,0-4.3,1.4-4.3,4.1v22.8
			c0,2.7,1.4,4.1,4.3,4.1C154.8,1525,156.2,1523.7,156.2,1520.9z"/>
	</g>
	<g>
		<path class="st0" d="M1176.3,1125.3H1160c-1.1,0-2,0.9-2,2v7.9c0,1.1,0.9,2,2,2h12.9c1.9,0,3.4,1.5,3.4,3.4v19
			c0,1.9-1.5,3.4-3.4,3.4h-50.4l5.8-5.8c0.6-0.6,0.6-1.7,0-2.3l-6.1-6.1c-0.6-0.6-1.7-0.6-2.3,0l-18.4,18.4c-1,1-1,2.6,0,3.6
			l6.7,6.7l11.8,11.8c0.6,0.6,1.7,0.6,2.3,0l6.1-6.1c0.6-0.6,0.6-1.7,0-2.3l-5.8-5.8h53.7h8.4c2,0,3.5-1.6,3.5-3.5v-8.4v-25.7v-8.4
			c0-2-1.6-3.5-3.5-3.5H1176.3z"/>
	</g>
	<g>
		<path class="st0" d="M1775.1,1840.5l-6.9-6.9c-1.4-1.4-3.7-1.4-5.1,0l-24.9,24.9c-1.7,1.7-1.7,4.5,0,6.2l9,9l15.9,15.9
			c1.4,1.4,3.7,1.4,5.1,0l6.9-6.9c1.4-1.4,1.4-3.7,0-5.1l-15.9-15.9l15.9-15.9C1776.5,1844.2,1776.5,1841.9,1775.1,1840.5z"/>
	</g>
	<g>
		<path class="st0" d="M1381.9,1163.5h-69.8v-11.9h69.8c1.6,0,3,1.3,3,3v6C1384.9,1162.1,1383.5,1163.5,1381.9,1163.5z"/>
	</g>
	<g>
		<path class="st0" d="M1311.2,995.4c-1.5-1.3-2.2-3.2-2.2-5.6v-16.6c0-2.4,0.7-4.3,2.2-5.6c1.5-1.3,3.6-2,6.4-2
			c2.8,0,4.9,0.7,6.4,2c1.5,1.3,2.2,3.2,2.2,5.6v3.3h-5.5v-3.6c0-1.9-1-2.9-2.9-2.9s-2.9,1-2.9,2.9v17.3c0,1.9,1,2.8,2.9,2.8
			s2.9-0.9,2.9-2.8v-4.7h5.5v4.4c0,2.4-0.7,4.3-2.2,5.6c-1.5,1.3-3.6,2-6.4,2C1314.8,997.4,1312.7,996.7,1311.2,995.4z"/>
		<path class="st0" d="M1334.2,966h7.9l6,30.9h-5.8l-1.1-6.1v0.1h-6.6l-1.1,6.1h-5.4L1334.2,966z M1340.5,986.7l-2.6-15.3h-0.1
			l-2.5,15.3H1340.5z"/>
		<path class="st0" d="M1350.9,966h8.6c2.9,0,5.1,0.6,6.5,1.9c1.4,1.3,2.2,3.2,2.2,5.7v3c0,2.5-0.7,4.4-2.2,5.7
			c-1.4,1.3-3.6,1.9-6.5,1.9h-2.8V997h-5.8V966z M1359.5,980c1,0,1.7-0.2,2.1-0.7c0.5-0.4,0.7-1.2,0.7-2.3v-3.7
			c0-1.1-0.2-1.8-0.7-2.3c-0.5-0.4-1.2-0.7-2.1-0.7h-2.8v9.5H1359.5z"/>
		<path class="st0" d="M1372.8,995.4c-1.4-1.3-2.2-3.3-2.2-5.8v-1.8h5.5v2.1c0,2,1,3,3,3c1,0,1.7-0.2,2.3-0.7
			c0.5-0.5,0.8-1.3,0.8-2.4c0-1.3-0.4-2.4-1.1-3.4c-0.7-1-2-2.2-3.9-3.6c-2.4-1.8-4.1-3.4-5-4.8c-1-1.4-1.4-3-1.4-4.8
			c0-2.4,0.7-4.3,2.2-5.7c1.5-1.3,3.6-2,6.5-2c2.8,0,4.9,0.7,6.3,2c1.4,1.3,2.1,3.3,2.1,5.8v1.3h-5.5v-1.6c0-1.1-0.2-1.8-0.7-2.3
			c-0.5-0.5-1.2-0.7-2.2-0.7c-1.9,0-2.9,1-2.9,3c0,1.1,0.4,2.2,1.1,3.1c0.7,1,2,2.2,4,3.5c2.4,1.8,4.1,3.4,5,4.8
			c0.9,1.4,1.4,3.1,1.4,5.1c0,2.5-0.8,4.5-2.3,5.8c-1.5,1.4-3.7,2-6.5,2C1376.4,997.4,1374.2,996.7,1372.8,995.4z"/>
	</g>
	<g>
		<path class="st0" d="M1512.1,994.9c-1.4-1.3-2.1-3.1-2.1-5.5v-1.7h5.3v2c0,1.9,1,2.9,2.9,2.9c1,0,1.7-0.2,2.2-0.7
			c0.5-0.5,0.7-1.2,0.7-2.3c0-1.2-0.3-2.3-1-3.3c-0.7-0.9-1.9-2.1-3.8-3.4c-2.3-1.7-3.9-3.2-4.8-4.6c-0.9-1.4-1.4-2.9-1.4-4.7
			c0-2.3,0.7-4.2,2.1-5.5c1.4-1.3,3.5-1.9,6.2-1.9c2.7,0,4.7,0.6,6.1,1.9c1.4,1.3,2.1,3.1,2.1,5.5v1.2h-5.3v-1.5
			c0-1-0.2-1.8-0.7-2.2c-0.5-0.5-1.2-0.7-2.1-0.7c-1.9,0-2.8,0.9-2.8,2.8c0,1.1,0.3,2.1,1,3c0.7,0.9,2,2.1,3.8,3.4
			c2.3,1.7,4,3.2,4.8,4.6c0.9,1.4,1.3,3,1.3,4.9c0,2.4-0.7,4.3-2.2,5.6c-1.4,1.3-3.5,2-6.3,2
			C1515.5,996.8,1513.5,996.1,1512.1,994.9z"/>
		<path class="st0" d="M1529.9,966.6h5.6v12.1h6v-12.1h5.6v29.7h-5.6V983h-6v13.4h-5.6V966.6z"/>
		<path class="st0" d="M1551.3,966.6h5.6v29.7h-5.6V966.6z"/>
		<path class="st0" d="M1561.1,966.6h14.8v4.2h-9.2v8.3h7.2v4.2h-7.2v13h-5.6V966.6z"/>
		<path class="st0" d="M1583.5,970.9h-5.9v-4.2h17.3v4.2h-5.9v25.5h-5.6V970.9z"/>
	</g>
	<g>
		<path class="st0" d="M86.8,1172c-1.5-1.4-2.3-3.3-2.3-5.8v-17.3c0-2.5,0.8-4.5,2.3-5.8c1.5-1.4,3.7-2.1,6.7-2.1
			c2.9,0,5.1,0.7,6.7,2.1c1.5,1.4,2.3,3.3,2.3,5.8v3.4h-5.7v-3.7c0-2-1-3-3-3c-2,0-3,1-3,3v18c0,2,1,2.9,3,2.9c2,0,3-1,3-2.9v-4.9
			h5.7v4.6c0,2.5-0.8,4.5-2.3,5.8c-1.5,1.4-3.7,2.1-6.7,2.1C90.5,1174.1,88.3,1173.4,86.8,1172z"/>
		<path class="st0" d="M110.8,1146h-6.4v-4.6h18.8v4.6h-6.4v27.6h-6.1V1146z"/>
		<path class="st0" d="M126.2,1141.4h9c3.1,0,5.4,0.6,6.9,1.8c1.4,1.2,2.2,3.1,2.2,5.6v2c0,3.3-1.3,5.5-4,6.4v0.1
			c1.5,0.4,2.5,1.1,3.1,2.3c0.6,1.1,0.9,2.7,0.9,4.6v5.7c0,0.9,0,1.7,0.1,2.2c0.1,0.6,0.3,1.1,0.6,1.7h-6.2c-0.2-0.5-0.4-1-0.4-1.5
			c-0.1-0.5-0.1-1.3-0.1-2.5v-5.9c0-1.5-0.3-2.5-0.9-3.1c-0.6-0.6-1.6-0.9-3-0.9h-2.1v13.8h-6.1V1141.4z M134.4,1155.2
			c1.2,0,2.1-0.3,2.7-0.8c0.6-0.5,0.9-1.4,0.9-2.6v-2.5c0-1.2-0.2-2-0.7-2.5c-0.5-0.5-1.3-0.8-2.3-0.8h-2.8v9.2H134.4z"/>
		<path class="st0" d="M148.4,1141.4h6.1v27.6h10v4.6h-16.1V1141.4z"/>
	</g>
	<g>
		<path class="st0" d="M486,1142.9h15v4.2h-9.5v7.7h7.6v4.2h-7.6v9h9.5v4.2h-15V1142.9z"/>
		<path class="st0" d="M504.2,1142.9h6.9l5.4,17.5h0.1v-17.5h4.9v29.2h-5.7l-6.6-21.3h-0.1v21.3h-4.9V1142.9z"/>
		<path class="st0" d="M529.9,1147.1h-5.8v-4.2h17v4.2h-5.8v25.1h-5.5V1147.1z"/>
		<path class="st0" d="M543.8,1142.9h15v4.2h-9.5v7.7h7.6v4.2h-7.6v9h9.5v4.2h-15V1142.9z"/>
		<path class="st0" d="M562,1142.9h8.2c2.8,0,4.9,0.5,6.2,1.6c1.3,1.1,2,2.8,2,5.1v1.8c0,3-1.2,5-3.6,5.8v0.1c1.3,0.3,2.3,1,2.8,2
			c0.6,1,0.8,2.4,0.8,4.1v5.1c0,0.8,0,1.5,0.1,2c0.1,0.5,0.2,1,0.5,1.5h-5.6c-0.2-0.5-0.3-0.9-0.4-1.3c-0.1-0.4-0.1-1.2-0.1-2.3
			v-5.3c0-1.3-0.3-2.3-0.8-2.8c-0.5-0.5-1.4-0.8-2.7-0.8h-1.9v12.5H562V1142.9z M569.5,1155.4c1.1,0,1.9-0.2,2.5-0.7
			c0.6-0.5,0.8-1.3,0.8-2.4v-2.3c0-1.1-0.2-1.8-0.7-2.3c-0.5-0.5-1.2-0.7-2.1-0.7h-2.5v8.4H569.5z"/>
	</g>
	<g>
		<path class="st0" d="M1735,965.4h8.2l6.3,32.2h-6.1l-1.1-6.4v0.1h-6.9l-1.1,6.3h-5.6L1735,965.4z M1741.6,986.9l-2.7-15.9h-0.1
			l-2.7,15.9H1741.6z"/>
		<path class="st0" d="M1752.4,965.4h6.1V993h10v4.6h-16.1V965.4z"/>
		<path class="st0" d="M1771.9,970h-6.4v-4.6h18.8v4.6h-6.4v27.6h-6.1V970z"/>
	</g>
	<g>
		<path class="st0" d="M92,996c-1.5-1.4-2.3-3.3-2.3-5.8v-17.3c0-2.5,0.8-4.5,2.3-5.8c1.5-1.4,3.7-2.1,6.7-2.1
			c2.9,0,5.1,0.7,6.7,2.1c1.5,1.4,2.3,3.3,2.3,5.8v3.4h-5.7v-3.7c0-2-1-3-3-3s-3,1-3,3v18c0,2,1,2.9,3,2.9s3-1,3-2.9v-4.9h5.7v4.6
			c0,2.5-0.8,4.5-2.3,5.8c-1.5,1.4-3.7,2.1-6.7,2.1C95.7,998.1,93.5,997.4,92,996z"/>
		<path class="st0" d="M111.2,965.4h8.7l3.9,23.1h0.1l3.9-23.1h8.7v32.2h-5.7v-24.4h-0.1l-4.4,24.4h-5.1l-4.4-24.4h-0.1v24.4h-5.3
			V965.4z"/>
		<path class="st0" d="M141,965.4h9.3c3,0,5.3,0.7,6.8,2c1.5,1.4,2.3,3.3,2.3,5.9v16.3c0,2.6-0.8,4.6-2.3,5.9c-1.5,1.4-3.8,2-6.8,2
			H141V965.4z M150.1,993c1,0,1.8-0.2,2.3-0.7c0.5-0.5,0.8-1.3,0.8-2.4v-16.8c0-1.1-0.3-1.9-0.8-2.4c-0.5-0.5-1.3-0.7-2.3-0.7h-3.1
			v23H150.1z"/>
	</g>
	<g>
		<path class="st0" d="M285,966.2h5.8v12.5h6.2v-12.5h5.8v30.6H297V983h-6.2v13.8H285V966.2z"/>
		<path class="st0" d="M308.9,995.2c-1.5-1.3-2.3-3.2-2.3-5.7v-16.1c0-2.4,0.8-4.3,2.3-5.7c1.5-1.3,3.7-2,6.5-2c2.8,0,5,0.7,6.5,2
			c1.5,1.3,2.3,3.2,2.3,5.7v16.1c0,2.4-0.8,4.3-2.3,5.7c-1.5,1.3-3.7,2-6.5,2C312.5,997.2,310.4,996.6,308.9,995.2z M318.4,989.9
			v-16.7c0-2-1-3-3-3c-2,0-3,1-3,3v16.7c0,2,1,3,3,3C317.4,992.9,318.4,991.9,318.4,989.9z"/>
		<path class="st0" d="M328,966.2h8.2l3.7,21.9h0.1l3.7-21.9h8.2v30.6h-5.5v-23.2h-0.1l-4.2,23.2h-4.8l-4.2-23.2h-0.1v23.2h-5V966.2
			z"/>
		<path class="st0" d="M356.3,966.2H372v4.4h-10v8.1h7.9v4.4H362v9.4h10v4.4h-15.7V966.2z"/>
	</g>
	<g>
		<path class="st0" d="M487,968.7h4.8v25.7H487V968.7z"/>
		<path class="st0" d="M495.5,968.7h6.1l4.7,15.4h0.1v-15.4h4.3v25.7h-5l-5.8-18.8h-0.1v18.8h-4.3V968.7z"/>
		<path class="st0" d="M515.2,993c-1.2-1.1-1.8-2.7-1.8-4.8v-1.5h4.6v1.8c0,1.7,0.8,2.5,2.5,2.5c0.8,0,1.4-0.2,1.9-0.6
			c0.4-0.4,0.6-1.1,0.6-2c0-1.1-0.3-2-0.9-2.8c-0.6-0.8-1.7-1.8-3.3-3c-2-1.5-3.4-2.8-4.2-4c-0.8-1.2-1.2-2.5-1.2-4
			c0-2,0.6-3.6,1.8-4.7c1.2-1.1,3-1.7,5.4-1.7c2.3,0,4.1,0.6,5.3,1.7c1.2,1.1,1.8,2.7,1.8,4.8v1.1h-4.6v-1.3c0-0.9-0.2-1.5-0.6-1.9
			c-0.4-0.4-1-0.6-1.8-0.6c-1.6,0-2.4,0.8-2.4,2.5c0,0.9,0.3,1.8,0.9,2.6c0.6,0.8,1.7,1.8,3.3,2.9c2,1.5,3.4,2.8,4.2,4
			c0.8,1.2,1.1,2.6,1.1,4.2c0,2.1-0.6,3.7-1.9,4.8c-1.2,1.1-3.1,1.7-5.4,1.7C518.2,994.7,516.4,994.2,515.2,993z"/>
		<path class="st0" d="M530.6,968.7h13.2v3.7h-8.4v6.8h6.7v3.7h-6.7v7.9h8.4v3.7h-13.2V968.7z"/>
		<path class="st0" d="M546.6,968.7h7.2c2.5,0,4.3,0.5,5.5,1.4c1.1,1,1.7,2.5,1.7,4.5v1.6c0,2.7-1.1,4.4-3.2,5.1v0.1
			c1.2,0.3,2,0.9,2.5,1.8c0.5,0.9,0.7,2.1,0.7,3.6v4.5c0,0.7,0,1.3,0.1,1.8c0.1,0.5,0.2,0.9,0.4,1.3h-4.9c-0.2-0.4-0.3-0.8-0.4-1.2
			c-0.1-0.4-0.1-1-0.1-2v-4.7c0-1.2-0.2-2-0.7-2.5c-0.5-0.5-1.2-0.7-2.4-0.7h-1.7v11h-4.8V968.7z M553.2,979.7c1,0,1.7-0.2,2.2-0.6
			c0.5-0.4,0.7-1.1,0.7-2.1v-2c0-0.9-0.2-1.6-0.6-2c-0.4-0.4-1-0.6-1.9-0.6h-2.2v7.3H553.2z"/>
		<path class="st0" d="M568.1,972.3H563v-3.7h15v3.7h-5.1v22h-4.8V972.3z"/>
	</g>
	<g>
		<path class="st0" d="M909.5,965.4h16.6v4.6h-10.5v8.5h8.3v4.6h-8.3v9.9h10.5v4.6h-16.6V965.4z"/>
		<path class="st0" d="M929.6,965.4h7.6l5.9,19.3h0.1v-19.3h5.4v32.2h-6.2l-7.3-23.5H935v23.5h-5.4V965.4z"/>
		<path class="st0" d="M953.2,965.4h9.3c3,0,5.3,0.7,6.8,2c1.5,1.4,2.3,3.3,2.3,5.9v16.3c0,2.6-0.8,4.6-2.3,5.9
			c-1.5,1.4-3.8,2-6.8,2h-9.3V965.4z M962.3,993c1,0,1.8-0.2,2.3-0.7c0.5-0.5,0.8-1.3,0.8-2.4v-16.8c0-1.1-0.3-1.9-0.8-2.4
			c-0.5-0.5-1.3-0.7-2.3-0.7h-3.1v23H962.3z"/>
	</g>
	<g>
		<path class="st0" d="M1102.9,965.4h9c3,0,5.3,0.7,6.8,2c1.5,1.4,2.3,3.3,2.3,5.9v3.2c0,2.6-0.8,4.6-2.3,5.9c-1.5,1.4-3.8,2-6.8,2
			h-2.9v13.1h-6.1V965.4z M1111.9,979.9c1,0,1.7-0.2,2.2-0.7c0.5-0.5,0.7-1.2,0.7-2.3V973c0-1.1-0.2-1.9-0.7-2.3
			c-0.5-0.5-1.2-0.7-2.2-0.7h-2.9v9.9H1111.9z"/>
		<path class="st0" d="M1126.1,996c-1.5-1.4-2.3-3.4-2.3-6v-17c0-2.6,0.8-4.6,2.3-6c1.5-1.4,3.8-2.1,6.7-2.1c2.9,0,5.2,0.7,6.7,2.1
			c1.5,1.4,2.3,3.4,2.3,6v2.8h-5.7v-3.1c0-2.1-1.1-3.2-3.2-3.2c-2.1,0-3.2,1.1-3.2,3.2v17.6c0,2.1,1,3.1,3.2,3.1
			c2.1,0,3.2-1,3.2-3.1V984h-3v-4.6h8.8V990c0,2.6-0.8,4.6-2.3,6c-1.5,1.4-3.8,2.1-6.7,2.1C1129.9,998.1,1127.7,997.4,1126.1,996z"
			/>
		<path class="st0" d="M1148,996c-1.5-1.4-2.3-3.4-2.3-6v-24.6h6.1v25c0,1.1,0.3,1.9,0.8,2.4c0.5,0.5,1.3,0.7,2.3,0.7
			c1,0,1.8-0.2,2.3-0.7c0.5-0.5,0.8-1.3,0.8-2.4v-25h5.9V990c0,2.6-0.8,4.6-2.3,6c-1.5,1.4-3.8,2.1-6.7,2.1
			C1151.7,998.1,1149.5,997.4,1148,996z"/>
		<path class="st0" d="M1168.1,965.4h9c3,0,5.3,0.7,6.8,2c1.5,1.4,2.3,3.3,2.3,5.9v3.2c0,2.6-0.8,4.6-2.3,5.9c-1.5,1.4-3.8,2-6.8,2
			h-2.9v13.1h-6.1V965.4z M1177,979.9c1,0,1.7-0.2,2.2-0.7c0.5-0.5,0.7-1.2,0.7-2.3V973c0-1.1-0.2-1.9-0.7-2.3
			c-0.5-0.5-1.2-0.7-2.2-0.7h-2.9v9.9H1177z"/>
	</g>
	<g>
		<path class="st0" d="M694.3,965.4h9c3,0,5.3,0.7,6.8,2c1.5,1.4,2.3,3.3,2.3,5.9v3.2c0,2.6-0.8,4.6-2.3,5.9c-1.5,1.4-3.8,2-6.8,2
			h-2.9v13.1h-6.1V965.4z M703.2,979.9c1,0,1.7-0.2,2.2-0.7c0.5-0.5,0.7-1.2,0.7-2.3V973c0-1.1-0.2-1.9-0.7-2.3
			c-0.5-0.5-1.2-0.7-2.2-0.7h-2.9v9.9H703.2z"/>
		<path class="st0" d="M717.5,996c-1.5-1.4-2.3-3.4-2.3-6v-17c0-2.6,0.8-4.6,2.3-6c1.5-1.4,3.8-2.1,6.7-2.1c2.9,0,5.2,0.7,6.7,2.1
			c1.5,1.4,2.3,3.4,2.3,6v2.8h-5.7v-3.1c0-2.1-1.1-3.2-3.2-3.2c-2.1,0-3.2,1.1-3.2,3.2v17.6c0,2.1,1,3.1,3.2,3.1
			c2.1,0,3.2-1,3.2-3.1V984h-3v-4.6h8.8V990c0,2.6-0.8,4.6-2.3,6c-1.5,1.4-3.8,2.1-6.7,2.1C721.3,998.1,719,997.4,717.5,996z"/>
		<path class="st0" d="M737.2,965.4h9.3c3,0,5.3,0.7,6.8,2c1.5,1.4,2.3,3.3,2.3,5.9v16.3c0,2.6-0.8,4.6-2.3,5.9
			c-1.5,1.4-3.8,2-6.8,2h-9.3V965.4z M746.4,993c1,0,1.8-0.2,2.3-0.7c0.5-0.5,0.8-1.3,0.8-2.4v-16.8c0-1.1-0.3-1.9-0.8-2.4
			c-0.5-0.5-1.3-0.7-2.3-0.7h-3.1v23H746.4z"/>
		<path class="st0" d="M759.7,965.4h7.6l5.9,19.3h0.1v-19.3h5.4v32.2h-6.2l-7.3-23.5h-0.1v23.5h-5.4V965.4z"/>
	</g>
	<g>
		<path class="st0" d="M278,1148.8h4.9c1.7,0,2.9,0.3,3.7,1c0.8,0.7,1.2,1.7,1.2,3v0.7c0,0.9-0.2,1.6-0.5,2.2
			c-0.3,0.6-0.9,1-1.6,1.2v0c1.6,0.5,2.4,1.7,2.4,3.6v1.5c0,1.3-0.4,2.4-1.3,3.1c-0.8,0.7-2.1,1.1-3.7,1.1H278V1148.8z
			 M282.5,1155.9c0.7,0,1.1-0.1,1.5-0.4c0.3-0.3,0.5-0.8,0.5-1.4v-1c0-0.6-0.1-1.1-0.4-1.4c-0.3-0.3-0.7-0.4-1.3-0.4h-1.6v4.6H282.5
			z M283.1,1163.7c0.6,0,1-0.1,1.3-0.4c0.3-0.3,0.4-0.7,0.4-1.3v-1.5c0-0.8-0.2-1.3-0.5-1.6c-0.3-0.3-0.9-0.5-1.6-0.5h-1.5v5.3
			H283.1z"/>
		<path class="st0" d="M292.5,1148.8h4.4l3.4,17.3h-3.3l-0.6-3.4v0h-3.7l-0.6,3.4h-3L292.5,1148.8z M296.1,1160.4l-1.5-8.6h-0.1
			l-1.4,8.6H296.1z"/>
		<path class="st0" d="M302.9,1165.3c-0.8-0.7-1.2-1.8-1.2-3.1v-9.3c0-1.4,0.4-2.4,1.2-3.1c0.8-0.7,2-1.1,3.6-1.1
			c1.6,0,2.8,0.4,3.6,1.1c0.8,0.7,1.2,1.8,1.2,3.1v1.8h-3.1v-2c0-1.1-0.5-1.6-1.6-1.6c-1.1,0-1.6,0.5-1.6,1.6v9.7
			c0,1.1,0.5,1.6,1.6,1.6c1.1,0,1.6-0.5,1.6-1.6v-2.7h3.1v2.5c0,1.4-0.4,2.4-1.2,3.1c-0.8,0.7-2,1.1-3.6,1.1
			C304.9,1166.4,303.7,1166,302.9,1165.3z"/>
		<path class="st0" d="M313.3,1148.8h3.3v7.3l4.2-7.3h3.3l-3.9,6.4l4,11h-3.4l-2.8-7.7l-1.3,2.2v5.5h-3.3V1148.8z"/>
		<path class="st0" d="M326,1165.3c-0.8-0.8-1.2-1.8-1.2-3.2v-1h3.1v1.2c0,1.1,0.6,1.7,1.7,1.7c0.6,0,1-0.1,1.3-0.4
			c0.3-0.3,0.4-0.7,0.4-1.3c0-0.7-0.2-1.4-0.6-1.9c-0.4-0.6-1.1-1.2-2.2-2c-1.3-1-2.3-1.9-2.8-2.7c-0.5-0.8-0.8-1.7-0.8-2.7
			c0-1.4,0.4-2.4,1.2-3.2c0.8-0.8,2-1.1,3.6-1.1c1.6,0,2.7,0.4,3.6,1.1c0.8,0.8,1.2,1.8,1.2,3.2v0.7h-3.1v-0.9c0-0.6-0.1-1-0.4-1.3
			c-0.3-0.3-0.7-0.4-1.2-0.4c-1.1,0-1.6,0.6-1.6,1.7c0,0.6,0.2,1.2,0.6,1.8c0.4,0.5,1.1,1.2,2.2,2c1.4,1,2.3,1.9,2.8,2.7
			c0.5,0.8,0.8,1.8,0.8,2.8c0,1.4-0.4,2.5-1.3,3.3c-0.8,0.8-2.1,1.1-3.7,1.1C328,1166.4,326.8,1166,326,1165.3z"/>
		<path class="st0" d="M336.4,1148.8h4.8c1.6,0,2.8,0.4,3.7,1.1c0.8,0.7,1.2,1.8,1.2,3.2v1.7c0,1.4-0.4,2.5-1.2,3.2
			c-0.8,0.7-2,1.1-3.7,1.1h-1.5v7.1h-3.3V1148.8z M341.2,1156.6c0.5,0,0.9-0.1,1.2-0.4c0.3-0.2,0.4-0.7,0.4-1.3v-2.1
			c0-0.6-0.1-1-0.4-1.3c-0.3-0.2-0.7-0.4-1.2-0.4h-1.5v5.3H341.2z"/>
		<path class="st0" d="M349.4,1148.8h4.4l3.4,17.3h-3.3l-0.6-3.4v0h-3.7l-0.6,3.4h-3L349.4,1148.8z M352.9,1160.4l-1.5-8.6h-0.1
			l-1.4,8.6H352.9z"/>
		<path class="st0" d="M359.7,1165.3c-0.8-0.7-1.2-1.8-1.2-3.1v-9.3c0-1.4,0.4-2.4,1.2-3.1c0.8-0.7,2-1.1,3.6-1.1
			c1.6,0,2.8,0.4,3.6,1.1c0.8,0.7,1.2,1.8,1.2,3.1v1.8H365v-2c0-1.1-0.5-1.6-1.6-1.6c-1.1,0-1.6,0.5-1.6,1.6v9.7
			c0,1.1,0.5,1.6,1.6,1.6c1.1,0,1.6-0.5,1.6-1.6v-2.7h3.1v2.5c0,1.4-0.4,2.4-1.2,3.1c-0.8,0.7-2,1.1-3.6,1.1
			C361.7,1166.4,360.5,1166,359.7,1165.3z"/>
		<path class="st0" d="M370.1,1148.8h8.9v2.5h-5.6v4.6h4.5v2.5h-4.5v5.3h5.6v2.5h-8.9V1148.8z"/>
	</g>
	<g>
		<path class="st0" d="M722.8,1519.3l9.8-8.3l-14.1-2.4l2.6-6.3l13.2,5l-1.8-11.6h8.3l-1.8,11.6l13.2-5l2.6,6.3l-14.1,2.4l9.8,8.3
			l-6.6,3.9l-7.1-10l-7.1,10L722.8,1519.3z"/>
	</g>
	<g>
		<path class="st0" d="M923.4,1483.7h8.8l25.4,51.6h-8.8L923.4,1483.7z"/>
	</g>
	<g>
		<path class="st0" d="M1152.8,1483.7h8.8l-25.4,51.6h-8.8L1152.8,1483.7z"/>
	</g>
	<g>
		<path class="st0" d="M1343.1,1536.4c-2.2-1.7-3.3-4.6-3.3-8.7v-36.4c0-4.1,1.1-7,3.3-8.7c2.2-1.7,5.8-2.6,10.9-2.6h3.1v6.6h-2.5
			c-1.7,0-2.9,0.3-3.6,1c-0.7,0.7-1.1,1.9-1.1,3.6v36.4c0,1.8,0.4,3,1.1,3.6c0.7,0.7,1.9,1,3.6,1h2.5v6.6h-3.1
			C1348.9,1539,1345.3,1538.1,1343.1,1536.4z"/>
	</g>
	<g>
		<path class="st0" d="M1543.8,1532.3h2.5c1.7,0,2.9-0.3,3.6-1c0.7-0.7,1.1-1.9,1.1-3.6v-36.4c0-1.8-0.4-3-1.1-3.6
			c-0.7-0.7-1.9-1-3.6-1h-2.5v-6.6h3.1c5.1,0,8.7,0.9,10.9,2.6c2.2,1.7,3.3,4.6,3.3,8.7v36.4c0,4.1-1.1,7-3.3,8.7
			c-2.2,1.7-5.8,2.6-10.9,2.6h-3.1V1532.3z"/>
	</g>
	<g>
		<path class="st0" d="M116.1,1656h16.8v6.6h-6.6v45.7h6.6v6.6h-16.8V1656z"/>
	</g>
	<g>
		<path class="st0" d="M320.1,1708.3h6.6v-45.7h-6.6v-6.6h16.8v59h-16.8V1708.3z"/>
	</g>
	<g>
		<path class="st0" d="M530.6,1712.9c-1.9-1.4-2.9-3.4-2.9-6.1v-13.6c0-1.7-0.4-2.9-1.2-3.5c-0.8-0.6-2.3-0.9-4.6-0.9v-6.6
			c2.3,0,3.8-0.3,4.6-0.9c0.8-0.6,1.2-1.8,1.2-3.5v-13.6c0-2.7,1-4.7,2.9-6.1c1.9-1.4,4.4-2.1,7.4-2.1h5.2v6.6h-1.5
			c-1.7,0-2.9,0.4-3.7,1.1c-0.8,0.8-1.2,2.1-1.2,4.1v11.1c0,3.4-1.9,5.6-5.6,6.5v0.1c3.7,0.9,5.6,3,5.6,6.5v11.1
			c0,2,0.4,3.3,1.2,4.1c0.8,0.8,2,1.1,3.7,1.1h1.5v6.6h-5.2C534.9,1715,532.5,1714.3,530.6,1712.9z"/>
	</g>
	<g>
		<path class="st0" d="M725.9,1708.3h1.5c1.7,0,2.9-0.4,3.7-1.1c0.8-0.8,1.2-2.1,1.2-4.1v-11.1c0-3.4,1.9-5.6,5.6-6.5v-0.1
			c-3.7-0.9-5.6-3-5.6-6.5v-11.1c0-2-0.4-3.3-1.2-4.1c-0.8-0.8-2-1.1-3.7-1.1h-1.5v-6.6h5.2c3,0,5.5,0.7,7.4,2.1
			c1.9,1.4,2.9,3.4,2.9,6.1v13.6c0,1.7,0.4,2.9,1.2,3.5c0.8,0.6,2.3,0.9,4.6,0.9v6.6c-2.3,0-3.8,0.3-4.6,0.9
			c-0.8,0.6-1.2,1.8-1.2,3.5v13.6c0,2.7-1,4.7-2.9,6.1c-1.9,1.4-4.4,2.1-7.4,2.1h-5.2V1708.3z"/>
	</g>
	<g>
		<path class="st0" d="M1743.5,1520.6h-4.5l0.7-5.7h4.5l1.7-13.5h-4.6l0.7-5.7h4.6l1.6-11.9h8l-1.6,11.9h6.5l1.6-11.9h8l-1.6,11.9
			h4.7l-0.7,5.7h-4.7l-1.7,13.5h4.7l-0.7,5.7h-4.7l-1.9,14.7h-8l1.9-14.7h-6.5l-1.9,14.7h-8L1743.5,1520.6z M1758.8,1514.8l1.7-13.5
			h-6.5l-1.7,13.5H1758.8z"/>
	</g>
	<g>
		<path class="st0" d="M935.4,1681.2v-21.5h10.1v21.5l-1.3,16.4h-7.6L935.4,1681.2z M935.6,1703.5h9.8v7.8h-9.8V1703.5z"/>
	</g>
	<g>
		<path class="st0" d="M1343.3,1862.8l5.6-9.7h4.7l-3.9,8.8h3.3v7.8h-9.8V1862.8z"/>
	</g>
	<g>
		<path class="st0" d="M1540.5,1862.8l5.6-9.7h4.7l-3.9,8.8h3.3v7.8h-9.8V1862.8z M1554.2,1862.8l5.6-9.7h4.7l-3.9,8.8h3.3v7.8h-9.8
			V1862.8z"/>
	</g>
	<g>
		<path class="st0" d="M1344.9,1688.3h-12.3v-5.7h12.3v-9.9h7.2v9.9h12.3v5.7h-12.3v10.1h-7.2V1688.3z"/>
	</g>
	<g>
		<path class="st0" d="M1542.4,1681.8h20.3v7.4h-20.3V1681.8z"/>
	</g>
	<g>
		<path class="st0" d="M1752.4,1709.8c-3.6-0.6-6.3-1.9-8.2-4.1c-1.9-2.1-2.8-4.8-2.8-8.1v-3.4h9.6v3.9c0,3,1.8,4.5,5.3,4.5
			c3.5,0,5.3-1.5,5.3-4.6c0-1.9-0.6-3.6-1.8-5.2c-1.2-1.5-3.5-3.4-6.8-5.4c-4.1-2.6-7-5-8.7-7.3c-1.7-2.3-2.5-4.8-2.5-7.7
			c0-3.2,0.9-5.8,2.7-7.9c1.8-2.1,4.5-3.4,8-4.1v-4.5h8.3v4.5c3.6,0.6,6.3,1.9,8.1,4c1.8,2.1,2.8,4.8,2.8,8.1v1.5h-9.6v-2
			c0-3-1.7-4.6-5.1-4.6c-3.4,0-5.1,1.5-5.1,4.4c0,1.8,0.6,3.4,1.8,4.9c1.2,1.5,3.5,3.3,6.8,5.4c4.1,2.7,7,5.1,8.7,7.4
			c1.7,2.3,2.5,4.9,2.5,7.8c0,3.3-0.9,6.1-2.8,8.2c-1.9,2.1-4.6,3.5-8.2,4.1v5.2h-8.3V1709.8z"/>
	</g>
	<g>
		<path class="st0" d="M697.7,1136.9h22.1v5.9h-14v10.9h11.1v5.9h-11.1v12.7h14v5.9h-22.1V1136.9z"/>
		<path class="st0" d="M726.2,1176c-2-1.8-3-4.4-3-7.7v-2.4h7.7v2.8c0,2.7,1.4,4,4.2,4c1.4,0,2.4-0.3,3.1-1c0.7-0.6,1.1-1.7,1.1-3.2
			c0-1.7-0.5-3.3-1.5-4.6c-1-1.3-2.8-2.9-5.5-4.7c-3.3-2.4-5.7-4.5-7-6.4c-1.3-1.9-2-4.1-2-6.5c0-3.3,1-5.8,3.1-7.6
			c2.1-1.8,5.1-2.7,9-2.7c3.9,0,6.8,0.9,8.8,2.7c2,1.8,3,4.4,3,7.7v1.7h-7.7v-2.1c0-1.4-0.3-2.4-1-3.1c-0.7-0.6-1.7-1-3-1
			c-2.7,0-4.1,1.3-4.1,3.9c0,1.5,0.5,2.9,1.5,4.2c1,1.3,2.8,2.9,5.5,4.7c3.4,2.4,5.7,4.5,7,6.4c1.3,1.9,1.9,4.2,1.9,6.8
			c0,3.4-1,6-3.1,7.8c-2.1,1.8-5.1,2.7-9.1,2.7C731.2,1178.7,728.2,1177.8,726.2,1176z"/>
		<path class="st0" d="M754.5,1176.1c-2-1.8-3.1-4.3-3.1-7.5v-22.2c0-3.2,1-5.7,3.1-7.5c2-1.8,5-2.7,8.9-2.7c3.9,0,6.8,0.9,8.9,2.7
			c2,1.8,3.1,4.3,3.1,7.5v4.4h-7.7v-4.8c0-2.6-1.4-3.8-4.1-3.8c-2.7,0-4.1,1.3-4.1,3.8v23.1c0,2.5,1.4,3.8,4.1,3.8
			c2.7,0,4.1-1.3,4.1-3.8v-6.3h7.7v5.8c0,3.2-1,5.7-3.1,7.5c-2,1.8-5,2.7-8.9,2.7C759.5,1178.7,756.6,1177.8,754.5,1176.1z"/>
	</g>
	<g>
		<path class="st0" d="M121.1,1851.6h6.8l13.2,19.9h-8.3l-8.3-12.5l-8.3,12.5h-8.3L121.1,1851.6z"/>
	</g>
	<g>
		<path class="st0" d="M323.6,1857.6h9.8v7.8h-9.8V1857.6z"/>
	</g>
	<g>
		<path class="st0" d="M901.4,1136.9h12.4c4,0,7,0.9,9.1,2.6c2,1.7,3,4.3,3,7.6v20.9c0,3.3-1,5.9-3,7.6c-2,1.7-5,2.6-9.1,2.6h-12.4
			V1136.9z M913.7,1172.2c1.3,0,2.3-0.3,3.1-0.9c0.7-0.6,1.1-1.7,1.1-3.1v-21.5c0-1.4-0.4-2.4-1.1-3.1c-0.7-0.6-1.7-0.9-3.1-0.9
			h-4.1v29.5H913.7z"/>
		<path class="st0" d="M931.4,1136.9h22.1v5.9h-14v10.9h11.1v5.9h-11.1v12.7h14v5.9h-22.1V1136.9z"/>
		<path class="st0" d="M958.1,1136.9h8.1v35.4h13.3v5.9h-21.4V1136.9z"/>
	</g>
	<g>
		<path class="st0" d="M527.6,1843.6h9.8v7.8h-9.8V1843.6z M527.6,1871.6h9.8v7.8h-9.8V1871.6z"/>
	</g>
	<g>
		<path class="st0" d="M735.2,1875h-3.3v-7.8h9.8v7l-5.6,9.7h-4.7L735.2,1875z M731.9,1839.1h9.8v7.8h-9.8V1839.1z"/>
	</g>
	<g>
		<path class="st0" d="M1122,1708.1c-4.9-4.6-7.3-10.9-7.3-18.9c0-6.2,1.3-11.9,3.8-16.9c2.5-5,6.4-9,11.5-11.9
			c5.1-2.9,11.3-4.4,18.7-4.4c9.1,0,15.6,2,19.6,5.9c4,3.9,6,9.2,6,15.8c0,5.5-1,10-2.9,13.4c-1.9,3.4-4.2,5.9-7,7.4
			c-2.7,1.5-5.5,2.2-8.2,2.2c-5,0-7.6-1.6-8-4.9h-0.2c-0.9,1.5-2.1,2.6-3.5,3.4c-1.4,0.7-3.1,1.1-5.2,1.1c-2.8,0-4.9-0.8-6.4-2.3
			c-1.5-1.5-2.3-3.7-2.3-6.5c0-0.6,0.1-1.4,0.2-2.5l1-7.4c1-7.3,4.7-10.9,11.1-10.9c3.8,0,6.3,1.5,7.6,4.5h0.2l0.8-4.2h8.6
			l-2.7,20.6l-0.1,1.2c0,0.9,0.6,1.4,1.8,1.4c2.4,0,4.2-1.7,5.5-5c1.3-3.4,1.9-7.1,1.9-11.2c0-4.8-1.5-8.6-4.5-11.4
			c-3-2.8-7.6-4.2-13.8-4.2c-8.1,0-14.3,2.4-18.6,7.2c-4.3,4.8-6.4,11.5-6.4,20c0,6.1,1.8,10.8,5.4,14.2c3.6,3.4,8.9,5,16.1,5
			c3.7,0,7-0.4,10-1.1c3-0.7,6-2,9.1-3.9l-0.7,7.1c-2.9,1.5-5.8,2.6-8.8,3.2c-3,0.6-6.4,0.9-10,0.9
			C1134.3,1715,1126.8,1712.7,1122,1708.1z M1149.1,1688.8l0.9-7l0.1-0.9c0-1.1-0.4-1.9-1.1-2.4c-0.7-0.5-1.7-0.8-2.9-0.8
			c-1.5,0-2.7,0.4-3.6,1.1c-0.9,0.7-1.4,1.9-1.7,3.6l-0.8,6.3l-0.1,1.1c0,1.3,0.4,2.2,1.1,2.8c0.7,0.6,1.7,0.9,3,0.9
			C1146.9,1693.5,1148.6,1691.9,1149.1,1688.8z"/>
	</g>
	<g>
		<path class="st0" d="M926.7,1858.6h27.6v5.9h-27.6V1858.6z"/>
	</g>
	<g>
		<path class="st0" d="M1130.6,1884.6c-1.9-2-2.9-4.9-2.9-8.8v-5.4c0-2.7,0.6-5,1.7-6.8c1.2-1.8,3.1-3.1,5.7-4v-0.1
			c-2.4-0.8-4.2-2.1-5.3-3.8c-1.1-1.7-1.7-4-1.7-6.7v-1c0-4.2,1.3-7.3,3.8-9.5c2.5-2.2,6.3-3.2,11.3-3.2h11.6v7.4h-11.4
			c-1.7,0-2.9,0.4-3.8,1.2c-0.9,0.8-1.3,2.1-1.3,3.8v3.2c0,2,0.5,3.4,1.5,4.2c1,0.8,2.5,1.3,4.6,1.3h4v-5.7h9.9v5.7h2.9v7.4h-2.9v17
			c0,1.5,0.1,2.7,0.2,3.6c0.1,0.9,0.4,1.8,0.9,2.7h-10.1c-0.5-1.1-0.8-2.4-0.9-4.1h-0.2c-1.1,1.6-2.4,2.8-3.8,3.6
			c-1.4,0.8-3.2,1.2-5.4,1.2C1135.3,1887.7,1132.5,1886.7,1130.6,1884.6z M1148.4,1875.7v-11.9h-3.9c-2.3,0-4,0.5-5.1,1.5
			c-1,1-1.6,2.7-1.6,5v5.2c0,1.7,0.4,2.9,1.3,3.7c0.9,0.7,2.1,1.1,3.6,1.1C1146,1880.3,1147.9,1878.7,1148.4,1875.7z"/>
	</g>
	<g>
		<g>
			<rect x="1517.6" y="1127.8" class="st0" width="32.1" height="26.1"/>
		</g>
		<g>
			<rect x="1555.3" y="1127.8" class="st0" width="32.1" height="26.1"/>
		</g>
		<g>
			<rect x="1517.6" y="1161" class="st0" width="32.1" height="26.1"/>
		</g>
		<g>
			<rect x="1555.3" y="1161" class="st0" width="32.1" height="26.1"/>
		</g>
	</g>
</g>
</svg>
