# Blender v3.4.1 OBJ File: 'Platformer_Pack_Export_EXTRA.blend'
# www.blender.org
mtllib cannon_base_green.mtl
o cannon_base_green
v 0.000000 0.000000 0.000000
v -0.198912 0.050000 -1.000000
v 0.000000 0.500000 0.000000
v -0.198912 0.450000 -1.000000
v 0.198913 0.050000 -1.000000
v 0.198913 0.450000 -1.000000
v 0.566455 0.050000 -0.847759
v 0.566455 0.450000 -0.847759
v 0.847759 0.050000 -0.566455
v 0.847759 0.450000 -0.566455
v 1.000000 0.050000 -0.198912
v 1.000000 0.450000 -0.198912
v 1.000000 0.050000 0.198912
v 1.000000 0.450000 0.198912
v 0.847759 0.050000 0.566454
v 0.847759 0.450000 0.566454
v 0.566455 0.050000 0.847759
v 0.566455 0.450000 0.847759
v 0.198913 0.050000 1.000000
v 0.198913 0.450000 1.000000
v -0.198912 0.050000 1.000000
v -0.198912 0.450000 1.000000
v -0.566454 0.050000 0.847759
v -0.566454 0.450000 0.847759
v -0.847759 0.050000 0.566455
v -0.847759 0.450000 0.566455
v -1.000000 0.050000 0.198912
v -1.000000 0.450000 0.198912
v -1.000000 0.050000 -0.198913
v -1.000000 0.450000 -0.198913
v -0.847759 0.050000 -0.566454
v -0.847759 0.450000 -0.566454
v -0.566454 0.050000 -0.847759
v -0.566454 0.450000 -0.847759
v 0.190371 0.000000 -0.957059
v -0.190371 0.000000 -0.957059
v 0.542131 0.000000 -0.811356
v 0.811356 0.000000 -0.542130
v 0.957060 0.000000 -0.190371
v 0.957060 0.000000 0.190371
v 0.811356 0.000000 0.542130
v 0.542131 0.000000 0.811356
v 0.190371 0.000000 0.957059
v -0.190371 0.000000 0.957059
v -0.542130 0.000000 0.811356
v -0.811355 0.000000 0.542131
v -0.957059 0.000000 0.190371
v -0.957059 0.000000 -0.190371
v -0.811355 0.000000 -0.542130
v -0.542130 0.000000 -0.811356
v -0.190371 0.500000 -0.957059
v 0.190371 0.500000 -0.957059
v 0.542131 0.500000 -0.811356
v 0.811356 0.500000 -0.542130
v 0.957060 0.500000 -0.190371
v 0.957060 0.500000 0.190371
v 0.811356 0.500000 0.542130
v 0.542131 0.500000 0.811356
v 0.190371 0.500000 0.957059
v -0.190371 0.500000 0.957059
v -0.542130 0.500000 0.811356
v -0.811355 0.500000 0.542131
v -0.957059 0.500000 0.190371
v -0.957059 0.500000 -0.190371
v -0.811355 0.500000 -0.542130
v -0.542130 0.500000 -0.811356
v 0.492029 0.463913 -0.598073
v 0.492029 0.568189 -0.492021
v 0.583873 0.463913 -0.545047
v 0.583873 0.463913 -0.438995
v 0.492029 0.463913 -0.385969
v 0.400186 0.463913 -0.438995
v 0.400186 0.463913 -0.545047
v 0.593931 0.557766 -0.550854
v 0.492029 0.557766 -0.609687
v 0.593931 0.557766 -0.433189
v 0.492029 0.557766 -0.374356
v 0.390128 0.557766 -0.433189
v 0.390128 0.557766 -0.550854
v 0.492028 0.463913 0.598074
v 0.492028 0.568189 0.492022
v 0.400184 0.463913 0.545048
v 0.400184 0.463913 0.438996
v 0.492028 0.463913 0.385971
v 0.583872 0.463913 0.438996
v 0.583872 0.463913 0.545048
v 0.390127 0.557766 0.550855
v 0.492028 0.557766 0.609688
v 0.390127 0.557766 0.433190
v 0.492028 0.557766 0.374357
v 0.593929 0.557766 0.433190
v 0.593929 0.557766 0.550855
v -0.492016 0.463913 0.598073
v -0.492016 0.568189 0.492021
v -0.583859 0.463913 0.545047
v -0.583859 0.463913 0.438995
v -0.492016 0.463913 0.385969
v -0.400172 0.463913 0.438995
v -0.400172 0.463913 0.545047
v -0.593917 0.557766 0.550854
v -0.492016 0.557766 0.609686
v -0.593917 0.557766 0.433188
v -0.492016 0.557766 0.374356
v -0.390114 0.557766 0.433189
v -0.390114 0.557766 0.550854
v -0.492014 0.463913 -0.598075
v -0.492014 0.568189 -0.492023
v -0.400171 0.463913 -0.545049
v -0.400171 0.463913 -0.438997
v -0.492014 0.463913 -0.385971
v -0.583858 0.463913 -0.438997
v -0.583858 0.463913 -0.545049
v -0.390113 0.557766 -0.550856
v -0.492014 0.557766 -0.609688
v -0.390113 0.557766 -0.433190
v -0.492014 0.557766 -0.374358
v -0.593916 0.557766 -0.433190
v -0.593915 0.557766 -0.550856
v -0.106046 0.463913 -0.695829
v 0.000006 0.568189 -0.695829
v -0.053020 0.463913 -0.787673
v 0.053032 0.463913 -0.787673
v 0.106058 0.463913 -0.695829
v 0.053032 0.463913 -0.603985
v -0.053020 0.463913 -0.603985
v -0.058827 0.557766 -0.797730
v -0.117659 0.557766 -0.695829
v 0.058839 0.557766 -0.797730
v 0.117671 0.557766 -0.695829
v 0.058838 0.557766 -0.593928
v -0.058827 0.557766 -0.593928
v 0.801880 0.463913 -0.000004
v 0.695829 0.568189 -0.000004
v 0.748855 0.463913 0.091840
v 0.642803 0.463913 0.091840
v 0.589777 0.463913 -0.000004
v 0.642803 0.463913 -0.091848
v 0.748855 0.463913 -0.091847
v 0.754661 0.557766 0.101897
v 0.813494 0.557766 -0.000004
v 0.636996 0.557766 0.101897
v 0.578163 0.557766 -0.000004
v 0.636996 0.557766 -0.101905
v 0.754661 0.557766 -0.101905
v 0.106056 0.463913 0.695819
v 0.000004 0.568189 0.695819
v 0.053030 0.463913 0.787663
v -0.053022 0.463913 0.787663
v -0.106048 0.463913 0.695819
v -0.053022 0.463913 0.603975
v 0.053030 0.463913 0.603976
v 0.058836 0.557766 0.797720
v 0.117669 0.557766 0.695819
v -0.058829 0.557766 0.797720
v -0.117661 0.557766 0.695819
v -0.058829 0.557766 0.593918
v 0.058837 0.557766 0.593918
v -0.801871 0.463913 -0.000006
v -0.695819 0.568189 -0.000006
v -0.748845 0.463913 -0.091850
v -0.642794 0.463913 -0.091850
v -0.589768 0.463913 -0.000006
v -0.642794 0.463913 0.091837
v -0.748845 0.463913 0.091837
v -0.754652 0.557766 -0.101907
v -0.813485 0.557766 -0.000006
v -0.636987 0.557766 -0.101907
v -0.578154 0.557766 -0.000006
v -0.636987 0.557766 0.101895
v -0.754652 0.557766 0.101895
vt 0.312500 0.823675
vt 0.312500 0.877819
vt 0.335604 0.877819
vt 0.335604 0.823675
vt 0.335604 0.877819
vt 0.335604 0.823675
vt 0.312500 0.877819
vt 0.312500 0.823675
vt 0.289396 0.877819
vt 0.289396 0.823675
vt 0.289396 0.877819
vt 0.289396 0.823675
vt 0.312500 0.930267
vt 0.335604 0.906906
vt 0.312500 0.906906
vt 0.335604 0.906906
vt 0.312500 0.906906
vt 0.289396 0.906906
vt 0.289396 0.906906
vt 0.312500 0.823675
vt 0.312500 0.877819
vt 0.335604 0.877819
vt 0.335604 0.823675
vt 0.335604 0.877819
vt 0.335604 0.823675
vt 0.312500 0.877819
vt 0.312500 0.823675
vt 0.289396 0.877819
vt 0.289396 0.823675
vt 0.289396 0.877819
vt 0.289396 0.823675
vt 0.312500 0.930267
vt 0.335604 0.906906
vt 0.312500 0.906906
vt 0.335604 0.906906
vt 0.312500 0.906906
vt 0.289396 0.906906
vt 0.289396 0.906906
vt 0.312500 0.823675
vt 0.312500 0.877819
vt 0.335604 0.877819
vt 0.335604 0.823675
vt 0.335604 0.877819
vt 0.335604 0.823675
vt 0.312500 0.877819
vt 0.312500 0.823675
vt 0.289396 0.877819
vt 0.289396 0.823675
vt 0.289396 0.877819
vt 0.289396 0.823675
vt 0.312500 0.930267
vt 0.335604 0.906906
vt 0.312500 0.906906
vt 0.335604 0.906906
vt 0.312500 0.906906
vt 0.289396 0.906906
vt 0.289396 0.906906
vt 0.312500 0.823675
vt 0.312500 0.877819
vt 0.335604 0.877819
vt 0.335604 0.823675
vt 0.335604 0.877819
vt 0.335604 0.823675
vt 0.312500 0.877819
vt 0.312500 0.823675
vt 0.289396 0.877819
vt 0.289396 0.823675
vt 0.289396 0.877819
vt 0.289396 0.823675
vt 0.312500 0.930267
vt 0.335604 0.906906
vt 0.312500 0.906906
vt 0.335604 0.906906
vt 0.312500 0.906906
vt 0.289396 0.906906
vt 0.289396 0.906906
vt 0.312500 0.823675
vt 0.312500 0.877819
vt 0.335604 0.877819
vt 0.335604 0.823675
vt 0.335604 0.877819
vt 0.335604 0.823675
vt 0.312500 0.877819
vt 0.312500 0.823675
vt 0.289396 0.877819
vt 0.289396 0.823675
vt 0.289396 0.877819
vt 0.289396 0.823675
vt 0.312500 0.930267
vt 0.335604 0.906906
vt 0.312500 0.906906
vt 0.335604 0.906906
vt 0.312500 0.906906
vt 0.289396 0.906906
vt 0.289396 0.906906
vt 0.312500 0.823675
vt 0.312500 0.877819
vt 0.335604 0.877819
vt 0.335604 0.823675
vt 0.335604 0.877819
vt 0.335604 0.823675
vt 0.312500 0.877819
vt 0.312500 0.823675
vt 0.289396 0.877819
vt 0.289396 0.823675
vt 0.289396 0.877819
vt 0.289396 0.823675
vt 0.312500 0.930267
vt 0.335604 0.906906
vt 0.312500 0.906906
vt 0.335604 0.906906
vt 0.312500 0.906906
vt 0.289396 0.906906
vt 0.289396 0.906906
vt 0.312500 0.823675
vt 0.312500 0.877819
vt 0.335604 0.877819
vt 0.335604 0.823675
vt 0.335604 0.877819
vt 0.335604 0.823675
vt 0.312500 0.877819
vt 0.312500 0.823675
vt 0.289396 0.877819
vt 0.289396 0.823675
vt 0.289396 0.877819
vt 0.289396 0.823675
vt 0.312500 0.930267
vt 0.335604 0.906906
vt 0.312500 0.906906
vt 0.335604 0.906906
vt 0.312500 0.906906
vt 0.289396 0.906906
vt 0.289396 0.906906
vt 0.312500 0.823675
vt 0.312500 0.877819
vt 0.335604 0.877819
vt 0.335604 0.823675
vt 0.335604 0.877819
vt 0.335604 0.823675
vt 0.312500 0.877819
vt 0.312500 0.823675
vt 0.289396 0.877819
vt 0.289396 0.823675
vt 0.289396 0.877819
vt 0.289396 0.823675
vt 0.312500 0.930267
vt 0.335604 0.906906
vt 0.312500 0.906906
vt 0.335604 0.906906
vt 0.312500 0.906906
vt 0.289396 0.906906
vt 0.289396 0.906906
vt 0.418408 0.145286
vt 0.418408 0.167214
vt 0.430796 0.167214
vt 0.430796 0.145286
vt 0.456594 0.145286
vt 0.456594 0.167214
vt 0.466076 0.167214
vt 0.466076 0.145286
vt 0.471208 0.167214
vt 0.471208 0.145286
vt 0.471208 0.167214
vt 0.471208 0.145286
vt 0.466076 0.167214
vt 0.466076 0.145286
vt 0.456594 0.167214
vt 0.456594 0.145286
vt 0.444206 0.167214
vt 0.444206 0.145286
vt 0.430796 0.167214
vt 0.430796 0.145286
vt 0.418408 0.167214
vt 0.418408 0.145286
vt 0.408926 0.167214
vt 0.408926 0.145286
vt 0.403794 0.167214
vt 0.403794 0.145286
vt 0.403794 0.167214
vt 0.403794 0.145286
vt 0.408926 0.167214
vt 0.408926 0.145286
vt 0.444206 0.145286
vt 0.444206 0.167214
vt 0.430796 0.176536
vt 0.444206 0.176536
vt 0.443982 0.173795
vt 0.431020 0.173795
vt 0.444206 0.198464
vt 0.430796 0.198464
vt 0.431020 0.201205
vt 0.443982 0.201205
vt 0.456594 0.176536
vt 0.455958 0.173795
vt 0.456594 0.198464
vt 0.455958 0.201205
vt 0.466076 0.176536
vt 0.465124 0.173795
vt 0.466076 0.198464
vt 0.465124 0.201205
vt 0.471208 0.176536
vt 0.470084 0.173795
vt 0.471208 0.198464
vt 0.470084 0.201205
vt 0.471208 0.176536
vt 0.470084 0.173795
vt 0.471208 0.198464
vt 0.470084 0.201205
vt 0.466076 0.176536
vt 0.465124 0.173795
vt 0.466076 0.198464
vt 0.465124 0.201205
vt 0.456594 0.176536
vt 0.455958 0.173795
vt 0.456594 0.198464
vt 0.455958 0.201205
vt 0.444206 0.176536
vt 0.443982 0.173795
vt 0.444206 0.198464
vt 0.443982 0.201205
vt 0.430796 0.176536
vt 0.431020 0.173795
vt 0.430796 0.198464
vt 0.431020 0.201205
vt 0.418408 0.176536
vt 0.419044 0.173795
vt 0.418408 0.198464
vt 0.419044 0.201205
vt 0.408926 0.176536
vt 0.409879 0.173795
vt 0.408926 0.198464
vt 0.409879 0.201205
vt 0.403794 0.176536
vt 0.404918 0.173795
vt 0.403794 0.198464
vt 0.404918 0.201205
vt 0.403794 0.176536
vt 0.404918 0.173795
vt 0.403794 0.198464
vt 0.404918 0.201205
vt 0.408926 0.176536
vt 0.409878 0.173795
vt 0.408926 0.198464
vt 0.409879 0.201205
vt 0.418408 0.176536
vt 0.419044 0.173795
vt 0.418408 0.198464
vt 0.419044 0.201205
vt 0.431597 0.142545
vt 0.431020 0.142545
vt 0.443982 0.142545
vt 0.443405 0.142545
vt 0.455958 0.142545
vt 0.454314 0.142545
vt 0.465124 0.142545
vt 0.462663 0.142545
vt 0.470084 0.142545
vt 0.467182 0.142545
vt 0.470084 0.142545
vt 0.465124 0.142545
vt 0.455958 0.142545
vt 0.443982 0.142545
vt 0.431020 0.142545
vt 0.419044 0.142545
vt 0.420689 0.142545
vt 0.409879 0.142545
vt 0.412339 0.142545
vt 0.404918 0.142545
vt 0.407820 0.142545
vt 0.404918 0.142545
vt 0.409878 0.142545
vt 0.419044 0.142545
vt 0.443714 0.169955
vt 0.443982 0.169955
vt 0.431020 0.169955
vt 0.455194 0.169955
vt 0.455958 0.169955
vt 0.463980 0.169955
vt 0.465124 0.169955
vt 0.468735 0.169955
vt 0.470084 0.169955
vt 0.470084 0.169955
vt 0.465124 0.169955
vt 0.455958 0.169955
vt 0.443982 0.169955
vt 0.431288 0.169955
vt 0.431020 0.169955
vt 0.419809 0.169955
vt 0.419044 0.169955
vt 0.411022 0.169955
vt 0.409879 0.169955
vt 0.406267 0.169955
vt 0.404918 0.169955
vt 0.404918 0.169955
vt 0.409879 0.169955
vt 0.419044 0.169955
vn 0.4972 -0.1066 -0.8611
vn 0.9943 -0.1066 0.0000
vn 0.4972 -0.1066 0.8611
vn -0.4972 -0.1066 0.8611
vn -0.9943 -0.1066 0.0000
vn -0.4972 -0.1066 -0.8611
vn 0.0509 0.9948 -0.0881
vn 0.1018 0.9948 0.0000
vn 0.0509 0.9948 0.0881
vn -0.0509 0.9948 0.0881
vn -0.1018 0.9948 0.0000
vn -0.0509 0.9948 -0.0881
vn -0.8611 -0.1066 -0.4972
vn 0.0000 -0.1066 -0.9943
vn 0.8611 -0.1066 -0.4972
vn 0.8611 -0.1066 0.4972
vn 0.0000 -0.1066 0.9943
vn -0.8611 -0.1066 0.4972
vn -0.0881 0.9948 -0.0509
vn 0.0000 0.9948 -0.1018
vn 0.0881 0.9948 -0.0509
vn 0.0881 0.9948 0.0509
vn 0.0000 0.9948 0.1018
vn -0.0881 0.9948 0.0509
vn -0.5556 0.0000 -0.8315
vn -0.1951 0.0000 -0.9808
vn 0.5556 0.0000 -0.8315
vn 0.8315 0.0000 -0.5556
vn 0.9808 0.0000 -0.1951
vn 0.9808 0.0000 0.1951
vn 0.8315 0.0000 0.5556
vn 0.5556 0.0000 0.8315
vn 0.1951 0.0000 0.9808
vn -0.1951 0.0000 0.9808
vn -0.5556 0.0000 0.8315
vn -0.8315 0.0000 0.5556
vn -0.9808 0.0000 0.1951
vn -0.9808 0.0000 -0.1951
vn -0.8315 0.0000 -0.5556
vn 0.1951 0.0000 -0.9808
vn -0.1468 -0.6588 -0.7379
vn 0.1468 -0.6588 -0.7379
vn 0.1468 0.6588 -0.7379
vn -0.1468 0.6588 -0.7379
vn 0.4180 -0.6588 -0.6255
vn 0.4180 0.6588 -0.6255
vn 0.6255 -0.6588 -0.4180
vn 0.6255 0.6588 -0.4180
vn 0.7379 -0.6588 -0.1468
vn 0.7379 0.6588 -0.1468
vn 0.7379 -0.6588 0.1468
vn 0.7379 0.6588 0.1468
vn 0.6255 -0.6588 0.4180
vn 0.6255 0.6588 0.4180
vn 0.4180 -0.6588 0.6255
vn 0.4180 0.6588 0.6255
vn 0.1468 -0.6588 0.7379
vn 0.1468 0.6588 0.7379
vn -0.1468 -0.6588 0.7379
vn -0.1468 0.6588 0.7379
vn -0.4180 -0.6588 0.6255
vn -0.4180 0.6588 0.6255
vn -0.6255 -0.6588 0.4180
vn -0.6255 0.6588 0.4180
vn -0.7379 -0.6588 0.1468
vn -0.7379 0.6588 0.1468
vn -0.7379 -0.6588 -0.1468
vn -0.7379 0.6588 -0.1468
vn -0.6255 -0.6588 -0.4180
vn -0.6255 0.6588 -0.4180
vn -0.4180 -0.6588 -0.6255
vn -0.4180 0.6588 -0.6255
vn 0.0000 -1.0000 -0.0000
vn 0.0000 1.0000 0.0000
usemtl platformer
s off
f 67/1/1 75/2/1 74/3/1 69/4/1
f 69/4/2 74/3/2 76/5/2 70/6/2
f 70/6/3 76/5/3 77/7/3 71/8/3
f 71/8/4 77/7/4 78/9/4 72/10/4
f 72/10/5 78/9/5 79/11/5 73/12/5
f 73/12/6 79/11/6 75/2/6 67/1/6
f 68/13/7 74/14/7 75/15/7
f 68/13/8 76/16/8 74/14/8
f 68/13/9 77/17/9 76/16/9
f 68/13/10 78/18/10 77/17/10
f 68/13/11 79/19/11 78/18/11
f 68/13/12 75/15/12 79/19/12
f 80/20/4 88/21/4 87/22/4 82/23/4
f 82/23/5 87/22/5 89/24/5 83/25/5
f 83/25/6 89/24/6 90/26/6 84/27/6
f 84/27/1 90/26/1 91/28/1 85/29/1
f 85/29/2 91/28/2 92/30/2 86/31/2
f 86/31/3 92/30/3 88/21/3 80/20/3
f 81/32/10 87/33/10 88/34/10
f 81/32/11 89/35/11 87/33/11
f 81/32/12 90/36/12 89/35/12
f 81/32/7 91/37/7 90/36/7
f 81/32/8 92/38/8 91/37/8
f 81/32/9 88/34/9 92/38/9
f 93/39/4 101/40/4 100/41/4 95/42/4
f 95/42/5 100/41/5 102/43/5 96/44/5
f 96/44/6 102/43/6 103/45/6 97/46/6
f 97/46/1 103/45/1 104/47/1 98/48/1
f 98/48/2 104/47/2 105/49/2 99/50/2
f 99/50/3 105/49/3 101/40/3 93/39/3
f 94/51/10 100/52/10 101/53/10
f 94/51/11 102/54/11 100/52/11
f 94/51/12 103/55/12 102/54/12
f 94/51/7 104/56/7 103/55/7
f 94/51/8 105/57/8 104/56/8
f 94/51/9 101/53/9 105/57/9
f 106/58/1 114/59/1 113/60/1 108/61/1
f 108/61/2 113/60/2 115/62/2 109/63/2
f 109/63/3 115/62/3 116/64/3 110/65/3
f 110/65/4 116/64/4 117/66/4 111/67/4
f 111/67/5 117/66/5 118/68/5 112/69/5
f 112/69/6 118/68/6 114/59/6 106/58/6
f 107/70/7 113/71/7 114/72/7
f 107/70/8 115/73/8 113/71/8
f 107/70/9 116/74/9 115/73/9
f 107/70/10 117/75/10 116/74/10
f 107/70/11 118/76/11 117/75/11
f 107/70/12 114/72/12 118/76/12
f 119/77/13 127/78/13 126/79/13 121/80/13
f 121/80/14 126/79/14 128/81/14 122/82/14
f 122/82/15 128/81/15 129/83/15 123/84/15
f 123/84/16 129/83/16 130/85/16 124/86/16
f 124/86/17 130/85/17 131/87/17 125/88/17
f 125/88/18 131/87/18 127/78/18 119/77/18
f 120/89/19 126/90/19 127/91/19
f 120/89/20 128/92/20 126/90/20
f 120/89/21 129/93/21 128/92/21
f 120/89/22 130/94/22 129/93/22
f 120/89/23 131/95/23 130/94/23
f 120/89/24 127/91/24 131/95/24
f 132/96/16 140/97/16 139/98/16 134/99/16
f 134/99/17 139/98/17 141/100/17 135/101/17
f 135/101/18 141/100/18 142/102/18 136/103/18
f 136/103/13 142/102/13 143/104/13 137/105/13
f 137/105/14 143/104/14 144/106/14 138/107/14
f 138/107/15 144/106/15 140/97/15 132/96/15
f 133/108/22 139/109/22 140/110/22
f 133/108/23 141/111/23 139/109/23
f 133/108/24 142/112/24 141/111/24
f 133/108/19 143/113/19 142/112/19
f 133/108/20 144/114/20 143/113/20
f 133/108/21 140/110/21 144/114/21
f 145/115/16 153/116/16 152/117/16 147/118/16
f 147/118/17 152/117/17 154/119/17 148/120/17
f 148/120/18 154/119/18 155/121/18 149/122/18
f 149/122/13 155/121/13 156/123/13 150/124/13
f 150/124/14 156/123/14 157/125/14 151/126/14
f 151/126/15 157/125/15 153/116/15 145/115/15
f 146/127/22 152/128/22 153/129/22
f 146/127/23 154/130/23 152/128/23
f 146/127/24 155/131/24 154/130/24
f 146/127/19 156/132/19 155/131/19
f 146/127/20 157/133/20 156/132/20
f 146/127/21 153/129/21 157/133/21
f 158/134/13 166/135/13 165/136/13 160/137/13
f 160/137/14 165/136/14 167/138/14 161/139/14
f 161/139/15 167/138/15 168/140/15 162/141/15
f 162/141/16 168/140/16 169/142/16 163/143/16
f 163/143/17 169/142/17 170/144/17 164/145/17
f 164/145/18 170/144/18 166/135/18 158/134/18
f 159/146/19 165/147/19 166/148/19
f 159/146/20 167/149/20 165/147/20
f 159/146/21 168/150/21 167/149/21
f 159/146/22 169/151/22 168/150/22
f 159/146/23 170/152/23 169/151/23
f 159/146/24 166/148/24 170/152/24
s 1
f 33/153/25 34/154/25 4/155/26 2/156/26
f 7/157/27 8/158/27 10/159/28 9/160/28
f 9/160/28 10/159/28 12/161/29 11/162/29
f 11/162/29 12/161/29 14/163/30 13/164/30
f 13/164/30 14/163/30 16/165/31 15/166/31
f 15/166/31 16/165/31 18/167/32 17/168/32
f 17/168/32 18/167/32 20/169/33 19/170/33
f 19/170/33 20/169/33 22/171/34 21/172/34
f 21/172/34 22/171/34 24/173/35 23/174/35
f 23/174/35 24/173/35 26/175/36 25/176/36
f 25/176/36 26/175/36 28/177/37 27/178/37
f 27/178/37 28/177/37 30/179/38 29/180/38
f 29/180/38 30/179/38 32/181/39 31/182/39
f 31/182/39 32/181/39 34/154/25 33/153/25
f 5/183/40 6/184/40 8/158/27 7/157/27
f 2/156/26 4/155/26 6/184/40 5/183/40
f 2/185/41 5/186/42 35/187/42 36/188/41
f 6/189/43 4/190/44 51/191/44 52/192/43
f 5/186/42 7/193/45 37/194/45 35/187/42
f 8/195/46 6/189/43 52/192/43 53/196/46
f 7/193/45 9/197/47 38/198/47 37/194/45
f 10/199/48 8/195/46 53/196/46 54/200/48
f 9/197/47 11/201/49 39/202/49 38/198/47
f 12/203/50 10/199/48 54/200/48 55/204/50
f 11/201/49 13/205/51 40/206/51 39/202/49
f 14/207/52 12/203/50 55/204/50 56/208/52
f 13/205/51 15/209/53 41/210/53 40/206/51
f 16/211/54 14/207/52 56/208/52 57/212/54
f 15/209/53 17/213/55 42/214/55 41/210/53
f 18/215/56 16/211/54 57/212/54 58/216/56
f 17/213/55 19/217/57 43/218/57 42/214/55
f 20/219/58 18/215/56 58/216/56 59/220/58
f 19/217/57 21/221/59 44/222/59 43/218/57
f 22/223/60 20/219/58 59/220/58 60/224/60
f 21/221/59 23/225/61 45/226/61 44/222/59
f 24/227/62 22/223/60 60/224/60 61/228/62
f 23/225/61 25/229/63 46/230/63 45/226/61
f 26/231/64 24/227/62 61/228/62 62/232/64
f 25/229/63 27/233/65 47/234/65 46/230/63
f 28/235/66 26/231/64 62/232/64 63/236/66
f 27/233/65 29/237/67 48/238/67 47/234/65
f 30/239/68 28/235/66 63/236/66 64/240/68
f 29/237/67 31/241/69 49/242/69 48/238/67
f 32/243/70 30/239/68 64/240/68 65/244/70
f 31/241/69 33/245/71 50/246/71 49/242/69
f 34/247/72 32/243/70 65/244/70 66/248/72
f 33/245/71 2/185/41 36/188/41 50/246/71
f 4/190/44 34/247/72 66/248/72 51/191/44
f 1/249/73 36/250/73 35/251/73
f 1/252/73 35/251/73 37/253/73
f 1/254/73 37/253/73 38/255/73
f 1/256/73 38/255/73 39/257/73
f 1/258/73 39/257/73 40/259/73
f 1/258/73 40/259/73 41/260/73
f 1/256/73 41/260/73 42/261/73
f 1/254/73 42/261/73 43/262/73
f 1/252/73 43/262/73 44/263/73
f 1/249/73 44/263/73 45/264/73
f 1/265/73 45/264/73 46/266/73
f 1/267/73 46/266/73 47/268/73
f 1/269/73 47/268/73 48/270/73
f 1/269/73 48/270/73 49/271/73
f 1/267/73 49/271/73 50/272/73
f 1/265/73 50/272/73 36/250/73
f 3/273/74 52/274/74 51/275/74
f 3/276/74 53/277/74 52/274/74
f 3/278/74 54/279/74 53/277/74
f 3/280/74 55/281/74 54/279/74
f 3/280/74 56/282/74 55/281/74
f 3/278/74 57/283/74 56/282/74
f 3/276/74 58/284/74 57/283/74
f 3/273/74 59/285/74 58/284/74
f 3/286/74 60/287/74 59/285/74
f 3/288/74 61/289/74 60/287/74
f 3/290/74 62/291/74 61/289/74
f 3/292/74 63/293/74 62/291/74
f 3/292/74 64/294/74 63/293/74
f 3/290/74 65/295/74 64/294/74
f 3/288/74 66/296/74 65/295/74
f 3/286/74 51/275/74 66/296/74
