# Blender v3.4.1 OBJ File: 'Platformer_Pack_Export_EXTRA.blend'
# www.blender.org
mtllib floor_spikes_trap_2x2x1_yellow_floor_spikes_trap_spikes_2x2x1_yellow.mtl
o floor_spikes_trap_spikes_2x2x1_yellow
v -0.950000 0.500000 -0.950000
v -0.950000 0.000000 0.950000
v -0.950000 0.050000 1.000000
v -1.000000 0.050000 0.950000
v -0.950000 0.450000 1.000000
v -0.950000 0.500000 0.950000
v -1.000000 0.450000 0.950000
v -0.950000 0.000000 -0.950000
v -1.000000 0.050000 -0.950000
v -0.950000 0.050000 -1.000000
v -0.950000 0.450000 -1.000000
v -1.000000 0.450000 -0.950000
v 0.950000 0.000000 0.950000
v 1.000000 0.050000 0.950000
v 0.950000 0.050000 1.000000
v 0.950000 0.500000 0.950000
v 0.950000 0.450000 1.000000
v 1.000000 0.450000 0.950000
v 0.950000 0.000000 -0.950000
v 0.950000 0.050000 -1.000000
v 1.000000 0.050000 -0.950000
v 0.950000 0.500000 -0.950000
v 1.000000 0.450000 -0.950000
v 0.950000 0.450000 -1.000000
v -0.278571 0.500000 0.278571
v 0.000000 1.500000 0.000000
v 0.557143 1.500000 0.000000
v 0.835714 0.500000 -0.278571
v -0.835714 0.500000 0.278571
v -0.557143 1.500000 0.000000
v -0.835714 0.500000 -0.278571
v 0.000000 1.500000 -0.557143
v 0.278571 0.500000 -0.278571
v 0.557143 1.500000 -0.557143
v 0.835714 0.500000 -0.835714
v -0.557143 1.500000 -0.557143
v -0.278571 0.500000 -0.278571
v -0.835714 0.500000 -0.835714
v -0.278571 0.500000 -0.835714
v 0.278571 0.500000 -0.835714
v -0.278571 0.500000 0.835714
v 0.000000 1.500000 0.557143
v 0.278571 0.500000 0.835714
v 0.557143 1.500000 0.557143
v 0.278571 0.500000 0.278571
v 0.835714 0.500000 0.278571
v -0.557143 1.500000 0.557143
v 0.835714 0.500000 0.835714
v -0.835714 0.500000 0.835714
vt 0.351345 0.890740
vt 0.351345 0.932304
vt 0.351345 0.932304
vt 0.351345 0.890740
vt 0.273655 0.890740
vt 0.273655 0.932304
vt 0.273655 0.932304
vt 0.273655 0.890740
vt 0.275597 0.869919
vt 0.275597 0.875115
vt 0.273655 0.875115
vt 0.275597 0.979179
vt 0.275597 0.984375
vt 0.273655 0.979179
vt 0.275597 0.869919
vt 0.273655 0.875115
vt 0.275597 0.875115
vt 0.275597 0.984375
vt 0.275597 0.979179
vt 0.273655 0.979179
vt 0.349403 0.869919
vt 0.351345 0.875115
vt 0.349403 0.875115
vt 0.349403 0.984375
vt 0.349403 0.979179
vt 0.351345 0.979179
vt 0.349403 0.869919
vt 0.349403 0.875115
vt 0.351345 0.875115
vt 0.349403 0.984375
vt 0.351345 0.979179
vt 0.349403 0.979179
vt 0.275597 0.906365
vt 0.275597 0.947929
vt 0.273655 0.947929
vt 0.273655 0.906365
vt 0.275597 0.947929
vt 0.275597 0.906365
vt 0.273655 0.906365
vt 0.273655 0.947929
vt 0.351345 0.947929
vt 0.351345 0.906365
vt 0.349403 0.906365
vt 0.349403 0.947929
vt 0.349403 0.947929
vt 0.349403 0.906365
vt 0.351345 0.906365
vt 0.351345 0.947929
vt 0.266109 0.754822
vt 0.310625 0.921114
vt 0.266109 0.754822
vt 0.310625 0.952364
vt 0.355142 0.754822
vt 0.355142 0.754822
vt 0.266109 0.754822
vt 0.310625 0.952364
vt 0.266109 0.754822
vt 0.310625 0.983614
vt 0.355142 0.754822
vt 0.355142 0.754822
vt 0.266109 0.754822
vt 0.310625 0.952364
vt 0.266109 0.754822
vt 0.310625 0.983614
vt 0.355142 0.754822
vt 0.355142 0.754822
vt 0.310625 0.952364
vt 0.266109 0.754822
vt 0.310625 0.983614
vt 0.355142 0.754822
vt 0.310625 0.952364
vt 0.266109 0.754822
vt 0.310625 0.983614
vt 0.355142 0.754822
vt 0.310625 0.952364
vt 0.266109 0.754822
vt 0.310625 0.983614
vt 0.355142 0.754822
vt 0.266109 0.754822
vt 0.310625 0.952364
vt 0.310625 0.983614
vt 0.355142 0.754822
vt 0.266109 0.754822
vt 0.310625 0.952364
vt 0.310625 0.983614
vt 0.355142 0.754822
vt 0.266109 0.754822
vt 0.310625 0.952364
vt 0.310625 0.983614
vt 0.355142 0.754822
vt 0.275597 0.854294
vt 0.349403 0.854294
vt 0.349403 0.854294
vt 0.275597 0.854294
vt 0.275597 0.932304
vt 0.349403 0.932304
vt 0.349403 0.890740
vt 0.275597 0.890740
vt 0.349403 0.932304
vt 0.275597 0.932304
vt 0.275597 0.890740
vt 0.349403 0.890740
vn 1.0000 0.0000 0.0000
vn -1.0000 0.0000 0.0000
vn -0.4606 -0.7588 0.4606
vn -0.4606 -0.4606 0.7588
vn -0.7588 -0.4606 0.4606
vn -0.4606 0.4606 0.7588
vn -0.4606 0.7588 0.4606
vn -0.7588 0.4606 0.4606
vn -0.4606 -0.7588 -0.4606
vn -0.7588 -0.4606 -0.4606
vn -0.4606 -0.4606 -0.7588
vn -0.4606 0.7588 -0.4606
vn -0.4606 0.4606 -0.7588
vn -0.7588 0.4606 -0.4606
vn 0.4606 -0.7588 0.4606
vn 0.7588 -0.4606 0.4606
vn 0.4606 -0.4606 0.7588
vn 0.4606 0.7588 0.4606
vn 0.4606 0.4606 0.7588
vn 0.7588 0.4606 0.4606
vn 0.4606 -0.7588 -0.4606
vn 0.4606 -0.4606 -0.7588
vn 0.7588 -0.4606 -0.4606
vn 0.4606 0.7588 -0.4606
vn 0.7588 0.4606 -0.4606
vn 0.4606 0.4606 -0.7588
vn -0.9633 0.2684 0.0000
vn 0.0000 0.2684 -0.9633
vn 0.9633 0.2684 0.0000
vn 0.0000 0.2684 0.9633
vn 0.0000 -1.0000 0.0000
vn 0.0000 0.0000 -1.0000
vn 0.0000 0.0000 1.0000
vn 0.0000 1.0000 0.0000
usemtl platformer
s 1
f 21/1/1 23/2/1 18/3/1 14/4/1
f 4/5/2 7/6/2 12/7/2 9/8/2
f 2/9/3 3/10/4 4/11/5
f 5/12/6 6/13/7 7/14/8
f 8/15/9 9/16/10 10/17/11
f 1/18/12 11/19/13 12/20/14
f 13/21/15 14/22/16 15/23/17
f 16/24/18 17/25/19 18/26/20
f 19/27/21 20/28/22 21/29/23
f 22/30/24 23/31/25 24/32/26
f 8/15/9 2/9/3 4/11/5 9/16/10
f 3/33/4 5/34/6 7/35/8 4/36/5
f 6/13/7 1/18/12 12/20/14 7/14/8
f 11/37/13 10/38/11 9/39/10 12/40/14
f 23/41/25 21/42/23 20/43/22 24/44/26
f 13/21/15 19/27/21 21/29/23 14/22/16
f 22/30/24 16/24/18 18/26/20 23/31/25
f 17/45/19 15/46/17 14/47/16 18/48/20
f 25/49/27 26/50/27 37/51/27
f 37/51/28 26/52/28 33/53/28
f 33/53/29 26/50/29 45/54/29
f 45/54/30 26/52/30 25/49/30
f 45/55/27 27/56/27 33/57/27
f 33/57/28 27/58/28 28/59/28
f 28/59/29 27/56/29 46/60/29
f 46/60/30 27/58/30 45/55/30
f 29/61/27 30/62/27 31/63/27
f 31/63/28 30/64/28 37/65/28
f 37/65/29 30/62/29 25/66/29
f 25/66/30 30/64/30 29/61/30
f 37/51/27 32/67/27 39/68/27
f 39/68/28 32/69/28 40/70/28
f 40/70/29 32/67/29 33/53/29
f 33/53/30 32/69/30 37/51/30
f 33/57/27 34/71/27 40/72/27
f 40/72/28 34/73/28 35/74/28
f 35/74/29 34/71/29 28/59/29
f 28/59/30 34/73/30 33/57/30
f 31/63/27 36/75/27 38/76/27
f 38/76/28 36/77/28 39/78/28
f 39/78/29 36/75/29 37/65/29
f 37/65/30 36/77/30 31/63/30
f 41/79/27 42/80/27 25/49/27
f 25/49/28 42/81/28 45/54/28
f 45/54/29 42/80/29 43/82/29
f 43/82/30 42/81/30 41/79/30
f 43/83/27 44/84/27 45/55/27
f 45/55/28 44/85/28 46/60/28
f 46/60/29 44/84/29 48/86/29
f 48/86/30 44/85/30 43/83/30
f 49/87/27 47/88/27 29/61/27
f 29/61/28 47/89/28 25/66/28
f 25/66/29 47/88/29 41/90/29
f 41/90/30 47/89/30 49/87/30
f 8/91/31 19/92/31 13/93/31 2/94/31
f 16/24/18 6/13/7 5/12/6 17/25/19
f 2/9/3 13/21/15 15/23/17 3/10/4
f 1/18/12 22/30/24 24/32/26 11/19/13
f 19/27/21 8/15/9 10/17/11 20/28/22
f 11/95/32 24/96/32 20/97/32 10/98/32
f 17/99/33 5/100/33 3/101/33 15/102/33
f 22/30/34 1/18/34 6/13/34 16/24/34
