# Blender v3.4.1 OBJ File: 'Platformer_Pack_Export_EXTRA.blend'
# www.blender.org
mtllib chain_link_end_top.mtl
o chain_link_end_top
v 0.308381 0.000000 0.057997
v 0.259230 0.000000 0.094293
v 0.197835 0.000000 0.094781
v 0.147768 0.000000 0.058768
v 0.147768 0.000000 -0.058768
v 0.197835 0.000000 -0.094781
v 0.259230 0.000000 -0.094293
v 0.308381 0.000000 -0.057997
v -0.308381 0.000000 0.057997
v -0.259230 0.000000 0.094293
v -0.197835 0.000000 0.094781
v -0.147768 0.000000 0.058768
v -0.147768 0.000000 -0.058768
v -0.197835 0.000000 -0.094781
v -0.259230 0.000000 -0.094293
v -0.308381 0.000000 -0.057997
v -0.308381 -0.390633 0.057997
v -0.259230 -0.388688 0.094293
v -0.197835 -0.386090 0.094781
v -0.147768 -0.383871 0.058768
v -0.147768 -0.383871 -0.058768
v -0.197835 -0.386090 -0.094781
v -0.259230 -0.388688 -0.094293
v -0.308381 -0.390633 -0.057997
v -0.285258 -0.505407 0.057691
v -0.240176 -0.486734 0.094058
v -0.183471 -0.463246 0.095019
v -0.136698 -0.443872 0.059246
v -0.136698 -0.443872 -0.059246
v -0.183471 -0.463246 -0.095019
v -0.240176 -0.486734 -0.094058
v -0.285258 -0.505407 -0.057691
v -0.218327 -0.605577 0.057691
v -0.183823 -0.571073 0.094058
v -0.140423 -0.527672 0.095019
v -0.104624 -0.491873 0.059246
v -0.104624 -0.491873 -0.059246
v -0.140423 -0.527672 -0.095019
v -0.183823 -0.571073 -0.094058
v -0.218327 -0.605577 -0.057691
v -0.118158 -0.672507 0.057691
v -0.099484 -0.627426 0.094058
v -0.075996 -0.570721 0.095019
v -0.056622 -0.523947 0.059246
v -0.056622 -0.523947 -0.059246
v -0.075996 -0.570721 -0.095019
v -0.099484 -0.627426 -0.094058
v -0.118158 -0.672507 -0.057691
v -0.000000 -0.696011 0.057691
v -0.000000 -0.647215 0.094058
v -0.000000 -0.585838 0.095019
v -0.000000 -0.535210 0.059246
v -0.000000 -0.535210 -0.059246
v -0.000000 -0.585838 -0.095019
v -0.000000 -0.647215 -0.094058
v -0.000000 -0.696011 -0.057691
v 0.118157 -0.672507 0.057691
v 0.099484 -0.627426 0.094058
v 0.075996 -0.570721 0.095019
v 0.056622 -0.523947 0.059246
v 0.056622 -0.523947 -0.059246
v 0.075996 -0.570721 -0.095019
v 0.099484 -0.627426 -0.094058
v 0.118157 -0.672507 -0.057691
v 0.218327 -0.605577 0.057691
v 0.183823 -0.571073 0.094058
v 0.140423 -0.527672 0.095019
v 0.104623 -0.491873 0.059246
v 0.104623 -0.491873 -0.059246
v 0.140423 -0.527672 -0.095019
v 0.183823 -0.571073 -0.094058
v 0.218327 -0.605577 -0.057691
v 0.285257 -0.505408 0.057691
v 0.240176 -0.486734 0.094058
v 0.183471 -0.463246 0.095019
v 0.136697 -0.443872 0.059246
v 0.136697 -0.443872 -0.059246
v 0.183471 -0.463246 -0.095019
v 0.240176 -0.486734 -0.094058
v 0.285257 -0.505408 -0.057691
v 0.308381 -0.390633 0.057997
v 0.259230 -0.388688 0.094293
v 0.197835 -0.386090 0.094781
v 0.147768 -0.383871 0.058768
v 0.147768 -0.383871 -0.058768
v 0.197835 -0.386090 -0.094781
v 0.259230 -0.388688 -0.094293
v 0.308381 -0.390633 -0.057997
vt 0.285310 0.914404
vt 0.287350 0.904285
vt 0.287350 0.904284
vt 0.285310 0.914404
vt 0.339690 0.914404
vt 0.339690 0.914404
vt 0.339690 0.930387
vt 0.339690 0.930387
vt 0.289644 0.898951
vt 0.285310 0.883154
vt 0.285310 0.899137
vt 0.289644 0.914590
vt 0.299471 0.883751
vt 0.295057 0.899180
vt 0.295057 0.914361
vt 0.299471 0.898540
vt 0.295057 0.899180
vt 0.299471 0.883751
vt 0.299471 0.898540
vt 0.295057 0.914361
vt 0.285310 0.930387
vt 0.285310 0.930387
vt 0.285310 0.883154
vt 0.289644 0.898951
vt 0.289644 0.914590
vt 0.285310 0.899137
vt 0.335358 0.914590
vt 0.329944 0.914361
vt 0.329944 0.899180
vt 0.335358 0.898951
vt 0.293250 0.895452
vt 0.302083 0.889551
vt 0.302083 0.889551
vt 0.293250 0.895452
vt 0.287350 0.873034
vt 0.291324 0.890306
vt 0.296324 0.892377
vt 0.300448 0.878460
vt 0.307508 0.824525
vt 0.307508 0.824525
vt 0.303275 0.827353
vt 0.303275 0.827353
vt 0.300448 0.878460
vt 0.296324 0.892377
vt 0.291324 0.890306
vt 0.287350 0.873035
vt 0.312500 0.887479
vt 0.312500 0.887479
vt 0.293250 0.864202
vt 0.296293 0.882870
vt 0.300119 0.886696
vt 0.303275 0.874228
vt 0.312500 0.823532
vt 0.312500 0.823532
vt 0.303275 0.874228
vt 0.300119 0.886696
vt 0.296293 0.882870
vt 0.293250 0.864202
vt 0.322918 0.889551
vt 0.322918 0.889551
vt 0.302083 0.858301
vt 0.303729 0.877901
vt 0.305800 0.882901
vt 0.307508 0.871400
vt 0.317493 0.824525
vt 0.317493 0.824525
vt 0.307508 0.871400
vt 0.305800 0.882901
vt 0.303729 0.877901
vt 0.302083 0.858301
vt 0.331750 0.895452
vt 0.331750 0.895452
vt 0.312500 0.856229
vt 0.312500 0.876156
vt 0.312500 0.881568
vt 0.312500 0.870407
vt 0.321725 0.827353
vt 0.321725 0.827353
vt 0.312500 0.870407
vt 0.312500 0.881568
vt 0.312500 0.876156
vt 0.312500 0.856229
vt 0.337652 0.904284
vt 0.337652 0.904284
vt 0.322918 0.858301
vt 0.321272 0.877901
vt 0.319201 0.882901
vt 0.317493 0.871400
vt 0.324553 0.831585
vt 0.324553 0.831585
vt 0.317493 0.871400
vt 0.319201 0.882901
vt 0.321272 0.877901
vt 0.322918 0.858301
vt 0.331750 0.864202
vt 0.328708 0.882870
vt 0.324882 0.886696
vt 0.321725 0.874228
vt 0.325529 0.836876
vt 0.325529 0.836876
vt 0.321725 0.874228
vt 0.324882 0.886696
vt 0.328708 0.882870
vt 0.331750 0.864202
vt 0.300448 0.831585
vt 0.300448 0.831585
vt 0.299471 0.836876
vt 0.299471 0.836876
vt 0.337652 0.873034
vt 0.333677 0.890306
vt 0.328677 0.892377
vt 0.324553 0.878460
vt 0.324553 0.878460
vt 0.328677 0.892377
vt 0.333677 0.890306
vt 0.337652 0.873034
vt 0.339690 0.883154
vt 0.325529 0.883751
vt 0.325529 0.851665
vt 0.325529 0.851665
vt 0.325529 0.883751
vt 0.329944 0.899180
vt 0.335358 0.898951
vt 0.339690 0.883154
vt 0.329944 0.914361
vt 0.335358 0.914590
vt 0.339690 0.899137
vt 0.325529 0.898540
vt 0.325529 0.898540
vt 0.299471 0.851665
vt 0.299471 0.851665
vt 0.339690 0.899137
vn -0.9951 -0.0992 0.0000
vn -0.9235 -0.3837 0.0000
vn 0.9951 -0.0992 0.0000
vn 1.0000 -0.0000 0.0000
vn -0.3335 -0.0344 -0.9421
vn -0.5931 -0.0577 -0.8031
vn -0.5940 0.0000 -0.8044
vn -0.3165 0.0000 -0.9486
vn 0.5806 0.0568 -0.8122
vn 0.2838 0.0263 -0.9585
vn 0.3030 0.0000 -0.9530
vn 0.5839 0.0000 -0.8118
vn 0.2838 0.0263 0.9585
vn 0.5806 0.0568 0.8122
vn 0.5839 -0.0000 0.8118
vn 0.3030 -0.0000 0.9530
vn -1.0000 0.0000 0.0000
vn -0.5931 -0.0577 0.8031
vn -0.3335 -0.0344 0.9421
vn -0.3165 -0.0000 0.9486
vn -0.5940 -0.0000 0.8044
vn 0.3165 -0.0000 0.9486
vn -0.3030 -0.0000 0.9530
vn -0.2838 0.0263 0.9585
vn 0.3335 -0.0344 0.9421
vn -0.7071 -0.7071 0.0000
vn -0.3827 -0.9239 0.0000
vn -0.5502 -0.2291 0.8030
vn -0.3272 -0.1363 0.9351
vn 0.2399 0.0985 0.9658
vn 0.5347 0.2189 0.8162
vn 0.3827 0.9239 0.0000
vn 0.7071 0.7071 0.0000
vn 0.5347 0.2189 -0.8162
vn 0.2399 0.0985 -0.9658
vn -0.3272 -0.1363 -0.9351
vn -0.5502 -0.2291 -0.8030
vn -0.0000 -1.0000 0.0000
vn -0.4226 -0.4226 0.8018
vn -0.2516 -0.2516 0.9346
vn 0.1832 0.1832 0.9658
vn 0.4080 0.4080 0.8167
vn 0.0000 1.0000 -0.0000
vn 0.4080 0.4080 -0.8167
vn 0.1832 0.1832 -0.9658
vn -0.2516 -0.2516 -0.9346
vn -0.4226 -0.4226 -0.8018
vn 0.3827 -0.9239 0.0000
vn -0.2287 -0.5521 0.8018
vn -0.1361 -0.3287 0.9346
vn 0.0992 0.2394 0.9658
vn 0.2208 0.5331 0.8167
vn -0.3827 0.9239 -0.0000
vn 0.2208 0.5331 -0.8167
vn 0.0992 0.2394 -0.9658
vn -0.1361 -0.3287 -0.9346
vn -0.2287 -0.5521 -0.8018
vn 0.7071 -0.7071 0.0000
vn -0.0000 -0.5976 0.8018
vn -0.0000 -0.3558 0.9346
vn -0.0000 0.2591 0.9658
vn -0.0000 0.5771 0.8167
vn -0.7071 0.7071 0.0000
vn -0.0000 0.5771 -0.8167
vn -0.0000 0.2591 -0.9658
vn 0.0000 -0.3558 -0.9346
vn 0.0000 -0.5976 -0.8018
vn 0.9235 -0.3837 0.0000
vn 0.2287 -0.5521 0.8018
vn 0.1361 -0.3287 0.9346
vn -0.0992 0.2394 0.9658
vn -0.2208 0.5331 0.8167
vn -0.9263 0.3767 0.0000
vn -0.2208 0.5331 -0.8167
vn -0.0992 0.2394 -0.9658
vn 0.1361 -0.3287 -0.9346
vn 0.2287 -0.5521 -0.8018
vn 0.4226 -0.4226 0.8018
vn 0.2516 -0.2516 0.9346
vn -0.1832 0.1832 0.9658
vn -0.4080 0.4080 0.8167
vn -0.9958 0.0913 0.0000
vn -0.4080 0.4080 -0.8167
vn -0.1832 0.1832 -0.9658
vn 0.2516 -0.2516 -0.9346
vn 0.4226 -0.4226 -0.8018
vn 0.9263 0.3767 0.0000
vn 0.9958 0.0913 0.0000
vn 0.5502 -0.2291 0.8030
vn 0.3272 -0.1363 0.9351
vn -0.2399 0.0985 0.9658
vn -0.5347 0.2189 0.8162
vn -0.5347 0.2189 -0.8162
vn -0.2399 0.0985 -0.9658
vn 0.3272 -0.1363 -0.9351
vn 0.5502 -0.2291 -0.8030
vn 0.5931 -0.0577 0.8031
vn -0.5806 0.0568 0.8122
vn -0.5806 0.0568 -0.8122
vn -0.2838 0.0263 -0.9585
vn 0.3335 -0.0344 -0.9421
vn 0.5931 -0.0577 -0.8031
vn -0.3030 0.0000 -0.9530
vn 0.3165 0.0000 -0.9486
vn 0.5940 0.0000 -0.8044
vn -0.5839 0.0000 -0.8118
vn -0.5839 -0.0000 0.8118
vn 0.5940 -0.0000 0.8044
usemtl platformer
s 1
f 24/1/1 32/2/2 25/3/2 17/4/1
f 81/5/3 88/6/3 8/7/4 1/8/4
f 23/9/5 24/10/6 16/11/7 15/12/8
f 21/13/9 22/14/10 14/15/11 13/16/12
f 19/17/13 20/18/14 12/19/15 11/20/16
f 24/1/1 17/4/1 9/21/17 16/22/17
f 22/14/10 23/9/5 15/12/8 14/15/11
f 17/23/18 18/24/19 10/25/20 9/26/21
f 2/27/22 3/28/23 83/29/24 82/30/25
f 40/31/26 48/32/27 41/33/27 33/34/26
f 17/23/18 25/35/28 26/36/29 18/24/19
f 18/24/19 26/36/29 27/37/30 19/17/13
f 19/17/13 27/37/30 28/38/31 20/18/14
f 44/39/32 45/40/32 37/41/33 36/42/33
f 21/13/9 29/43/34 30/44/35 22/14/10
f 22/14/10 30/44/35 31/45/36 23/9/5
f 23/9/5 31/45/36 32/46/37 24/10/6
f 48/32/27 56/47/38 49/48/38 41/33/27
f 25/35/28 33/49/39 34/50/40 26/36/29
f 26/36/29 34/50/40 35/51/41 27/37/30
f 27/37/30 35/51/41 36/52/42 28/38/31
f 52/53/43 53/54/43 45/40/32 44/39/32
f 29/43/34 37/55/44 38/56/45 30/44/35
f 30/44/35 38/56/45 39/57/46 31/45/36
f 31/45/36 39/57/46 40/58/47 32/46/37
f 56/47/38 64/59/48 57/60/48 49/48/38
f 33/49/39 41/61/49 42/62/50 34/50/40
f 34/50/40 42/62/50 43/63/51 35/51/41
f 35/51/41 43/63/51 44/64/52 36/52/42
f 60/65/53 61/66/53 53/54/43 52/53/43
f 37/55/44 45/67/54 46/68/55 38/56/45
f 38/56/45 46/68/55 47/69/56 39/57/46
f 39/57/46 47/69/56 48/70/57 40/58/47
f 64/59/48 72/71/58 65/72/58 57/60/48
f 41/61/49 49/73/59 50/74/60 42/62/50
f 42/62/50 50/74/60 51/75/61 43/63/51
f 43/63/51 51/75/61 52/76/62 44/64/52
f 68/77/63 69/78/63 61/66/53 60/65/53
f 45/67/54 53/79/64 54/80/65 46/68/55
f 46/68/55 54/80/65 55/81/66 47/69/56
f 47/69/56 55/81/66 56/82/67 48/70/57
f 72/71/58 80/83/68 73/84/68 65/72/58
f 49/73/59 57/85/69 58/86/70 50/74/60
f 50/74/60 58/86/70 59/87/71 51/75/61
f 51/75/61 59/87/71 60/88/72 52/76/62
f 76/89/73 77/90/73 69/78/63 68/77/63
f 53/79/64 61/91/74 62/92/75 54/80/65
f 54/80/65 62/92/75 63/93/76 55/81/66
f 55/81/66 63/93/76 64/94/77 56/82/67
f 80/83/68 88/6/3 81/5/3 73/84/68
f 57/85/69 65/95/78 66/96/79 58/86/70
f 58/86/70 66/96/79 67/97/80 59/87/71
f 59/87/71 67/97/80 68/98/81 60/88/72
f 84/99/82 85/100/82 77/90/73 76/89/73
f 61/91/74 69/101/83 70/102/84 62/92/75
f 62/92/75 70/102/84 71/103/85 63/93/76
f 63/93/76 71/103/85 72/104/86 64/94/77
f 28/105/87 29/106/87 21/107/88 20/108/88
f 65/95/78 73/109/89 74/110/90 66/96/79
f 66/96/79 74/110/90 75/111/91 67/97/80
f 67/97/80 75/111/91 76/112/92 68/98/81
f 32/2/2 40/31/26 33/34/26 25/3/2
f 69/101/83 77/113/93 78/114/94 70/102/84
f 70/102/84 78/114/94 79/115/95 71/103/85
f 71/103/85 79/115/95 80/116/96 72/104/86
f 36/42/33 37/41/33 29/106/87 28/105/87
f 73/109/89 81/117/97 82/30/25 74/110/90
f 74/110/90 82/30/25 83/29/24 75/111/91
f 75/111/91 83/29/24 84/118/98 76/112/92
f 4/119/17 5/120/17 85/100/82 84/99/82
f 77/113/93 85/121/99 86/122/100 78/114/94
f 78/114/94 86/122/100 87/123/101 79/115/95
f 79/115/95 87/123/101 88/124/102 80/116/96
f 6/125/103 7/126/104 87/123/101 86/122/100
f 7/126/104 8/127/105 88/124/102 87/123/101
f 5/128/106 6/125/103 86/122/100 85/121/99
f 3/28/23 4/129/107 84/118/98 83/29/24
f 20/108/88 21/107/88 13/130/4 12/131/4
f 1/132/108 2/27/22 82/30/25 81/117/97
f 18/24/19 19/17/13 11/20/16 10/25/20
f 6/125/43 5/128/43 4/119/43 3/28/43
f 14/15/43 11/20/43 12/131/43 13/16/43
f 16/11/43 9/26/43 10/25/43 15/12/43
f 15/12/43 10/25/43 11/20/43 14/15/43
f 7/126/43 6/125/43 3/28/43 2/27/43
f 8/7/43 7/126/43 2/27/43 1/132/43
