# Blender v3.4.1 OBJ File: 'Platformer_Pack_Export_EXTRA.blend'
# www.blender.org
mtllib chain_link_end_bottom.mtl
o chain_link_end_bottom
v 0.308381 0.390633 0.057997
v 0.259230 0.388688 0.094293
v 0.197835 0.386090 0.094781
v 0.147768 0.383871 0.058768
v 0.147768 0.383871 -0.058768
v 0.197835 0.386090 -0.094781
v 0.259230 0.388688 -0.094293
v 0.308381 0.390633 -0.057997
v 0.285258 0.505408 0.057691
v 0.240176 0.486734 0.094058
v 0.183471 0.463246 0.095019
v 0.136697 0.443872 0.059246
v 0.136697 0.443872 -0.059246
v 0.183471 0.463246 -0.095019
v 0.240176 0.486734 -0.094058
v 0.285258 0.505408 -0.057691
v 0.218327 0.605577 0.057691
v 0.183823 0.571073 0.094058
v 0.140423 0.527673 0.095019
v 0.104624 0.491874 0.059246
v 0.104624 0.491874 -0.059246
v 0.140423 0.527673 -0.095019
v 0.183823 0.571073 -0.094058
v 0.218327 0.605577 -0.057691
v 0.118158 0.672508 0.057691
v 0.099484 0.627426 0.094058
v 0.075996 0.570721 0.095019
v 0.056622 0.523947 0.059246
v 0.056622 0.523947 -0.059246
v 0.075996 0.570721 -0.095019
v 0.099484 0.627426 -0.094058
v 0.118158 0.672508 -0.057691
v 0.000000 0.696011 0.057691
v 0.000000 0.647215 0.094058
v 0.000000 0.585838 0.095019
v 0.000000 0.535210 0.059246
v 0.000000 0.535210 -0.059246
v 0.000000 0.585838 -0.095019
v 0.000000 0.647215 -0.094058
v 0.000000 0.696011 -0.057691
v -0.118158 0.672508 0.057691
v -0.099484 0.627426 0.094058
v -0.075996 0.570721 0.095019
v -0.056622 0.523947 0.059246
v -0.056622 0.523947 -0.059246
v -0.075996 0.570721 -0.095019
v -0.099484 0.627426 -0.094058
v -0.118158 0.672508 -0.057691
v -0.218327 0.605577 0.057691
v -0.183823 0.571073 0.094058
v -0.140423 0.527673 0.095019
v -0.104624 0.491874 0.059246
v -0.104624 0.491874 -0.059246
v -0.140423 0.527673 -0.095019
v -0.183823 0.571073 -0.094058
v -0.218327 0.605577 -0.057691
v -0.285258 0.505408 0.057691
v -0.240176 0.486734 0.094058
v -0.183471 0.463246 0.095019
v -0.136697 0.443872 0.059246
v -0.136697 0.443872 -0.059246
v -0.183471 0.463246 -0.095019
v -0.240176 0.486734 -0.094058
v -0.285258 0.505408 -0.057691
v -0.308381 0.390633 0.057997
v -0.259230 0.388688 0.094293
v -0.197835 0.386090 0.094781
v -0.147768 0.383871 0.058768
v -0.147768 0.383871 -0.058768
v -0.197835 0.386090 -0.094781
v -0.259230 0.388688 -0.094293
v -0.308381 0.390633 -0.057997
v -0.308229 0.000000 -0.058439
v -0.258518 0.000000 -0.094557
v -0.197071 0.000000 -0.094557
v -0.147359 0.000000 -0.058439
v -0.147359 0.000000 0.058439
v -0.197071 0.000000 0.094557
v -0.258518 0.000000 0.094557
v -0.308229 0.000000 0.058439
v 0.308229 0.000000 -0.058439
v 0.258518 0.000000 -0.094557
v 0.197071 0.000000 -0.094557
v 0.147359 0.000000 -0.058439
v 0.147359 0.000000 0.058439
v 0.197071 0.000000 0.094557
v 0.258518 0.000000 0.094557
v 0.308229 0.000000 0.058439
vt 0.331750 0.949339
vt 0.322918 0.955240
vt 0.322918 0.955240
vt 0.331750 0.949339
vt 0.339690 0.899137
vt 0.337652 0.909257
vt 0.333677 0.923235
vt 0.335358 0.914590
vt 0.328677 0.921164
vt 0.329944 0.914361
vt 0.324553 0.903831
vt 0.325529 0.898540
vt 0.317493 0.864016
vt 0.317493 0.864016
vt 0.321725 0.861188
vt 0.321725 0.861188
vt 0.325529 0.898540
vt 0.324553 0.903831
vt 0.328677 0.921164
vt 0.329944 0.914361
vt 0.333677 0.923235
vt 0.335358 0.914590
vt 0.337652 0.909257
vt 0.339690 0.899137
vt 0.312500 0.957312
vt 0.312500 0.957312
vt 0.331750 0.918089
vt 0.328708 0.930671
vt 0.324882 0.926845
vt 0.321725 0.908063
vt 0.312500 0.865009
vt 0.312500 0.865009
vt 0.321725 0.908063
vt 0.324882 0.926845
vt 0.328708 0.930671
vt 0.331750 0.918089
vt 0.302083 0.955240
vt 0.302083 0.955240
vt 0.322918 0.923990
vt 0.321272 0.935640
vt 0.319201 0.930640
vt 0.317493 0.910891
vt 0.307508 0.864016
vt 0.307508 0.864016
vt 0.317493 0.910891
vt 0.319201 0.930640
vt 0.321272 0.935640
vt 0.322918 0.923990
vt 0.293250 0.949339
vt 0.293250 0.949339
vt 0.312500 0.926062
vt 0.312500 0.937385
vt 0.312500 0.931973
vt 0.312500 0.911884
vt 0.303275 0.861188
vt 0.303275 0.861188
vt 0.312500 0.911884
vt 0.312500 0.931973
vt 0.312500 0.937385
vt 0.312500 0.926062
vt 0.287350 0.940507
vt 0.287350 0.940507
vt 0.302083 0.923990
vt 0.303729 0.935640
vt 0.305800 0.930640
vt 0.307508 0.910891
vt 0.300448 0.856956
vt 0.300448 0.856956
vt 0.307508 0.910891
vt 0.305800 0.930640
vt 0.303729 0.935640
vt 0.302083 0.923990
vt 0.285310 0.930387
vt 0.285310 0.930387
vt 0.293250 0.918089
vt 0.296293 0.930671
vt 0.300119 0.926845
vt 0.303275 0.908063
vt 0.299471 0.851665
vt 0.299471 0.851665
vt 0.303275 0.908063
vt 0.300119 0.926845
vt 0.296293 0.930671
vt 0.293250 0.918089
vt 0.299507 0.817819
vt 0.299507 0.817819
vt 0.287350 0.909257
vt 0.291324 0.923235
vt 0.296324 0.921164
vt 0.300448 0.903831
vt 0.339690 0.930387
vt 0.339678 0.895944
vt 0.339678 0.895944
vt 0.339690 0.930387
vt 0.300448 0.903831
vt 0.296324 0.921164
vt 0.291324 0.923235
vt 0.287350 0.909257
vt 0.324553 0.856956
vt 0.324553 0.856956
vt 0.285310 0.899137
vt 0.289644 0.914590
vt 0.295057 0.914361
vt 0.299471 0.898540
vt 0.285323 0.895944
vt 0.285323 0.895944
vt 0.299471 0.898540
vt 0.295057 0.914361
vt 0.289644 0.914590
vt 0.285310 0.899137
vt 0.337652 0.940507
vt 0.337652 0.940507
vt 0.329876 0.880319
vt 0.325493 0.864694
vt 0.325529 0.851665
vt 0.325529 0.851665
vt 0.325493 0.817819
vt 0.325493 0.817819
vt 0.329876 0.880319
vt 0.335294 0.880319
vt 0.299507 0.864694
vt 0.295125 0.880319
vt 0.285323 0.864694
vt 0.289707 0.880319
vt 0.339678 0.864694
vt 0.339678 0.864694
vt 0.335294 0.880319
vt 0.289707 0.880319
vt 0.325493 0.864694
vt 0.295125 0.880319
vt 0.299507 0.864694
vt 0.285323 0.864694
vn 0.7071 0.7071 0.0000
vn 0.3827 0.9239 0.0000
vn 0.5914 0.0577 0.8043
vn 0.5502 0.2291 0.8030
vn 0.3272 0.1363 0.9351
vn 0.3318 0.0345 0.9427
vn -0.2399 -0.0985 0.9658
vn -0.2851 -0.0263 0.9581
vn -0.5347 -0.2189 0.8162
vn -0.5816 -0.0566 0.8115
vn -0.3827 -0.9239 0.0000
vn -0.7071 -0.7071 0.0000
vn -0.5816 -0.0566 -0.8115
vn -0.5347 -0.2189 -0.8162
vn -0.2399 -0.0985 -0.9658
vn -0.2851 -0.0263 -0.9581
vn 0.3272 0.1363 -0.9351
vn 0.3318 0.0345 -0.9427
vn 0.5502 0.2291 -0.8030
vn 0.5914 0.0577 -0.8043
vn 0.0000 1.0000 0.0000
vn 0.4226 0.4226 0.8018
vn 0.2516 0.2516 0.9346
vn -0.1832 -0.1832 0.9658
vn -0.4080 -0.4080 0.8167
vn 0.0000 -1.0000 -0.0000
vn -0.4080 -0.4080 -0.8167
vn -0.1832 -0.1832 -0.9658
vn 0.2516 0.2516 -0.9346
vn 0.4226 0.4226 -0.8018
vn -0.3827 0.9239 0.0000
vn 0.2287 0.5521 0.8018
vn 0.1361 0.3287 0.9346
vn -0.0992 -0.2394 0.9658
vn -0.2208 -0.5331 0.8167
vn 0.3827 -0.9239 -0.0000
vn -0.2208 -0.5331 -0.8167
vn -0.0992 -0.2394 -0.9658
vn 0.1361 0.3287 -0.9346
vn 0.2287 0.5521 -0.8018
vn -0.7071 0.7071 0.0000
vn 0.0000 0.5976 0.8018
vn 0.0000 0.3558 0.9346
vn 0.0000 -0.2591 0.9658
vn -0.0000 -0.5771 0.8167
vn 0.7071 -0.7071 0.0000
vn -0.0000 -0.5771 -0.8167
vn 0.0000 -0.2591 -0.9658
vn 0.0000 0.3558 -0.9346
vn 0.0000 0.5976 -0.8018
vn -0.9235 0.3837 0.0000
vn -0.2287 0.5521 0.8018
vn -0.1361 0.3287 0.9346
vn 0.0992 -0.2394 0.9658
vn 0.2208 -0.5331 0.8167
vn 0.9263 -0.3767 0.0000
vn 0.2208 -0.5331 -0.8167
vn 0.0992 -0.2394 -0.9658
vn -0.1361 0.3287 -0.9346
vn -0.2287 0.5521 -0.8018
vn -0.9951 0.0989 0.0000
vn -0.4226 0.4226 0.8018
vn -0.2516 0.2516 0.9346
vn 0.1832 -0.1832 0.9658
vn 0.4080 -0.4080 0.8167
vn 0.9959 -0.0908 0.0000
vn 0.4080 -0.4080 -0.8167
vn 0.1832 -0.1832 -0.9658
vn -0.2516 0.2516 -0.9346
vn -0.4226 0.4226 -0.8018
vn 1.0000 0.0011 0.0000
vn -0.5502 0.2291 0.8030
vn -0.3272 0.1363 0.9351
vn 0.2399 -0.0985 0.9658
vn 0.5347 -0.2189 0.8162
vn 0.9951 0.0989 -0.0000
vn 1.0000 -0.0004 -0.0000
vn 0.5347 -0.2189 -0.8162
vn 0.2399 -0.0985 -0.9658
vn -0.3272 0.1363 -0.9351
vn -0.5502 0.2291 -0.8030
vn -0.9263 -0.3767 -0.0000
vn -0.5914 0.0577 0.8043
vn -0.3318 0.0345 0.9427
vn 0.2851 -0.0263 0.9581
vn 0.5816 -0.0566 0.8115
vn -1.0000 -0.0004 0.0000
vn 0.5816 -0.0566 -0.8115
vn 0.2851 -0.0263 -0.9581
vn -0.3318 0.0345 -0.9427
vn -0.5914 0.0577 -0.8043
vn 0.9235 0.3837 0.0000
vn -0.3064 0.0002 -0.9519
vn -0.5859 0.0003 -0.8104
vn -0.9959 -0.0908 -0.0000
vn -1.0000 0.0011 0.0000
vn -0.3064 0.0002 0.9519
vn 0.3124 0.0001 0.9500
vn 0.5859 0.0003 -0.8104
vn 0.3064 0.0002 -0.9519
vn -0.5909 0.0001 0.8067
vn -0.3124 0.0001 0.9500
vn 0.5909 0.0001 0.8067
vn 0.5909 0.0001 -0.8067
vn 0.3124 0.0001 -0.9500
vn -0.3124 0.0001 -0.9500
vn -0.5859 0.0003 0.8104
vn 0.3064 0.0002 0.9519
vn 0.5859 0.0003 0.8104
vn -0.5909 0.0001 -0.8067
usemtl platformer
s 1
f 24/1/1 32/2/2 25/3/2 17/4/1
f 1/5/3 9/6/4 10/7/5 2/8/6
f 2/8/6 10/7/5 11/9/7 3/10/8
f 3/10/8 11/9/7 12/11/9 4/12/10
f 28/13/11 29/14/11 21/15/12 20/16/12
f 5/17/13 13/18/14 14/19/15 6/20/16
f 6/20/16 14/19/15 15/21/17 7/22/18
f 7/22/18 15/21/17 16/23/19 8/24/20
f 32/2/2 40/25/21 33/26/21 25/3/2
f 9/6/4 17/27/22 18/28/23 10/7/5
f 10/7/5 18/28/23 19/29/24 11/9/7
f 11/9/7 19/29/24 20/30/25 12/11/9
f 36/31/26 37/32/26 29/14/11 28/13/11
f 13/18/14 21/33/27 22/34/28 14/19/15
f 14/19/15 22/34/28 23/35/29 15/21/17
f 15/21/17 23/35/29 24/36/30 16/23/19
f 40/25/21 48/37/31 41/38/31 33/26/21
f 17/27/22 25/39/32 26/40/33 18/28/23
f 18/28/23 26/40/33 27/41/34 19/29/24
f 19/29/24 27/41/34 28/42/35 20/30/25
f 44/43/36 45/44/36 37/32/26 36/31/26
f 21/33/27 29/45/37 30/46/38 22/34/28
f 22/34/28 30/46/38 31/47/39 23/35/29
f 23/35/29 31/47/39 32/48/40 24/36/30
f 48/37/31 56/49/41 49/50/41 41/38/31
f 25/39/32 33/51/42 34/52/43 26/40/33
f 26/40/33 34/52/43 35/53/44 27/41/34
f 27/41/34 35/53/44 36/54/45 28/42/35
f 52/55/46 53/56/46 45/44/36 44/43/36
f 29/45/37 37/57/47 38/58/48 30/46/38
f 30/46/38 38/58/48 39/59/49 31/47/39
f 31/47/39 39/59/49 40/60/50 32/48/40
f 56/49/41 64/61/51 57/62/51 49/50/41
f 33/51/42 41/63/52 42/64/53 34/52/43
f 34/52/43 42/64/53 43/65/54 35/53/44
f 35/53/44 43/65/54 44/66/55 36/54/45
f 60/67/56 61/68/56 53/56/46 52/55/46
f 37/57/47 45/69/57 46/70/58 38/58/48
f 38/58/48 46/70/58 47/71/59 39/59/49
f 39/59/49 47/71/59 48/72/60 40/60/50
f 64/61/51 72/73/61 65/74/61 57/62/51
f 41/63/52 49/75/62 50/76/63 42/64/53
f 42/64/53 50/76/63 51/77/64 43/65/54
f 43/65/54 51/77/64 52/78/65 44/66/55
f 68/79/66 69/80/66 61/68/56 60/67/56
f 45/69/57 53/81/67 54/82/68 46/70/58
f 46/70/58 54/82/68 55/83/69 47/71/59
f 47/71/59 55/83/69 56/84/70 48/72/60
f 69/80/66 68/79/66 77/85/71 76/86/71
f 49/75/62 57/87/72 58/88/73 50/76/63
f 50/76/63 58/88/73 59/89/74 51/77/64
f 51/77/64 59/89/74 60/90/75 52/78/65
f 1/91/76 88/92/77 81/93/77 8/94/76
f 53/81/67 61/95/78 62/96/79 54/82/68
f 54/82/68 62/96/79 63/97/80 55/83/69
f 55/83/69 63/97/80 64/98/81 56/84/70
f 20/16/12 21/15/12 13/99/82 12/100/82
f 57/87/72 65/101/83 66/102/84 58/88/73
f 58/88/73 66/102/84 67/103/85 59/89/74
f 59/89/74 67/103/85 68/104/86 60/90/75
f 72/73/61 73/105/87 80/106/87 65/74/61
f 61/95/78 69/107/88 70/108/89 62/96/79
f 62/96/79 70/108/89 71/109/90 63/97/80
f 63/97/80 71/109/90 72/110/91 64/98/81
f 16/111/92 24/1/1 17/4/1 9/112/92
f 5/17/13 6/20/16 83/113/93 84/114/94
f 4/115/95 5/116/95 84/117/96 85/118/96
f 2/8/6 3/10/8 86/119/97 87/120/98
f 70/108/89 69/107/88 76/121/99 75/122/100
f 66/102/84 65/101/83 80/123/101 79/124/102
f 12/100/82 13/99/82 5/116/95 4/115/95
f 1/5/3 2/8/6 87/120/98 88/125/103
f 7/22/18 8/24/20 81/126/104 82/127/105
f 71/109/90 70/108/89 75/122/100 74/128/106
f 6/20/16 7/22/18 82/127/105 83/113/93
f 3/10/8 4/12/10 85/129/107 86/119/97
f 68/104/86 67/103/85 78/130/108 77/131/109
f 72/110/91 71/109/90 74/128/106 73/132/110
f 67/103/85 66/102/84 79/124/102 78/130/108
f 8/94/76 16/111/92 9/112/92 1/91/76
