# Blender v3.4.1 OBJ File: 'Platformer_Pack_Export_EXTRA.blend'
# www.blender.org
mtllib floor_spikes_curved_4x2x2.mtl
o floor_spikes_curved_4x2x2
v 1.950000 0.000031 -0.021430
v 2.000000 0.050031 -0.021430
v 2.000000 0.450031 -0.021430
v -1.950000 0.000031 -0.021430
v -2.000000 0.050031 -0.021430
v -1.950000 0.500031 -0.021430
v -2.000000 0.450031 -0.021430
v 1.950000 0.500031 -0.021430
v 1.950000 0.585811 -1.414189
v 2.000000 0.621166 -1.378834
v 2.000000 0.904009 -1.095991
v -1.950000 0.585811 -1.414189
v -2.000000 0.621166 -1.378833
v -1.950000 0.939365 -1.060635
v -2.000000 0.904009 -1.095991
v 1.950000 0.939364 -1.060636
v 1.949999 0.278692 -1.018540
v 2.000000 0.321993 -0.993540
v 2.000000 0.668403 -0.793540
v -1.950001 0.278692 -1.018540
v -2.000000 0.321993 -0.993540
v -1.950000 0.711704 -0.768539
v -2.000000 0.668403 -0.793540
v 1.950000 0.711704 -0.768540
v 1.950000 0.073725 -0.538328
v 2.000000 0.122022 -0.525387
v 2.000000 0.508392 -0.421859
v -1.950001 0.073726 -0.538328
v -2.000000 0.122022 -0.525387
v -1.950000 0.556689 -0.408917
v -2.000000 0.508392 -0.421859
v 1.950000 0.556688 -0.408919
v -0.278571 0.500031 -0.021432
v 0.000000 1.011770 -0.133802
v 0.557143 1.011770 -0.133802
v 0.278572 0.556405 -0.406546
v 0.278572 0.500031 -0.021431
v 0.835715 0.500031 -0.021431
v 1.114286 1.011770 -0.133802
v 0.835715 0.556405 -0.406546
v 1.392857 0.500031 -0.021431
v 1.671429 1.011770 -0.133802
v 1.950000 0.500031 -0.021431
v 1.950000 0.556405 -0.406546
v 1.392857 0.556405 -0.406546
v -0.835714 0.500031 -0.021431
v -0.557143 1.011770 -0.133802
v -0.835714 0.556405 -0.406546
v -0.278571 0.556405 -0.406546
v -1.392857 0.500031 -0.021432
v -1.114286 1.011770 -0.133802
v -1.671428 1.011770 -0.133802
v -1.950000 0.556405 -0.406546
v -1.392857 0.556405 -0.406546
v -1.950000 0.500031 -0.021431
v -0.278571 0.556688 -0.408922
v 0.000000 1.080074 -0.385015
v 0.557143 1.080074 -0.385016
v 0.278572 0.710816 -0.766323
v 0.278572 0.556688 -0.408922
v 0.835715 0.556688 -0.408922
v 1.114286 1.080074 -0.385016
v 0.835715 0.710816 -0.766323
v 1.392857 0.556688 -0.408922
v 1.671429 1.080074 -0.385016
v 1.950000 0.556688 -0.408922
v 1.950000 0.710816 -0.766323
v 1.392857 0.710816 -0.766323
v -0.835714 0.556688 -0.408922
v -0.557143 1.080074 -0.385015
v -0.835714 0.710816 -0.766323
v -0.278571 0.710816 -0.766323
v -1.392857 0.556688 -0.408922
v -1.114286 1.080074 -0.385015
v -1.671428 1.080074 -0.385015
v -1.950000 0.710816 -0.766323
v -1.392857 0.710816 -0.766323
v -1.950000 0.556688 -0.408922
v -0.278571 0.711704 -0.768545
v 0.000000 1.211069 -0.609991
v 0.557143 1.211069 -0.609991
v 0.278572 0.939603 -1.060397
v 0.278572 0.711704 -0.768545
v 0.835715 0.711704 -0.768545
v 1.114286 1.211069 -0.609991
v 0.835715 0.939603 -1.060397
v 1.392857 0.711704 -0.768545
v 1.671429 1.211069 -0.609991
v 1.950000 0.711704 -0.768545
v 1.950000 0.939603 -1.060397
v 1.392857 0.939603 -1.060397
v -0.835714 0.711704 -0.768545
v -0.557143 1.211069 -0.609991
v -0.835714 0.939603 -1.060397
v -0.278571 0.939603 -1.060397
v -1.392857 0.711704 -0.768545
v -1.114286 1.211069 -0.609991
v -1.671428 1.211069 -0.609991
v -1.950000 0.939603 -1.060397
v -1.392857 0.939603 -1.060397
v -1.950000 0.711704 -0.768545
v -1.950000 0.050031 -0.000000
v 1.950000 0.050031 0.000000
v -1.950000 0.450031 0.000000
v 1.950000 0.450031 0.000000
v 1.950000 1.978571 -1.999969
v 2.000000 1.978570 -1.949969
v 2.000000 1.978570 -1.549969
v -1.950000 1.978570 -1.999969
v -2.000000 1.978570 -1.949969
v -1.950000 1.978570 -1.499969
v -2.000000 1.978570 -1.549969
v 1.950000 1.978570 -1.499969
v 1.950000 0.981460 -1.721309
v 2.000000 1.006460 -1.678007
v 2.000000 1.206460 -1.331597
v -1.950001 0.981460 -1.721308
v -2.000000 1.006460 -1.678007
v -1.950000 1.231461 -1.288296
v -2.000000 1.206460 -1.331597
v 1.950000 1.231460 -1.288296
v 1.949999 1.461673 -1.926275
v 2.000000 1.474613 -1.877978
v 2.000000 1.578141 -1.491608
v -1.950001 1.461672 -1.926274
v -2.000000 1.474613 -1.877978
v -1.950000 1.591083 -1.443311
v -2.000000 1.578141 -1.491608
v 1.950000 1.591081 -1.443312
v -0.278571 1.978569 -1.499969
v 0.000000 1.866198 -0.988230
v 0.557143 1.866198 -0.988230
v 0.278572 1.593454 -1.443595
v 0.278572 1.978569 -1.499969
v 0.835714 1.978569 -1.499969
v 1.114286 1.866198 -0.988230
v 0.835714 1.593454 -1.443595
v 1.392857 1.978569 -1.499969
v 1.671429 1.866198 -0.988230
v 1.950000 1.978569 -1.499969
v 1.950000 1.593454 -1.443595
v 1.392857 1.593454 -1.443595
v -0.835714 1.978568 -1.499969
v -0.557143 1.866198 -0.988230
v -0.835714 1.593454 -1.443595
v -0.278571 1.593454 -1.443595
v -1.392857 1.978568 -1.499969
v -1.114286 1.866198 -0.988230
v -1.671428 1.866198 -0.988229
v -1.950000 1.593454 -1.443595
v -1.392857 1.593454 -1.443595
v -1.950000 1.978568 -1.499969
v -0.278571 1.591078 -1.443312
v 0.000000 1.614985 -0.919926
v 0.557143 1.614985 -0.919926
v 0.278572 1.233677 -1.289184
v 0.278572 1.591078 -1.443312
v 0.835714 1.591078 -1.443312
v 1.114286 1.614985 -0.919926
v 0.835714 1.233677 -1.289184
v 1.392857 1.591078 -1.443312
v 1.671429 1.614985 -0.919926
v 1.950000 1.591078 -1.443312
v 1.950000 1.233677 -1.289184
v 1.392857 1.233677 -1.289184
v -0.835714 1.591078 -1.443312
v -0.557143 1.614985 -0.919926
v -0.835714 1.233677 -1.289184
v -0.278571 1.233677 -1.289184
v -1.392857 1.591078 -1.443312
v -1.114286 1.614984 -0.919926
v -1.671428 1.614984 -0.919926
v -1.950000 1.233676 -1.289184
v -1.392857 1.233676 -1.289184
v -1.950000 1.591078 -1.443312
v -0.278571 1.231455 -1.288296
v 0.000000 1.390009 -0.788931
v 0.557143 1.390009 -0.788931
v 0.278572 1.231455 -1.288296
v 0.835714 1.231455 -1.288296
v 1.114286 1.390009 -0.788931
v 1.392857 1.231455 -1.288296
v 1.671429 1.390009 -0.788931
v 1.950000 1.231455 -1.288296
v -0.835714 1.231455 -1.288296
v -0.557143 1.390009 -0.788931
v -1.392857 1.231455 -1.288296
v -1.114286 1.390009 -0.788931
v -1.671428 1.390009 -0.788931
v -1.950000 1.231455 -1.288296
v -1.950000 2.000000 -1.949969
v 1.950000 2.000000 -1.949969
v -1.950000 2.000000 -1.549969
v 1.950000 2.000000 -1.549969
vt 0.307228 0.890740
vt 0.307228 0.890740
vt 0.307228 0.932305
vt 0.307228 0.932305
vt 0.307228 0.875115
vt 0.307228 0.875115
vt 0.307228 0.869919
vt 0.307228 0.869919
vt 0.307228 0.869919
vt 0.307228 0.869919
vt 0.307228 0.875115
vt 0.307228 0.875115
vt 0.307228 0.854294
vt 0.307228 0.854294
vt 0.307228 0.854294
vt 0.307228 0.854294
vt 0.307228 0.984375
vt 0.307228 0.984375
vt 0.307228 0.984375
vt 0.307228 0.984375
vt 0.307228 0.932304
vt 0.307228 0.932304
vt 0.307228 0.890740
vt 0.307228 0.890740
vt 0.307228 0.979179
vt 0.307228 0.979179
vt 0.307228 0.979179
vt 0.307228 0.979179
vt 0.307228 0.984375
vt 0.307228 0.979179
vt 0.307228 0.979179
vt 0.307228 0.984375
vt 0.307228 0.890740
vt 0.307228 0.932305
vt 0.307228 0.875115
vt 0.307228 0.869919
vt 0.307228 0.869919
vt 0.307228 0.875115
vt 0.307228 0.854294
vt 0.307228 0.854294
vt 0.307228 0.932304
vt 0.307228 0.890740
vt 0.307228 0.984375
vt 0.307228 0.984375
vt 0.307228 0.932304
vt 0.307228 0.890740
vt 0.307228 0.979179
vt 0.307228 0.979179
vt 0.307228 0.890740
vt 0.307228 0.932305
vt 0.307228 0.875115
vt 0.307228 0.869919
vt 0.307228 0.869919
vt 0.307228 0.875115
vt 0.307228 0.854294
vt 0.307228 0.854294
vt 0.266109 0.754822
vt 0.266109 0.754822
vt 0.310625 0.921114
vt 0.355142 0.754822
vt 0.310625 0.952364
vt 0.355142 0.754822
vt 0.266109 0.754822
vt 0.310625 0.952364
vt 0.355142 0.754822
vt 0.310625 0.983614
vt 0.266109 0.754822
vt 0.310625 0.921114
vt 0.355142 0.754822
vt 0.310625 0.952364
vt 0.266109 0.800831
vt 0.310625 0.952364
vt 0.266109 0.894581
vt 0.355142 0.832081
vt 0.310625 0.983614
vt 0.355142 0.863331
vt 0.266109 0.754822
vt 0.310625 0.952364
vt 0.310625 0.983614
vt 0.355142 0.754822
vt 0.266109 0.754822
vt 0.310625 0.921114
vt 0.310625 0.952364
vt 0.355142 0.754822
vt 0.266109 0.863331
vt 0.310625 0.952364
vt 0.310625 0.983614
vt 0.355142 0.800831
vt 0.355142 0.894581
vt 0.266109 0.832081
vt 0.266109 0.754822
vt 0.266109 0.754822
vt 0.310625 0.921114
vt 0.355142 0.754822
vt 0.310625 0.952364
vt 0.355142 0.754822
vt 0.266109 0.754822
vt 0.310625 0.952364
vt 0.355142 0.754822
vt 0.310625 0.983614
vt 0.266109 0.754822
vt 0.310625 0.921114
vt 0.355142 0.754822
vt 0.310625 0.952364
vt 0.266109 0.800831
vt 0.310625 0.952364
vt 0.266109 0.894581
vt 0.355142 0.832081
vt 0.310625 0.983614
vt 0.355142 0.863331
vt 0.266109 0.754822
vt 0.310625 0.952364
vt 0.310625 0.983614
vt 0.355142 0.754822
vt 0.266109 0.754822
vt 0.310625 0.921114
vt 0.310625 0.952364
vt 0.355142 0.754822
vt 0.266109 0.863331
vt 0.310625 0.952364
vt 0.310625 0.983614
vt 0.355142 0.800831
vt 0.355142 0.894581
vt 0.266109 0.832081
vt 0.266109 0.754822
vt 0.266109 0.754822
vt 0.310625 0.921114
vt 0.355142 0.754822
vt 0.310625 0.952364
vt 0.355142 0.754822
vt 0.266109 0.754822
vt 0.310625 0.952364
vt 0.355142 0.754822
vt 0.310625 0.983614
vt 0.266109 0.754822
vt 0.310625 0.921114
vt 0.355142 0.754822
vt 0.310625 0.952364
vt 0.266109 0.800831
vt 0.310625 0.952364
vt 0.266109 0.894581
vt 0.355142 0.832081
vt 0.310625 0.983614
vt 0.355142 0.863331
vt 0.266109 0.754822
vt 0.310625 0.952364
vt 0.310625 0.983614
vt 0.355142 0.754822
vt 0.266109 0.754822
vt 0.310625 0.921114
vt 0.310625 0.952364
vt 0.355142 0.754822
vt 0.266109 0.863331
vt 0.310625 0.952364
vt 0.310625 0.983614
vt 0.355142 0.800831
vt 0.355142 0.894581
vt 0.266109 0.832081
vt 0.307228 0.973958
vt 0.307228 0.881365
vt 0.307228 0.972929
vt 0.307228 0.890621
vt 0.307228 0.932305
vt 0.307228 0.890740
vt 0.307228 0.869919
vt 0.307228 0.875115
vt 0.307228 0.875115
vt 0.307228 0.869919
vt 0.307228 0.854294
vt 0.307228 0.854294
vt 0.307228 0.984375
vt 0.307228 0.984375
vt 0.307228 0.890740
vt 0.307228 0.932304
vt 0.307228 0.979179
vt 0.307228 0.979179
vt 0.307228 0.979179
vt 0.307228 0.984375
vt 0.307228 0.984375
vt 0.307228 0.979179
vt 0.307228 0.932305
vt 0.307228 0.890740
vt 0.307228 0.869919
vt 0.307228 0.875115
vt 0.307228 0.875115
vt 0.307228 0.869919
vt 0.307228 0.854294
vt 0.307228 0.854294
vt 0.307228 0.890740
vt 0.307228 0.932304
vt 0.307228 0.984375
vt 0.307228 0.984375
vt 0.307228 0.890740
vt 0.307228 0.932304
vt 0.307228 0.979179
vt 0.307228 0.979179
vt 0.307228 0.932305
vt 0.307228 0.890740
vt 0.307228 0.869919
vt 0.307228 0.875115
vt 0.307228 0.875115
vt 0.307228 0.869919
vt 0.307228 0.854294
vt 0.307228 0.854294
vt 0.266109 0.754822
vt 0.310625 0.921114
vt 0.266109 0.754822
vt 0.310625 0.952364
vt 0.355142 0.754822
vt 0.355142 0.754822
vt 0.310625 0.952364
vt 0.266109 0.754822
vt 0.310625 0.983614
vt 0.355142 0.754822
vt 0.310625 0.921114
vt 0.266109 0.754822
vt 0.310625 0.952364
vt 0.355142 0.754822
vt 0.310625 0.952364
vt 0.266109 0.800831
vt 0.266109 0.894581
vt 0.310625 0.983614
vt 0.355142 0.832081
vt 0.355142 0.863331
vt 0.266109 0.754822
vt 0.310625 0.952364
vt 0.310625 0.983614
vt 0.355142 0.754822
vt 0.266109 0.754822
vt 0.310625 0.921114
vt 0.310625 0.952364
vt 0.355142 0.754822
vt 0.266109 0.863331
vt 0.310625 0.952364
vt 0.310625 0.983614
vt 0.355142 0.800831
vt 0.355142 0.894581
vt 0.266109 0.832081
vt 0.266109 0.754822
vt 0.310625 0.921114
vt 0.266109 0.754822
vt 0.310625 0.952364
vt 0.355142 0.754822
vt 0.355142 0.754822
vt 0.310625 0.952364
vt 0.266109 0.754822
vt 0.310625 0.983614
vt 0.355142 0.754822
vt 0.310625 0.921114
vt 0.266109 0.754822
vt 0.310625 0.952364
vt 0.355142 0.754822
vt 0.310625 0.952364
vt 0.266109 0.800831
vt 0.266109 0.894581
vt 0.310625 0.983614
vt 0.355142 0.832081
vt 0.355142 0.863331
vt 0.266109 0.754822
vt 0.310625 0.952364
vt 0.310625 0.983614
vt 0.355142 0.754822
vt 0.266109 0.754822
vt 0.310625 0.921114
vt 0.310625 0.952364
vt 0.355142 0.754822
vt 0.266109 0.863331
vt 0.310625 0.952364
vt 0.310625 0.983614
vt 0.355142 0.800831
vt 0.355142 0.894581
vt 0.266109 0.832081
vt 0.266109 0.754822
vt 0.310625 0.921114
vt 0.266109 0.754822
vt 0.310625 0.952364
vt 0.310625 0.952364
vt 0.266109 0.754822
vt 0.310625 0.983614
vt 0.310625 0.921114
vt 0.266109 0.754822
vt 0.310625 0.952364
vt 0.310625 0.952364
vt 0.266109 0.800831
vt 0.266109 0.894581
vt 0.310625 0.983614
vt 0.266109 0.754822
vt 0.310625 0.952364
vt 0.310625 0.983614
vt 0.266109 0.754822
vt 0.310625 0.921114
vt 0.310625 0.952364
vt 0.266109 0.863331
vt 0.310625 0.952364
vt 0.310625 0.983614
vt 0.266109 0.832081
vt 0.307228 0.973958
vt 0.307228 0.881365
vt 0.307228 0.972929
vt 0.307228 0.890621
vn -1.0000 0.0000 0.0000
vn 0.7068 -0.5002 -0.5002
vn 0.7070 -0.6094 -0.3589
vn 0.7070 -0.6097 -0.3584
vn -0.7069 -0.5002 -0.5002
vn -0.7070 -0.6097 -0.3584
vn -0.7070 -0.6094 -0.3589
vn -0.0000 -0.7071 -0.7071
vn -0.0000 -0.8619 -0.5070
vn 0.0000 0.7071 0.7071
vn 0.0000 0.8605 0.5094
vn 1.0000 -0.0000 -0.0000
vn 0.7068 0.5002 0.5002
vn 0.7069 0.6085 0.3606
vn 0.7069 0.6089 0.3598
vn -0.7068 0.5002 0.5002
vn -0.7069 0.6089 0.3598
vn -0.7069 0.6085 0.3606
vn 0.7071 0.6803 0.1931
vn 0.7071 0.6806 0.1920
vn -0.7071 0.6806 0.1920
vn -0.7071 0.6802 0.1931
vn 0.7071 -0.6809 -0.1908
vn 0.7071 -0.6811 -0.1900
vn -0.7071 -0.6811 -0.1900
vn -0.7071 -0.6809 -0.1908
vn -0.0000 -0.9631 -0.2692
vn 0.0000 0.9621 0.2726
vn 0.0000 0.9895 0.1447
vn 0.7040 0.7027 0.1026
vn -0.7040 0.7027 0.1026
vn 0.7040 -0.7030 -0.1003
vn -0.7040 -0.7030 -0.1003
vn -0.0000 -0.9900 -0.1411
vn -0.0000 0.2145 0.9767
vn 0.8694 0.4890 0.0716
vn 0.0000 0.5138 -0.8579
vn -0.8694 0.4890 0.0716
vn -0.0000 -0.0456 0.9990
vn 0.8694 0.4538 0.1957
vn 0.0000 0.7184 -0.6957
vn -0.8694 0.4538 0.1957
vn 0.0000 -0.3026 0.9531
vn 0.8698 0.3888 0.3036
vn 0.0000 0.8565 -0.5162
vn -0.8698 0.3888 0.3036
vn 0.1930 0.1930 0.9620
vn 0.3905 0.1321 0.9111
vn 0.1321 0.3905 0.9111
vn -0.3905 -0.1321 0.9111
vn -0.1321 -0.3905 0.9111
vn -0.1930 -0.1930 0.9620
vn -0.3905 0.1321 0.9111
vn -0.1930 0.1930 0.9620
vn 0.1321 -0.3905 0.9111
vn 0.3905 -0.1321 0.9111
vn 0.1930 -0.1930 0.9620
vn -0.1321 0.3905 0.9111
vn 0.7070 -0.3584 -0.6097
vn 0.7070 -0.3589 -0.6094
vn -0.7070 -0.3589 -0.6094
vn -0.7070 -0.3584 -0.6097
vn -0.0000 -0.5070 -0.8619
vn 0.0000 0.5094 0.8605
vn 0.7069 0.3598 0.6089
vn 0.7069 0.3606 0.6085
vn -0.7069 0.3606 0.6085
vn -0.7069 0.3598 0.6089
vn 0.7071 0.1920 0.6806
vn 0.7071 0.1931 0.6803
vn -0.7071 0.1931 0.6802
vn -0.7071 0.1920 0.6806
vn 0.7071 -0.1900 -0.6811
vn 0.7071 -0.1908 -0.6809
vn -0.7071 -0.1908 -0.6809
vn -0.7071 -0.1900 -0.6811
vn -0.0000 -0.2692 -0.9631
vn 0.0000 0.2726 0.9621
vn 0.0000 0.1447 0.9895
vn 0.7040 0.1026 0.7027
vn -0.7040 0.1026 0.7027
vn 0.7040 -0.1003 -0.7030
vn -0.7040 -0.1003 -0.7030
vn -0.0000 -0.1411 -0.9900
vn -0.0000 0.9767 0.2145
vn 0.8694 0.0716 0.4890
vn 0.0000 -0.8579 0.5138
vn -0.8694 0.0716 0.4890
vn -0.0000 0.9990 -0.0456
vn 0.8694 0.1957 0.4538
vn 0.0000 -0.6957 0.7184
vn -0.8694 0.1957 0.4538
vn 0.0000 0.9531 -0.3026
vn 0.8698 0.3036 0.3888
vn 0.0000 -0.5162 0.8565
vn -0.8698 0.3036 0.3888
vn 0.1930 0.9620 0.1930
vn 0.1321 0.9111 0.3905
vn 0.3905 0.9111 0.1321
vn -0.3905 0.9111 -0.1321
vn -0.1930 0.9620 -0.1930
vn -0.1321 0.9111 -0.3905
vn -0.3905 0.9111 0.1321
vn -0.1930 0.9620 0.1930
vn 0.1321 0.9111 -0.3905
vn 0.1930 0.9620 -0.1930
vn 0.3905 0.9111 -0.1321
vn -0.1321 0.9111 0.3905
usemtl platformer
s 1
f 13/1/1 21/2/1 23/3/1 15/4/1
f 10/5/2 18/6/3 17/7/4 9/8/2
f 12/9/5 20/10/6 21/11/7 13/12/5
f 9/13/8 17/14/9 20/15/9 12/16/8
f 14/17/10 22/18/11 24/19/11 16/20/10
f 11/21/12 19/22/12 18/23/12 10/24/12
f 16/20/13 24/19/14 19/25/15 11/26/13
f 15/27/16 23/28/17 22/18/18 14/17/16
f 24/19/14 32/29/19 27/30/20 19/25/15
f 23/28/17 31/31/21 30/32/22 22/18/18
f 21/2/1 29/33/1 31/34/1 23/3/1
f 18/6/3 26/35/23 25/36/24 17/7/4
f 20/10/6 28/37/25 29/38/26 21/11/7
f 17/14/9 25/39/27 28/40/27 20/15/9
f 22/18/11 30/32/28 32/29/28 24/19/11
f 19/22/12 27/41/12 26/42/12 18/23/12
f 30/32/28 6/43/29 8/44/29 32/29/28
f 27/41/12 3/45/12 2/46/12 26/42/12
f 32/29/19 8/44/30 3/47/30 27/30/20
f 31/31/21 7/48/31 6/43/31 30/32/22
f 29/33/1 5/49/1 7/50/1 31/34/1
f 26/35/23 2/51/32 1/52/32 25/36/24
f 28/37/25 4/53/33 5/54/33 29/38/26
f 25/39/27 1/55/34 4/56/34 28/40/27
f 33/57/35 37/58/35 34/59/35
f 37/58/36 36/60/36 34/61/36
f 36/60/37 49/62/37 34/59/37
f 49/62/38 33/57/38 34/61/38
f 37/58/35 38/63/35 35/64/35
f 38/63/36 40/65/36 35/66/36
f 40/65/37 36/60/37 35/64/37
f 36/60/38 37/58/38 35/66/38
f 38/63/35 41/67/35 39/68/35
f 41/67/36 45/69/36 39/70/36
f 45/69/37 40/65/37 39/68/37
f 40/65/38 38/63/38 39/70/38
f 41/67/35 43/71/35 42/72/35
f 43/73/36 44/74/36 42/75/36
f 44/76/37 45/69/37 42/72/37
f 45/69/38 41/67/38 42/75/38
f 46/77/35 33/57/35 47/78/35
f 33/57/36 49/62/36 47/79/36
f 49/62/37 48/80/37 47/78/37
f 48/80/38 46/77/38 47/79/38
f 50/81/35 46/77/35 51/82/35
f 46/77/36 48/80/36 51/83/36
f 48/80/37 54/84/37 51/82/37
f 54/84/38 50/81/38 51/83/38
f 55/85/35 50/81/35 52/86/35
f 50/81/36 54/84/36 52/87/36
f 54/84/37 53/88/37 52/86/37
f 53/89/38 55/90/38 52/87/38
f 56/91/39 60/92/39 57/93/39
f 60/92/40 59/94/40 57/95/40
f 59/94/41 72/96/41 57/93/41
f 72/96/42 56/91/42 57/95/42
f 60/92/39 61/97/39 58/98/39
f 61/97/40 63/99/40 58/100/40
f 63/99/41 59/94/41 58/98/41
f 59/94/42 60/92/42 58/100/42
f 61/97/39 64/101/39 62/102/39
f 64/101/40 68/103/40 62/104/40
f 68/103/41 63/99/41 62/102/41
f 63/99/42 61/97/42 62/104/42
f 64/101/39 66/105/39 65/106/39
f 66/107/40 67/108/40 65/109/40
f 67/110/41 68/103/41 65/106/41
f 68/103/42 64/101/42 65/109/42
f 69/111/39 56/91/39 70/112/39
f 56/91/40 72/96/40 70/113/40
f 72/96/41 71/114/41 70/112/41
f 71/114/42 69/111/42 70/113/42
f 73/115/39 69/111/39 74/116/39
f 69/111/40 71/114/40 74/117/40
f 71/114/41 77/118/41 74/116/41
f 77/118/42 73/115/42 74/117/42
f 78/119/39 73/115/39 75/120/39
f 73/115/40 77/118/40 75/121/40
f 77/118/41 76/122/41 75/120/41
f 76/123/42 78/124/42 75/121/42
f 79/125/43 83/126/43 80/127/43
f 83/126/44 82/128/44 80/129/44
f 82/128/45 95/130/45 80/127/45
f 95/130/46 79/125/46 80/129/46
f 83/126/43 84/131/43 81/132/43
f 84/131/44 86/133/44 81/134/44
f 86/133/45 82/128/45 81/132/45
f 82/128/46 83/126/46 81/134/46
f 84/131/43 87/135/43 85/136/43
f 87/135/44 91/137/44 85/138/44
f 91/137/45 86/133/45 85/136/45
f 86/133/46 84/131/46 85/138/46
f 87/135/43 89/139/43 88/140/43
f 89/141/44 90/142/44 88/143/44
f 90/144/45 91/137/45 88/140/45
f 91/137/46 87/135/46 88/143/46
f 92/145/43 79/125/43 93/146/43
f 79/125/44 95/130/44 93/147/44
f 95/130/45 94/148/45 93/146/45
f 94/148/46 92/145/46 93/147/46
f 96/149/43 92/145/43 97/150/43
f 92/145/44 94/148/44 97/151/44
f 94/148/45 100/152/45 97/150/45
f 100/152/46 96/149/46 97/151/46
f 101/153/43 96/149/43 98/154/43
f 96/149/44 100/152/44 98/155/44
f 100/152/45 99/156/45 98/154/45
f 99/157/46 101/158/46 98/155/46
f 105/159/47 3/47/48 8/44/49
f 5/54/50 4/53/51 102/160/52
f 7/50/53 5/54/50 102/160/52 104/161/54
f 1/52/55 2/46/56 103/162/57
f 104/161/54 105/159/47 8/44/49 6/43/58
f 4/53/51 1/52/55 103/162/57 102/160/52
f 102/160/52 103/162/57 105/159/47 104/161/54
f 6/43/58 7/50/53 104/161/54
f 103/162/57 2/46/56 3/47/48 105/159/47
f 13/1/1 15/4/1 120/163/1 118/164/1
f 10/5/2 9/8/2 114/165/59 115/166/60
f 12/9/5 13/12/5 118/167/61 117/168/62
f 9/13/8 12/16/8 117/169/63 114/170/63
f 14/17/10 16/20/10 121/171/64 119/172/64
f 11/21/12 10/24/12 115/173/12 116/174/12
f 16/20/13 11/26/13 116/175/65 121/171/66
f 15/27/16 14/17/16 119/172/67 120/176/68
f 121/171/66 116/175/65 124/177/69 129/178/70
f 120/176/68 119/172/67 127/179/71 128/180/72
f 118/164/1 120/163/1 128/181/1 126/182/1
f 115/166/60 114/165/59 122/183/73 123/184/74
f 117/168/62 118/167/61 126/185/75 125/186/76
f 114/170/63 117/169/63 125/187/77 122/188/77
f 119/172/64 121/171/64 129/178/78 127/179/78
f 116/174/12 115/173/12 123/189/12 124/190/12
f 127/179/78 129/178/78 113/191/79 111/192/79
f 124/190/12 123/189/12 107/193/12 108/194/12
f 129/178/70 124/177/69 108/195/80 113/191/80
f 128/180/72 127/179/71 111/192/81 112/196/81
f 126/182/1 128/181/1 112/197/1 110/198/1
f 123/184/74 122/183/73 106/199/82 107/200/82
f 125/186/76 126/185/75 110/201/83 109/202/83
f 122/188/77 125/187/77 109/203/84 106/204/84
f 130/205/85 131/206/85 134/207/85
f 134/207/86 131/208/86 133/209/86
f 133/209/87 131/206/87 146/210/87
f 146/210/88 131/208/88 130/205/88
f 134/207/85 132/211/85 135/212/85
f 135/212/86 132/213/86 137/214/86
f 137/214/87 132/211/87 133/209/87
f 133/209/88 132/213/88 134/207/88
f 135/212/85 136/215/85 138/216/85
f 138/216/86 136/217/86 142/218/86
f 142/218/87 136/215/87 137/214/87
f 137/214/88 136/217/88 135/212/88
f 138/216/85 139/219/85 140/220/85
f 140/221/86 139/222/86 141/223/86
f 141/224/87 139/219/87 142/218/87
f 142/218/88 139/222/88 138/216/88
f 143/225/85 144/226/85 130/205/85
f 130/205/86 144/227/86 146/210/86
f 146/210/87 144/226/87 145/228/87
f 145/228/88 144/227/88 143/225/88
f 147/229/85 148/230/85 143/225/85
f 143/225/86 148/231/86 145/228/86
f 145/228/87 148/230/87 151/232/87
f 151/232/88 148/231/88 147/229/88
f 152/233/85 149/234/85 147/229/85
f 147/229/86 149/235/86 151/232/86
f 151/232/87 149/234/87 150/236/87
f 150/237/88 149/235/88 152/238/88
f 153/239/89 154/240/89 157/241/89
f 157/241/90 154/242/90 156/243/90
f 156/243/91 154/240/91 169/244/91
f 169/244/92 154/242/92 153/239/92
f 157/241/89 155/245/89 158/246/89
f 158/246/90 155/247/90 160/248/90
f 160/248/91 155/245/91 156/243/91
f 156/243/92 155/247/92 157/241/92
f 158/246/89 159/249/89 161/250/89
f 161/250/90 159/251/90 165/252/90
f 165/252/91 159/249/91 160/248/91
f 160/248/92 159/251/92 158/246/92
f 161/250/89 162/253/89 163/254/89
f 163/255/90 162/256/90 164/257/90
f 164/258/91 162/253/91 165/252/91
f 165/252/92 162/256/92 161/250/92
f 166/259/89 167/260/89 153/239/89
f 153/239/90 167/261/90 169/244/90
f 169/244/91 167/260/91 168/262/91
f 168/262/92 167/261/92 166/259/92
f 170/263/89 171/264/89 166/259/89
f 166/259/90 171/265/90 168/262/90
f 168/262/91 171/264/91 174/266/91
f 174/266/92 171/265/92 170/263/92
f 175/267/89 172/268/89 170/263/89
f 170/263/90 172/269/90 174/266/90
f 174/266/91 172/268/91 173/270/91
f 173/271/92 172/269/92 175/272/92
f 176/273/93 177/274/93 179/275/93
f 179/275/94 177/276/94 82/128/94
f 82/128/95 177/274/95 95/130/95
f 95/130/96 177/276/96 176/273/96
f 179/275/93 178/277/93 180/278/93
f 180/278/94 178/279/94 86/133/94
f 86/133/95 178/277/95 82/128/95
f 82/128/96 178/279/96 179/275/96
f 180/278/93 181/280/93 182/281/93
f 182/281/94 181/282/94 91/137/94
f 91/137/95 181/280/95 86/133/95
f 86/133/96 181/282/96 180/278/96
f 182/281/93 183/283/93 184/284/93
f 184/285/94 183/286/94 90/142/94
f 90/144/95 183/283/95 91/137/95
f 91/137/96 183/286/96 182/281/96
f 185/287/93 186/288/93 176/273/93
f 176/273/94 186/289/94 95/130/94
f 95/130/95 186/288/95 94/148/95
f 94/148/96 186/289/96 185/287/96
f 187/290/93 188/291/93 185/287/93
f 185/287/94 188/292/94 94/148/94
f 94/148/95 188/291/95 100/152/95
f 100/152/96 188/292/96 187/290/96
f 190/293/93 189/294/93 187/290/93
f 187/290/94 189/295/94 100/152/94
f 100/152/95 189/294/95 99/156/95
f 99/157/96 189/295/96 190/296/96
f 194/297/97 113/191/98 108/195/99
f 110/201/100 191/298/101 109/202/102
f 112/197/103 193/299/104 191/298/101 110/201/100
f 106/199/105 192/300/106 107/193/107
f 193/299/104 111/192/108 113/191/98 194/297/97
f 109/202/102 191/298/101 192/300/106 106/199/105
f 191/298/101 193/299/104 194/297/97 192/300/106
f 111/192/108 193/299/104 112/197/103
f 192/300/106 194/297/97 108/195/99 107/193/107
