# Blender v3.4.1 OBJ File: 'Platformer_Pack_Export_EXTRA.blend'
# www.blender.org
mtllib floor_spikes_2x2x1.mtl
o floor_spikes_2x2x1
v -0.950000 0.500000 -0.950000
v -0.950000 0.000000 0.950000
v -0.950000 0.050000 1.000000
v -1.000000 0.050000 0.950000
v -0.950000 0.450000 1.000000
v -0.950000 0.500000 0.950000
v -1.000000 0.450000 0.950000
v -0.950000 0.000000 -0.950000
v -1.000000 0.050000 -0.950000
v -0.950000 0.050000 -1.000000
v -0.950000 0.450000 -1.000000
v -1.000000 0.450000 -0.950000
v 0.950000 0.000000 0.950000
v 1.000000 0.050000 0.950000
v 0.950000 0.050000 1.000000
v 0.950000 0.500000 0.950000
v 0.950000 0.450000 1.000000
v 1.000000 0.450000 0.950000
v 0.950000 0.000000 -0.950000
v 0.950000 0.050000 -1.000000
v 1.000000 0.050000 -0.950000
v 0.950000 0.500000 -0.950000
v 1.000000 0.450000 -0.950000
v 0.950000 0.450000 -1.000000
v -0.316667 0.500000 0.316667
v 0.000000 1.000000 0.000000
v 0.633333 1.000000 0.000000
v 0.950000 0.500000 -0.316667
v -0.950000 0.500000 0.316667
v -0.633333 1.000000 0.000000
v -0.950000 0.500000 -0.316667
v 0.000000 1.000000 -0.633333
v 0.316667 0.500000 -0.316667
v 0.633333 1.000000 -0.633333
v 0.950000 0.500000 -0.950000
v -0.633333 1.000000 -0.633333
v -0.316667 0.500000 -0.316667
v -0.950000 0.500000 -0.950000
v -0.316667 0.500000 -0.950000
v 0.316667 0.500000 -0.950000
v -0.316667 0.500000 0.950000
v 0.000000 1.000000 0.633333
v 0.316667 0.500000 0.950000
v 0.633333 1.000000 0.633333
v 0.316667 0.500000 0.316667
v 0.950000 0.500000 0.316667
v -0.633333 1.000000 0.633333
v 0.950000 0.500000 0.950000
v -0.950000 0.500000 0.950000
vt 0.351345 0.890740
vt 0.351345 0.932304
vt 0.351345 0.932304
vt 0.351345 0.890740
vt 0.273655 0.890740
vt 0.273655 0.932304
vt 0.273655 0.932304
vt 0.273655 0.890740
vt 0.275597 0.869919
vt 0.275597 0.875115
vt 0.273655 0.875115
vt 0.275597 0.979179
vt 0.275597 0.984375
vt 0.273655 0.979179
vt 0.275597 0.869919
vt 0.273655 0.875115
vt 0.275597 0.875115
vt 0.275597 0.984375
vt 0.275597 0.979179
vt 0.273655 0.979179
vt 0.349403 0.869919
vt 0.351345 0.875115
vt 0.349403 0.875115
vt 0.349403 0.984375
vt 0.349403 0.979179
vt 0.351345 0.979179
vt 0.349403 0.869919
vt 0.349403 0.875115
vt 0.351345 0.875115
vt 0.349403 0.984375
vt 0.351345 0.979179
vt 0.349403 0.979179
vt 0.275597 0.906365
vt 0.275597 0.947929
vt 0.273655 0.947929
vt 0.273655 0.906365
vt 0.275597 0.947929
vt 0.275597 0.906365
vt 0.273655 0.906365
vt 0.273655 0.947929
vt 0.351345 0.947929
vt 0.351345 0.906365
vt 0.349403 0.906365
vt 0.349403 0.947929
vt 0.349403 0.947929
vt 0.349403 0.906365
vt 0.351345 0.906365
vt 0.351345 0.947929
vt 0.275597 0.854294
vt 0.349403 0.854294
vt 0.349403 0.854294
vt 0.275597 0.854294
vt 0.275597 0.932304
vt 0.349403 0.932304
vt 0.349403 0.890740
vt 0.275597 0.890740
vt 0.349403 0.932304
vt 0.275597 0.932304
vt 0.275597 0.890740
vt 0.349403 0.890740
vt 0.266109 0.754822
vt 0.310625 0.921114
vt 0.266109 0.754822
vt 0.310625 0.952364
vt 0.355142 0.754822
vt 0.355142 0.754822
vt 0.266109 0.754822
vt 0.310625 0.952364
vt 0.266109 0.754822
vt 0.310625 0.983614
vt 0.355142 0.754822
vt 0.355142 0.754822
vt 0.266109 0.754822
vt 0.310625 0.952364
vt 0.266109 0.754822
vt 0.310625 0.983614
vt 0.355142 0.754822
vt 0.355142 0.754822
vt 0.310625 0.952364
vt 0.266109 0.754822
vt 0.310625 0.983614
vt 0.355142 0.754822
vt 0.310625 0.952364
vt 0.266109 0.754822
vt 0.310625 0.983614
vt 0.355142 0.754822
vt 0.310625 0.952364
vt 0.266109 0.754822
vt 0.310625 0.983614
vt 0.355142 0.754822
vt 0.266109 0.754822
vt 0.310625 0.952364
vt 0.310625 0.983614
vt 0.355142 0.754822
vt 0.266109 0.754822
vt 0.310625 0.952364
vt 0.310625 0.983614
vt 0.355142 0.754822
vt 0.266109 0.754822
vt 0.310625 0.952364
vt 0.310625 0.983614
vt 0.355142 0.754822
vn 1.0000 0.0000 0.0000
vn -1.0000 0.0000 0.0000
vn -0.4606 -0.7588 0.4606
vn -0.4606 -0.4606 0.7588
vn -0.7588 -0.4606 0.4606
vn -0.4606 0.4606 0.7588
vn -0.4606 0.7588 0.4606
vn -0.7588 0.4606 0.4606
vn -0.4606 -0.7588 -0.4606
vn -0.7588 -0.4606 -0.4606
vn -0.4606 -0.4606 -0.7588
vn -0.4606 0.7588 -0.4606
vn -0.4606 0.4606 -0.7588
vn -0.7588 0.4606 -0.4606
vn 0.4606 -0.7588 0.4606
vn 0.7588 -0.4606 0.4606
vn 0.4606 -0.4606 0.7588
vn 0.4606 0.7588 0.4606
vn 0.4606 0.4606 0.7588
vn 0.7588 0.4606 0.4606
vn 0.4606 -0.7588 -0.4606
vn 0.4606 -0.4606 -0.7588
vn 0.7588 -0.4606 -0.4606
vn 0.4606 0.7588 -0.4606
vn 0.7588 0.4606 -0.4606
vn 0.4606 0.4606 -0.7588
vn 0.0000 -1.0000 0.0000
vn 0.0000 0.0000 -1.0000
vn 0.0000 0.0000 1.0000
vn 0.0000 1.0000 0.0000
vn -0.8448 0.5351 0.0000
vn 0.0000 0.5351 -0.8448
vn 0.8448 0.5351 0.0000
vn 0.0000 0.5351 0.8448
usemtl platformer
s 1
f 21/1/1 23/2/1 18/3/1 14/4/1
f 4/5/2 7/6/2 12/7/2 9/8/2
f 2/9/3 3/10/4 4/11/5
f 5/12/6 6/13/7 7/14/8
f 8/15/9 9/16/10 10/17/11
f 1/18/12 11/19/13 12/20/14
f 13/21/15 14/22/16 15/23/17
f 16/24/18 17/25/19 18/26/20
f 19/27/21 20/28/22 21/29/23
f 22/30/24 23/31/25 24/32/26
f 8/15/9 2/9/3 4/11/5 9/16/10
f 3/33/4 5/34/6 7/35/8 4/36/5
f 6/13/7 1/18/12 12/20/14 7/14/8
f 11/37/13 10/38/11 9/39/10 12/40/14
f 23/41/25 21/42/23 20/43/22 24/44/26
f 13/21/15 19/27/21 21/29/23 14/22/16
f 22/30/24 16/24/18 18/26/20 23/31/25
f 17/45/19 15/46/17 14/47/16 18/48/20
f 8/49/27 19/50/27 13/51/27 2/52/27
f 16/24/18 6/13/7 5/12/6 17/25/19
f 2/9/3 13/21/15 15/23/17 3/10/4
f 1/18/12 22/30/24 24/32/26 11/19/13
f 19/27/21 8/15/9 10/17/11 20/28/22
f 11/53/28 24/54/28 20/55/28 10/56/28
f 17/57/29 5/58/29 3/59/29 15/60/29
f 22/30/30 1/18/30 6/13/30 16/24/30
f 25/61/31 26/62/31 37/63/31
f 37/63/32 26/64/32 33/65/32
f 33/65/33 26/62/33 45/66/33
f 45/66/34 26/64/34 25/61/34
f 45/67/31 27/68/31 33/69/31
f 33/69/32 27/70/32 28/71/32
f 28/71/33 27/68/33 46/72/33
f 46/72/34 27/70/34 45/67/34
f 29/73/31 30/74/31 31/75/31
f 31/75/32 30/76/32 37/77/32
f 37/77/33 30/74/33 25/78/33
f 25/78/34 30/76/34 29/73/34
f 37/63/31 32/79/31 39/80/31
f 39/80/32 32/81/32 40/82/32
f 40/82/33 32/79/33 33/65/33
f 33/65/34 32/81/34 37/63/34
f 33/69/31 34/83/31 40/84/31
f 40/84/32 34/85/32 35/86/32
f 35/86/33 34/83/33 28/71/33
f 28/71/34 34/85/34 33/69/34
f 31/75/31 36/87/31 38/88/31
f 38/88/32 36/89/32 39/90/32
f 39/90/33 36/87/33 37/77/33
f 37/77/34 36/89/34 31/75/34
f 41/91/31 42/92/31 25/61/31
f 25/61/32 42/93/32 45/66/32
f 45/66/33 42/92/33 43/94/33
f 43/94/34 42/93/34 41/91/34
f 43/95/31 44/96/31 45/67/31
f 45/67/32 44/97/32 46/72/32
f 46/72/33 44/96/33 48/98/33
f 48/98/34 44/97/34 43/95/34
f 49/99/31 47/100/31 29/73/31
f 29/73/32 47/101/32 25/78/32
f 25/78/33 47/100/33 41/102/33
f 41/102/34 47/101/34 49/99/34
